<?xml version="1.0" standalone="no"?>
<!DOCTYPE svg PUBLIC "-//W3C//DTD SVG 1.1//EN" "http://www.w3.org/Graphics/SVG/1.1/DTD/svg11.dtd" >
<svg xmlns="http://www.w3.org/2000/svg" xmlns:xlink="http://www.w3.org/1999/xlink" version="1.1">
<metadata>
Created by FontForge 20190801 at Sat Jan 19 15:50:32 2013
 By Jimmy Wärting
Created by Nate Halley, generated by Fontstruct. Licensed under Creative Commons Attribution ShareAlike (CC BY-SA)
</metadata>
<defs>
<font id="Signus-Digital-Round" horiz-adv-x="383" >
  <font-face 
    font-family="Signus Digital Round NBP"
    font-weight="400"
    font-style="italic"
    font-stretch="normal"
    units-per-em="1024"
    panose-1="0 0 4 0 0 0 0 0 0 0"
    ascent="819"
    descent="-205"
    x-height="371"
    cap-height="563"
    bbox="12 12 435 563"
    underline-thickness="51"
    underline-position="77"
    unicode-range="U+0020-20AC"
  />
<missing-glyph horiz-adv-x="0" 
 />
    <glyph glyph-name=".notdef" horiz-adv-x="0" 
 />
    <glyph glyph-name="glyph1" horiz-adv-x="0" 
 />
    <glyph glyph-name="glyph2" horiz-adv-x="128" 
 />
    <glyph glyph-name="space" unicode=" " horiz-adv-x="128" 
 />
    <glyph glyph-name="exclam" unicode="!" horiz-adv-x="192" 
d="M32 12q-7 0 -13 6q-7 6 -7 14q0 6 6 12q6 7 14 7q6 0 12 -6q7 -6 7 -13q0 -8 -6 -14q-5 -6 -13 -6v0zM96 12q-7 0 -13 6q-7 6 -7 14q0 6 6 12q6 7 14 7q6 0 12 -6q7 -6 7 -13q0 -8 -6 -14q-5 -6 -13 -6v0zM32 76q-7 0 -13 6q-7 6 -7 14q0 6 6 12q6 7 14 7q6 0 12 -6
q7 -6 7 -13q0 -8 -6 -14q-5 -6 -13 -6v0zM96 76q-7 0 -13 6q-7 6 -7 14q0 6 6 12q6 7 14 7q6 0 12 -6q7 -6 7 -13q0 -8 -6 -14q-5 -6 -13 -6v0zM32 268q-7 0 -13 6q-7 6 -7 14q0 6 6 12q6 7 14 7q6 0 12 -6q7 -6 7 -13q0 -8 -6 -14q-5 -6 -13 -6v0zM96 268q-7 0 -13 6
q-7 6 -7 14q0 6 6 12q6 7 14 7q6 0 12 -6q7 -6 7 -13q0 -8 -6 -14q-5 -6 -13 -6v0zM32 332q-7 0 -13 6q-7 6 -7 14q0 6 6 12q6 7 14 7q6 0 12 -6q7 -6 7 -13q0 -8 -6 -14q-5 -6 -13 -6v0zM96 332q-7 0 -13 6q-7 6 -7 14q0 6 6 12q6 7 14 7q6 0 12 -6q7 -6 7 -13q0 -8 -6 -14
q-5 -6 -13 -6v0zM32 396q-7 0 -13 6q-7 6 -7 14q0 6 6 12q6 7 14 7q6 0 12 -6q7 -6 7 -13q0 -8 -6 -14q-5 -6 -13 -6v0zM96 396q-7 0 -13 6q-7 6 -7 14q0 6 6 12q6 7 14 7q6 0 12 -6q7 -6 7 -13q0 -8 -6 -14q-5 -6 -13 -6v0zM32 460q-7 0 -13 6q-7 6 -7 14q0 6 6 12
q6 7 14 7q6 0 12 -6q7 -6 7 -13q0 -8 -6 -14q-5 -6 -13 -6v0zM96 460q-7 0 -13 6q-7 6 -7 14q0 6 6 12q6 7 14 7q6 0 12 -6q7 -6 7 -13q0 -8 -6 -14q-5 -6 -13 -6v0zM32 524q-7 0 -13 6q-7 6 -7 14q0 6 6 12q6 7 14 7q6 0 12 -6q7 -6 7 -13q0 -8 -6 -14q-5 -6 -13 -6v0z
M96 524q-7 0 -13 6q-7 6 -7 14q0 6 6 12q6 7 14 7q6 0 12 -6q7 -6 7 -13q0 -8 -6 -14q-5 -6 -13 -6v0z" />
    <glyph glyph-name="quotedbl" unicode="&#x22;" horiz-adv-x="256" 
d="M32 396q-7 0 -13 6q-7 6 -7 14q0 6 6 12q6 7 14 7q6 0 12 -6q7 -6 7 -13q0 -8 -6 -14q-5 -6 -13 -6v0zM160 396q-7 0 -13 6q-7 6 -7 14q0 6 6 12q6 7 14 7q6 0 12 -6q7 -6 7 -13q0 -8 -6 -14q-5 -6 -13 -6v0zM32 460q-7 0 -13 6q-7 6 -7 14q0 6 6 12q6 7 14 7q6 0 12 -6
q7 -6 7 -13q0 -8 -6 -14q-5 -6 -13 -6v0zM160 460q-7 0 -13 6q-7 6 -7 14q0 6 6 12q6 7 14 7q6 0 12 -6q7 -6 7 -13q0 -8 -6 -14q-5 -6 -13 -6v0zM32 524q-7 0 -13 6q-7 6 -7 14q0 6 6 12q6 7 14 7q6 0 12 -6q7 -6 7 -13q0 -8 -6 -14q-5 -6 -13 -6v0zM160 524q-7 0 -13 6
q-7 6 -7 14q0 6 6 12q6 7 14 7q6 0 12 -6q7 -6 7 -13q0 -8 -6 -14q-5 -6 -13 -6v0z" />
    <glyph glyph-name="numbersign" unicode="#" 
d="M96 140q-7 0 -13 6q-7 6 -7 14q0 6 6 12q6 7 14 7q6 0 12 -6q7 -6 7 -13q0 -8 -6 -14q-5 -6 -13 -6v0zM224 140q-7 0 -13 6q-7 6 -7 14q0 6 6 12q6 7 14 7q6 0 12 -6q7 -6 7 -13q0 -8 -6 -14q-5 -6 -13 -6v0zM32 204q-7 0 -13 6q-7 6 -7 14q0 6 6 12q6 7 14 7q6 0 12 -6
q7 -6 7 -13q0 -8 -6 -14q-5 -6 -13 -6v0zM96 204q-7 0 -13 6q-7 6 -7 14q0 6 6 12q6 7 14 7q6 0 12 -6q7 -6 7 -13q0 -8 -6 -14q-5 -6 -13 -6v0zM160 204q-7 0 -13 6q-7 6 -7 14q0 6 6 12q6 7 14 7q6 0 12 -6q7 -6 7 -13q0 -8 -6 -14q-5 -6 -13 -6v0zM224 204q-7 0 -13 6
q-7 6 -7 14q0 6 6 12q6 7 14 7q6 0 12 -6q7 -6 7 -13q0 -8 -6 -14q-5 -6 -13 -6v0zM288 204q-7 0 -13 6q-7 6 -7 14q0 6 6 12q6 7 14 7q6 0 12 -6q7 -6 7 -13q0 -8 -6 -14q-5 -6 -13 -6v0zM96 268q-7 0 -13 6q-7 6 -7 14q0 6 6 12q6 7 14 7q6 0 12 -6q7 -6 7 -13
q0 -8 -6 -14q-5 -6 -13 -6v0zM224 268q-7 0 -13 6q-7 6 -7 14q0 6 6 12q6 7 14 7q6 0 12 -6q7 -6 7 -13q0 -8 -6 -14q-5 -6 -13 -6v0zM96 332q-7 0 -13 6q-7 6 -7 14q0 6 6 12q6 7 14 7q6 0 12 -6q7 -6 7 -13q0 -8 -6 -14q-5 -6 -13 -6v0zM224 332q-7 0 -13 6q-7 6 -7 14
q0 6 6 12q6 7 14 7q6 0 12 -6q7 -6 7 -13q0 -8 -6 -14q-5 -6 -13 -6v0zM32 396q-7 0 -13 6q-7 6 -7 14q0 6 6 12q6 7 14 7q6 0 12 -6q7 -6 7 -13q0 -8 -6 -14q-5 -6 -13 -6v0zM96 396q-7 0 -13 6q-7 6 -7 14q0 6 6 12q6 7 14 7q6 0 12 -6q7 -6 7 -13q0 -8 -6 -14
q-5 -6 -13 -6v0zM160 396q-7 0 -13 6q-7 6 -7 14q0 6 6 12q6 7 14 7q6 0 12 -6q7 -6 7 -13q0 -8 -6 -14q-5 -6 -13 -6v0zM224 396q-7 0 -13 6q-7 6 -7 14q0 6 6 12q6 7 14 7q6 0 12 -6q7 -6 7 -13q0 -8 -6 -14q-5 -6 -13 -6v0zM288 396q-7 0 -13 6q-7 6 -7 14q0 6 6 12
q6 7 14 7q6 0 12 -6q7 -6 7 -13q0 -8 -6 -14q-5 -6 -13 -6v0zM96 460q-7 0 -13 6q-7 6 -7 14q0 6 6 12q6 7 14 7q6 0 12 -6q7 -6 7 -13q0 -8 -6 -14q-5 -6 -13 -6v0zM224 460q-7 0 -13 6q-7 6 -7 14q0 6 6 12q6 7 14 7q6 0 12 -6q7 -6 7 -13q0 -8 -6 -14q-5 -6 -13 -6v0z
" />
    <glyph glyph-name="dollar" unicode="$" 
d="M160 12q-7 0 -13 6q-7 6 -7 14q0 6 6 12q6 7 14 7q6 0 12 -6q7 -6 7 -13q0 -8 -6 -14q-5 -6 -13 -6v0zM32 76q-7 0 -13 6q-7 6 -7 14q0 6 6 12q6 7 14 7q6 0 12 -6q7 -6 7 -13q0 -8 -6 -14q-5 -6 -13 -6v0zM96 76q-7 0 -13 6q-7 6 -7 14q0 6 6 12q6 7 14 7q6 0 12 -6
q7 -6 7 -13q0 -8 -6 -14q-5 -6 -13 -6v0zM160 76q-7 0 -13 6q-7 6 -7 14q0 6 6 12q6 7 14 7q6 0 12 -6q7 -6 7 -13q0 -8 -6 -14q-5 -6 -13 -6v0zM224 76q-7 0 -13 6q-7 6 -7 14q0 6 6 12q6 7 14 7q6 0 12 -6q7 -6 7 -13q0 -8 -6 -14q-5 -6 -13 -6v0zM160 140q-7 0 -13 6
q-7 6 -7 14q0 6 6 12q6 7 14 7q6 0 12 -6q7 -6 7 -13q0 -8 -6 -14q-5 -6 -13 -6v0zM288 140q-7 0 -13 6q-7 6 -7 14q0 6 6 12q6 7 14 7q6 0 12 -6q7 -6 7 -13q0 -8 -6 -14q-5 -6 -13 -6v0zM160 204q-7 0 -13 6q-7 6 -7 14q0 6 6 12q6 7 14 7q6 0 12 -6q7 -6 7 -13
q0 -8 -6 -14q-5 -6 -13 -6v0zM288 204q-7 0 -13 6q-7 6 -7 14q0 6 6 12q6 7 14 7q6 0 12 -6q7 -6 7 -13q0 -8 -6 -14q-5 -6 -13 -6v0zM96 268q-7 0 -13 6q-7 6 -7 14q0 6 6 12q6 7 14 7q6 0 12 -6q7 -6 7 -13q0 -8 -6 -14q-5 -6 -13 -6v0zM160 268q-7 0 -13 6q-7 6 -7 14
q0 6 6 12q6 7 14 7q6 0 12 -6q7 -6 7 -13q0 -8 -6 -14q-5 -6 -13 -6v0zM224 268q-7 0 -13 6q-7 6 -7 14q0 6 6 12q6 7 14 7q6 0 12 -6q7 -6 7 -13q0 -8 -6 -14q-5 -6 -13 -6v0zM32 332q-7 0 -13 6q-7 6 -7 14q0 6 6 12q6 7 14 7q6 0 12 -6q7 -6 7 -13q0 -8 -6 -14
q-5 -6 -13 -6v0zM160 332q-7 0 -13 6q-7 6 -7 14q0 6 6 12q6 7 14 7q6 0 12 -6q7 -6 7 -13q0 -8 -6 -14q-5 -6 -13 -6v0zM32 396q-7 0 -13 6q-7 6 -7 14q0 6 6 12q6 7 14 7q6 0 12 -6q7 -6 7 -13q0 -8 -6 -14q-5 -6 -13 -6v0zM160 396q-7 0 -13 6q-7 6 -7 14q0 6 6 12
q6 7 14 7q6 0 12 -6q7 -6 7 -13q0 -8 -6 -14q-5 -6 -13 -6v0zM96 460q-7 0 -13 6q-7 6 -7 14q0 6 6 12q6 7 14 7q6 0 12 -6q7 -6 7 -13q0 -8 -6 -14q-5 -6 -13 -6v0zM160 460q-7 0 -13 6q-7 6 -7 14q0 6 6 12q6 7 14 7q6 0 12 -6q7 -6 7 -13q0 -8 -6 -14q-5 -6 -13 -6v0z
M224 460q-7 0 -13 6q-7 6 -7 14q0 6 6 12q6 7 14 7q6 0 12 -6q7 -6 7 -13q0 -8 -6 -14q-5 -6 -13 -6v0zM288 460q-7 0 -13 6q-7 6 -7 14q0 6 6 12q6 7 14 7q6 0 12 -6q7 -6 7 -13q0 -8 -6 -14q-5 -6 -13 -6v0zM160 524q-7 0 -13 6q-7 6 -7 14q0 6 6 12q6 7 14 7q6 0 12 -6
q7 -6 7 -13q0 -8 -6 -14q-5 -6 -13 -6v0z" />
    <glyph glyph-name="percent" unicode="%" horiz-adv-x="447" 
d="M288 12q-7 0 -13 6q-7 6 -7 14q0 6 6 12q6 7 14 7q6 0 12 -6q7 -6 7 -13q0 -8 -6 -14q-5 -6 -13 -6v0zM32 76q-7 0 -13 6q-7 6 -7 14q0 6 6 12q6 7 14 7q6 0 12 -6q7 -6 7 -13q0 -8 -6 -14q-5 -6 -13 -6v0zM224 76q-7 0 -13 6q-7 6 -7 14q0 6 6 12q6 7 14 7q6 0 12 -6
q7 -6 7 -13q0 -8 -6 -14q-5 -6 -13 -6v0zM352 76q-7 0 -13 6q-7 6 -7 14q0 6 6 12q6 7 14 7q6 0 12 -6q7 -6 7 -13q0 -8 -6 -14q-5 -6 -13 -6v0zM96 140q-7 0 -13 6q-7 6 -7 14q0 6 6 12q6 7 14 7q6 0 12 -6q7 -6 7 -13q0 -8 -6 -14q-5 -6 -13 -6v0zM288 140q-7 0 -13 6
q-7 6 -7 14q0 6 6 12q6 7 14 7q6 0 12 -6q7 -6 7 -13q0 -8 -6 -14q-5 -6 -13 -6v0zM160 204q-7 0 -13 6q-7 6 -7 14q0 6 6 12q6 7 14 7q6 0 12 -6q7 -6 7 -13q0 -8 -6 -14q-5 -6 -13 -6v0zM224 268q-7 0 -13 6q-7 6 -7 14q0 6 6 12q6 7 14 7q6 0 12 -6q7 -6 7 -13
q0 -8 -6 -14q-5 -6 -13 -6v0zM96 332q-7 0 -13 6q-7 6 -7 14q0 6 6 12q6 7 14 7q6 0 12 -6q7 -6 7 -13q0 -8 -6 -14q-5 -6 -13 -6v0zM288 332q-7 0 -13 6q-7 6 -7 14q0 6 6 12q6 7 14 7q6 0 12 -6q7 -6 7 -13q0 -8 -6 -14q-5 -6 -13 -6v0zM32 396q-7 0 -13 6q-7 6 -7 14
q0 6 6 12q6 7 14 7q6 0 12 -6q7 -6 7 -13q0 -8 -6 -14q-5 -6 -13 -6v0zM160 396q-7 0 -13 6q-7 6 -7 14q0 6 6 12q6 7 14 7q6 0 12 -6q7 -6 7 -13q0 -8 -6 -14q-5 -6 -13 -6v0zM352 396q-7 0 -13 6q-7 6 -7 14q0 6 6 12q6 7 14 7q6 0 12 -6q7 -6 7 -13q0 -8 -6 -14
q-5 -6 -13 -6v0zM96 460q-7 0 -13 6q-7 6 -7 14q0 6 6 12q6 7 14 7q6 0 12 -6q7 -6 7 -13q0 -8 -6 -14q-5 -6 -13 -6v0z" />
    <glyph glyph-name="ampersand" unicode="&#x26;" horiz-adv-x="447" 
d="M96 12q-7 0 -13 6q-7 6 -7 14q0 6 6 12q6 7 14 7q6 0 12 -6q7 -6 7 -13q0 -8 -6 -14q-5 -6 -13 -6v0zM160 12q-7 0 -13 6q-7 6 -7 14q0 6 6 12q6 7 14 7q6 0 12 -6q7 -6 7 -13q0 -8 -6 -14q-5 -6 -13 -6v0zM224 12q-7 0 -13 6q-7 6 -7 14q0 6 6 12q6 7 14 7q6 0 12 -6
q7 -6 7 -13q0 -8 -6 -14q-5 -6 -13 -6v0zM352 12q-7 0 -13 6q-7 6 -7 14q0 6 6 12q6 7 14 7q6 0 12 -6q7 -6 7 -13q0 -8 -6 -14q-5 -6 -13 -6v0zM32 76q-7 0 -13 6q-7 6 -7 14q0 6 6 12q6 7 14 7q6 0 12 -6q7 -6 7 -13q0 -8 -6 -14q-5 -6 -13 -6v0zM288 76q-7 0 -13 6
q-7 6 -7 14q0 6 6 12q6 7 14 7q6 0 12 -6q7 -6 7 -13q0 -8 -6 -14q-5 -6 -13 -6v0zM32 140q-7 0 -13 6q-7 6 -7 14q0 6 6 12q6 7 14 7q6 0 12 -6q7 -6 7 -13q0 -8 -6 -14q-5 -6 -13 -6v0zM288 140q-7 0 -13 6q-7 6 -7 14q0 6 6 12q6 7 14 7q6 0 12 -6q7 -6 7 -13
q0 -8 -6 -14q-5 -6 -13 -6v0zM32 204q-7 0 -13 6q-7 6 -7 14q0 6 6 12q6 7 14 7q6 0 12 -6q7 -6 7 -13q0 -8 -6 -14q-5 -6 -13 -6v0zM224 204q-7 0 -13 6q-7 6 -7 14q0 6 6 12q6 7 14 7q6 0 12 -6q7 -6 7 -13q0 -8 -6 -14q-5 -6 -13 -6v0zM352 204q-7 0 -13 6q-7 6 -7 14
q0 6 6 12q6 7 14 7q6 0 12 -6q7 -6 7 -13q0 -8 -6 -14q-5 -6 -13 -6v0zM32 268q-7 0 -13 6q-7 6 -7 14q0 6 6 12q6 7 14 7q6 0 12 -6q7 -6 7 -13q0 -8 -6 -14q-5 -6 -13 -6v0zM160 268q-7 0 -13 6q-7 6 -7 14q0 6 6 12q6 7 14 7q6 0 12 -6q7 -6 7 -13q0 -8 -6 -14
q-5 -6 -13 -6v0zM96 332q-7 0 -13 6q-7 6 -7 14q0 6 6 12q6 7 14 7q6 0 12 -6q7 -6 7 -13q0 -8 -6 -14q-5 -6 -13 -6v0zM160 332q-7 0 -13 6q-7 6 -7 14q0 6 6 12q6 7 14 7q6 0 12 -6q7 -6 7 -13q0 -8 -6 -14q-5 -6 -13 -6v0zM32 396q-7 0 -13 6q-7 6 -7 14q0 6 6 12
q6 7 14 7q6 0 12 -6q7 -6 7 -13q0 -8 -6 -14q-5 -6 -13 -6v0zM224 396q-7 0 -13 6q-7 6 -7 14q0 6 6 12q6 7 14 7q6 0 12 -6q7 -6 7 -13q0 -8 -6 -14q-5 -6 -13 -6v0zM32 460q-7 0 -13 6q-7 6 -7 14q0 6 6 12q6 7 14 7q6 0 12 -6q7 -6 7 -13q0 -8 -6 -14q-5 -6 -13 -6v0z
M224 460q-7 0 -13 6q-7 6 -7 14q0 6 6 12q6 7 14 7q6 0 12 -6q7 -6 7 -13q0 -8 -6 -14q-5 -6 -13 -6v0zM96 524q-7 0 -13 6q-7 6 -7 14q0 6 6 12q6 7 14 7q6 0 12 -6q7 -6 7 -13q0 -8 -6 -14q-5 -6 -13 -6v0zM160 524q-7 0 -13 6q-7 6 -7 14q0 6 6 12q6 7 14 7q6 0 12 -6
q7 -6 7 -13q0 -8 -6 -14q-5 -6 -13 -6v0z" />
    <glyph glyph-name="quotesingle" unicode="'" horiz-adv-x="192" 
d="M32 396q-7 0 -13 6q-7 6 -7 14q0 6 6 12q6 7 14 7q6 0 12 -6q7 -6 7 -13q0 -8 -6 -14q-5 -6 -13 -6v0zM96 460q-7 0 -13 6q-7 6 -7 14q0 6 6 12q6 7 14 7q6 0 12 -6q7 -6 7 -13q0 -8 -6 -14q-5 -6 -13 -6v0zM32 524q-7 0 -13 6q-7 6 -7 14q0 6 6 12q6 7 14 7q6 0 12 -6
q7 -6 7 -13q0 -8 -6 -14q-5 -6 -13 -6v0zM96 524q-7 0 -13 6q-7 6 -7 14q0 6 6 12q6 7 14 7q6 0 12 -6q7 -6 7 -13q0 -8 -6 -14q-5 -6 -13 -6v0z" />
    <glyph glyph-name="parenleft" unicode="(" horiz-adv-x="192" 
d="M96 12q-7 0 -13 6q-7 6 -7 14q0 6 6 12q6 7 14 7q6 0 12 -6q7 -6 7 -13q0 -8 -6 -14q-5 -6 -13 -6v0zM32 76q-7 0 -13 6q-7 6 -7 14q0 6 6 12q6 7 14 7q6 0 12 -6q7 -6 7 -13q0 -8 -6 -14q-5 -6 -13 -6v0zM32 140q-7 0 -13 6q-7 6 -7 14q0 6 6 12q6 7 14 7q6 0 12 -6
q7 -6 7 -13q0 -8 -6 -14q-5 -6 -13 -6v0zM32 204q-7 0 -13 6q-7 6 -7 14q0 6 6 12q6 7 14 7q6 0 12 -6q7 -6 7 -13q0 -8 -6 -14q-5 -6 -13 -6v0zM32 268q-7 0 -13 6q-7 6 -7 14q0 6 6 12q6 7 14 7q6 0 12 -6q7 -6 7 -13q0 -8 -6 -14q-5 -6 -13 -6v0zM32 332q-7 0 -13 6
q-7 6 -7 14q0 6 6 12q6 7 14 7q6 0 12 -6q7 -6 7 -13q0 -8 -6 -14q-5 -6 -13 -6v0zM32 396q-7 0 -13 6q-7 6 -7 14q0 6 6 12q6 7 14 7q6 0 12 -6q7 -6 7 -13q0 -8 -6 -14q-5 -6 -13 -6v0zM32 460q-7 0 -13 6q-7 6 -7 14q0 6 6 12q6 7 14 7q6 0 12 -6q7 -6 7 -13q0 -8 -6 -14
q-5 -6 -13 -6v0zM96 524q-7 0 -13 6q-7 6 -7 14q0 6 6 12q6 7 14 7q6 0 12 -6q7 -6 7 -13q0 -8 -6 -14q-5 -6 -13 -6v0z" />
    <glyph glyph-name="parenright" unicode=")" horiz-adv-x="192" 
d="M32 12q-7 0 -13 6q-7 6 -7 14q0 6 6 12q6 7 14 7q6 0 12 -6q7 -6 7 -13q0 -8 -6 -14q-5 -6 -13 -6v0zM96 76q-7 0 -13 6q-7 6 -7 14q0 6 6 12q6 7 14 7q6 0 12 -6q7 -6 7 -13q0 -8 -6 -14q-5 -6 -13 -6v0zM96 140q-7 0 -13 6q-7 6 -7 14q0 6 6 12q6 7 14 7q6 0 12 -6
q7 -6 7 -13q0 -8 -6 -14q-5 -6 -13 -6v0zM96 204q-7 0 -13 6q-7 6 -7 14q0 6 6 12q6 7 14 7q6 0 12 -6q7 -6 7 -13q0 -8 -6 -14q-5 -6 -13 -6v0zM96 268q-7 0 -13 6q-7 6 -7 14q0 6 6 12q6 7 14 7q6 0 12 -6q7 -6 7 -13q0 -8 -6 -14q-5 -6 -13 -6v0zM96 332q-7 0 -13 6
q-7 6 -7 14q0 6 6 12q6 7 14 7q6 0 12 -6q7 -6 7 -13q0 -8 -6 -14q-5 -6 -13 -6v0zM96 396q-7 0 -13 6q-7 6 -7 14q0 6 6 12q6 7 14 7q6 0 12 -6q7 -6 7 -13q0 -8 -6 -14q-5 -6 -13 -6v0zM96 460q-7 0 -13 6q-7 6 -7 14q0 6 6 12q6 7 14 7q6 0 12 -6q7 -6 7 -13q0 -8 -6 -14
q-5 -6 -13 -6v0zM32 524q-7 0 -13 6q-7 6 -7 14q0 6 6 12q6 7 14 7q6 0 12 -6q7 -6 7 -13q0 -8 -6 -14q-5 -6 -13 -6v0z" />
    <glyph glyph-name="asterisk" unicode="*" 
d="M96 140q-7 0 -13 6q-7 6 -7 14q0 6 6 12q6 7 14 7q6 0 12 -6q7 -6 7 -13q0 -8 -6 -14q-5 -6 -13 -6v0zM224 140q-7 0 -13 6q-7 6 -7 14q0 6 6 12q6 7 14 7q6 0 12 -6q7 -6 7 -13q0 -8 -6 -14q-5 -6 -13 -6v0zM160 204q-7 0 -13 6q-7 6 -7 14q0 6 6 12q6 7 14 7q6 0 12 -6
q7 -6 7 -13q0 -8 -6 -14q-5 -6 -13 -6v0zM32 268q-7 0 -13 6q-7 6 -7 14q0 6 6 12q6 7 14 7q6 0 12 -6q7 -6 7 -13q0 -8 -6 -14q-5 -6 -13 -6v0zM96 268q-7 0 -13 6q-7 6 -7 14q0 6 6 12q6 7 14 7q6 0 12 -6q7 -6 7 -13q0 -8 -6 -14q-5 -6 -13 -6v0zM224 268q-7 0 -13 6
q-7 6 -7 14q0 6 6 12q6 7 14 7q6 0 12 -6q7 -6 7 -13q0 -8 -6 -14q-5 -6 -13 -6v0zM288 268q-7 0 -13 6q-7 6 -7 14q0 6 6 12q6 7 14 7q6 0 12 -6q7 -6 7 -13q0 -8 -6 -14q-5 -6 -13 -6v0zM160 332q-7 0 -13 6q-7 6 -7 14q0 6 6 12q6 7 14 7q6 0 12 -6q7 -6 7 -13
q0 -8 -6 -14q-5 -6 -13 -6v0zM160 396q-7 0 -13 6q-7 6 -7 14q0 6 6 12q6 7 14 7q6 0 12 -6q7 -6 7 -13q0 -8 -6 -14q-5 -6 -13 -6v0z" />
    <glyph glyph-name="plus" unicode="+" 
d="M160 140q-7 0 -13 6q-7 6 -7 14q0 6 6 12q6 7 14 7q6 0 12 -6q7 -6 7 -13q0 -8 -6 -14q-5 -6 -13 -6v0zM160 204q-7 0 -13 6q-7 6 -7 14q0 6 6 12q6 7 14 7q6 0 12 -6q7 -6 7 -13q0 -8 -6 -14q-5 -6 -13 -6v0zM32 268q-7 0 -13 6q-7 6 -7 14q0 6 6 12q6 7 14 7q6 0 12 -6
q7 -6 7 -13q0 -8 -6 -14q-5 -6 -13 -6v0zM96 268q-7 0 -13 6q-7 6 -7 14q0 6 6 12q6 7 14 7q6 0 12 -6q7 -6 7 -13q0 -8 -6 -14q-5 -6 -13 -6v0zM160 268q-7 0 -13 6q-7 6 -7 14q0 6 6 12q6 7 14 7q6 0 12 -6q7 -6 7 -13q0 -8 -6 -14q-5 -6 -13 -6v0zM224 268q-7 0 -13 6
q-7 6 -7 14q0 6 6 12q6 7 14 7q6 0 12 -6q7 -6 7 -13q0 -8 -6 -14q-5 -6 -13 -6v0zM288 268q-7 0 -13 6q-7 6 -7 14q0 6 6 12q6 7 14 7q6 0 12 -6q7 -6 7 -13q0 -8 -6 -14q-5 -6 -13 -6v0zM160 332q-7 0 -13 6q-7 6 -7 14q0 6 6 12q6 7 14 7q6 0 12 -6q7 -6 7 -13
q0 -8 -6 -14q-5 -6 -13 -6v0zM160 396q-7 0 -13 6q-7 6 -7 14q0 6 6 12q6 7 14 7q6 0 12 -6q7 -6 7 -13q0 -8 -6 -14q-5 -6 -13 -6v0z" />
    <glyph glyph-name="comma" unicode="," horiz-adv-x="192" 
d="M32 12q-7 0 -13 6q-7 6 -7 14q0 6 6 12q6 7 14 7q6 0 12 -6q7 -6 7 -13q0 -8 -6 -14q-5 -6 -13 -6v0zM96 76q-7 0 -13 6q-7 6 -7 14q0 6 6 12q6 7 14 7q6 0 12 -6q7 -6 7 -13q0 -8 -6 -14q-5 -6 -13 -6v0zM32 140q-7 0 -13 6q-7 6 -7 14q0 6 6 12q6 7 14 7q6 0 12 -6
q7 -6 7 -13q0 -8 -6 -14q-5 -6 -13 -6v0zM96 140q-7 0 -13 6q-7 6 -7 14q0 6 6 12q6 7 14 7q6 0 12 -6q7 -6 7 -13q0 -8 -6 -14q-5 -6 -13 -6v0z" />
    <glyph glyph-name="hyphen" unicode="-" 
d="M32 268q-7 0 -13 6q-7 6 -7 14q0 6 6 12q6 7 14 7q6 0 12 -6q7 -6 7 -13q0 -8 -6 -14q-5 -6 -13 -6v0zM96 268q-7 0 -13 6q-7 6 -7 14q0 6 6 12q6 7 14 7q6 0 12 -6q7 -6 7 -13q0 -8 -6 -14q-5 -6 -13 -6v0zM160 268q-7 0 -13 6q-7 6 -7 14q0 6 6 12q6 7 14 7q6 0 12 -6
q7 -6 7 -13q0 -8 -6 -14q-5 -6 -13 -6v0zM224 268q-7 0 -13 6q-7 6 -7 14q0 6 6 12q6 7 14 7q6 0 12 -6q7 -6 7 -13q0 -8 -6 -14q-5 -6 -13 -6v0zM288 268q-7 0 -13 6q-7 6 -7 14q0 6 6 12q6 7 14 7q6 0 12 -6q7 -6 7 -13q0 -8 -6 -14q-5 -6 -13 -6v0z" />
    <glyph glyph-name="period" unicode="." horiz-adv-x="192" 
d="M32 12q-7 0 -13 6q-7 6 -7 14q0 6 6 12q6 7 14 7q6 0 12 -6q7 -6 7 -13q0 -8 -6 -14q-5 -6 -13 -6v0zM96 12q-7 0 -13 6q-7 6 -7 14q0 6 6 12q6 7 14 7q6 0 12 -6q7 -6 7 -13q0 -8 -6 -14q-5 -6 -13 -6v0zM32 76q-7 0 -13 6q-7 6 -7 14q0 6 6 12q6 7 14 7q6 0 12 -6
q7 -6 7 -13q0 -8 -6 -14q-5 -6 -13 -6v0zM96 76q-7 0 -13 6q-7 6 -7 14q0 6 6 12q6 7 14 7q6 0 12 -6q7 -6 7 -13q0 -8 -6 -14q-5 -6 -13 -6v0z" />
    <glyph glyph-name="slash" unicode="/" 
d="M32 12q-7 0 -13 6q-7 6 -7 14q0 6 6 12q6 7 14 7q6 0 12 -6q7 -6 7 -13q0 -8 -6 -14q-5 -6 -13 -6v0zM32 76q-7 0 -13 6q-7 6 -7 14q0 6 6 12q6 7 14 7q6 0 12 -6q7 -6 7 -13q0 -8 -6 -14q-5 -6 -13 -6v0zM96 140q-7 0 -13 6q-7 6 -7 14q0 6 6 12q6 7 14 7q6 0 12 -6
q7 -6 7 -13q0 -8 -6 -14q-5 -6 -13 -6v0zM96 204q-7 0 -13 6q-7 6 -7 14q0 6 6 12q6 7 14 7q6 0 12 -6q7 -6 7 -13q0 -8 -6 -14q-5 -6 -13 -6v0zM160 268q-7 0 -13 6q-7 6 -7 14q0 6 6 12q6 7 14 7q6 0 12 -6q7 -6 7 -13q0 -8 -6 -14q-5 -6 -13 -6v0zM160 332q-7 0 -13 6
q-7 6 -7 14q0 6 6 12q6 7 14 7q6 0 12 -6q7 -6 7 -13q0 -8 -6 -14q-5 -6 -13 -6v0zM224 396q-7 0 -13 6q-7 6 -7 14q0 6 6 12q6 7 14 7q6 0 12 -6q7 -6 7 -13q0 -8 -6 -14q-5 -6 -13 -6v0zM224 460q-7 0 -13 6q-7 6 -7 14q0 6 6 12q6 7 14 7q6 0 12 -6q7 -6 7 -13
q0 -8 -6 -14q-5 -6 -13 -6v0zM288 524q-7 0 -13 6q-7 6 -7 14q0 6 6 12q6 7 14 7q6 0 12 -6q7 -6 7 -13q0 -8 -6 -14q-5 -6 -13 -6v0z" />
    <glyph glyph-name="zero" unicode="0" 
d="M96 12q-7 0 -13 6q-7 6 -7 14q0 6 6 12q6 7 14 7q6 0 12 -6q7 -6 7 -13q0 -8 -6 -14q-5 -6 -13 -6v0zM160 12q-7 0 -13 6q-7 6 -7 14q0 6 6 12q6 7 14 7q6 0 12 -6q7 -6 7 -13q0 -8 -6 -14q-5 -6 -13 -6v0zM224 12q-7 0 -13 6q-7 6 -7 14q0 6 6 12q6 7 14 7q6 0 12 -6
q7 -6 7 -13q0 -8 -6 -14q-5 -6 -13 -6v0zM32 76q-7 0 -13 6q-7 6 -7 14q0 6 6 12q6 7 14 7q6 0 12 -6q7 -6 7 -13q0 -8 -6 -14q-5 -6 -13 -6v0zM288 76q-7 0 -13 6q-7 6 -7 14q0 6 6 12q6 7 14 7q6 0 12 -6q7 -6 7 -13q0 -8 -6 -14q-5 -6 -13 -6v0zM32 140q-7 0 -13 6
q-7 6 -7 14q0 6 6 12q6 7 14 7q6 0 12 -6q7 -6 7 -13q0 -8 -6 -14q-5 -6 -13 -6v0zM288 140q-7 0 -13 6q-7 6 -7 14q0 6 6 12q6 7 14 7q6 0 12 -6q7 -6 7 -13q0 -8 -6 -14q-5 -6 -13 -6v0zM32 204q-7 0 -13 6q-7 6 -7 14q0 6 6 12q6 7 14 7q6 0 12 -6q7 -6 7 -13
q0 -8 -6 -14q-5 -6 -13 -6v0zM96 204q-7 0 -13 6q-7 6 -7 14q0 6 6 12q6 7 14 7q6 0 12 -6q7 -6 7 -13q0 -8 -6 -14q-5 -6 -13 -6v0zM288 204q-7 0 -13 6q-7 6 -7 14q0 6 6 12q6 7 14 7q6 0 12 -6q7 -6 7 -13q0 -8 -6 -14q-5 -6 -13 -6v0zM32 268q-7 0 -13 6q-7 6 -7 14
q0 6 6 12q6 7 14 7q6 0 12 -6q7 -6 7 -13q0 -8 -6 -14q-5 -6 -13 -6v0zM160 268q-7 0 -13 6q-7 6 -7 14q0 6 6 12q6 7 14 7q6 0 12 -6q7 -6 7 -13q0 -8 -6 -14q-5 -6 -13 -6v0zM288 268q-7 0 -13 6q-7 6 -7 14q0 6 6 12q6 7 14 7q6 0 12 -6q7 -6 7 -13q0 -8 -6 -14
q-5 -6 -13 -6v0zM32 332q-7 0 -13 6q-7 6 -7 14q0 6 6 12q6 7 14 7q6 0 12 -6q7 -6 7 -13q0 -8 -6 -14q-5 -6 -13 -6v0zM224 332q-7 0 -13 6q-7 6 -7 14q0 6 6 12q6 7 14 7q6 0 12 -6q7 -6 7 -13q0 -8 -6 -14q-5 -6 -13 -6v0zM288 332q-7 0 -13 6q-7 6 -7 14q0 6 6 12
q6 7 14 7q6 0 12 -6q7 -6 7 -13q0 -8 -6 -14q-5 -6 -13 -6v0zM32 396q-7 0 -13 6q-7 6 -7 14q0 6 6 12q6 7 14 7q6 0 12 -6q7 -6 7 -13q0 -8 -6 -14q-5 -6 -13 -6v0zM288 396q-7 0 -13 6q-7 6 -7 14q0 6 6 12q6 7 14 7q6 0 12 -6q7 -6 7 -13q0 -8 -6 -14q-5 -6 -13 -6v0z
M32 460q-7 0 -13 6q-7 6 -7 14q0 6 6 12q6 7 14 7q6 0 12 -6q7 -6 7 -13q0 -8 -6 -14q-5 -6 -13 -6v0zM288 460q-7 0 -13 6q-7 6 -7 14q0 6 6 12q6 7 14 7q6 0 12 -6q7 -6 7 -13q0 -8 -6 -14q-5 -6 -13 -6v0zM96 524q-7 0 -13 6q-7 6 -7 14q0 6 6 12q6 7 14 7q6 0 12 -6
q7 -6 7 -13q0 -8 -6 -14q-5 -6 -13 -6v0zM160 524q-7 0 -13 6q-7 6 -7 14q0 6 6 12q6 7 14 7q6 0 12 -6q7 -6 7 -13q0 -8 -6 -14q-5 -6 -13 -6v0zM224 524q-7 0 -13 6q-7 6 -7 14q0 6 6 12q6 7 14 7q6 0 12 -6q7 -6 7 -13q0 -8 -6 -14q-5 -6 -13 -6v0z" />
    <glyph glyph-name="one" unicode="1" 
d="M32 12q-7 0 -13 6q-7 6 -7 14q0 6 6 12q6 7 14 7q6 0 12 -6q7 -6 7 -13q0 -8 -6 -14q-5 -6 -13 -6v0zM96 12q-7 0 -13 6q-7 6 -7 14q0 6 6 12q6 7 14 7q6 0 12 -6q7 -6 7 -13q0 -8 -6 -14q-5 -6 -13 -6v0zM160 12q-7 0 -13 6q-7 6 -7 14q0 6 6 12q6 7 14 7q6 0 12 -6
q7 -6 7 -13q0 -8 -6 -14q-5 -6 -13 -6v0zM224 12q-7 0 -13 6q-7 6 -7 14q0 6 6 12q6 7 14 7q6 0 12 -6q7 -6 7 -13q0 -8 -6 -14q-5 -6 -13 -6v0zM288 12q-7 0 -13 6q-7 6 -7 14q0 6 6 12q6 7 14 7q6 0 12 -6q7 -6 7 -13q0 -8 -6 -14q-5 -6 -13 -6v0zM160 76q-7 0 -13 6
q-7 6 -7 14q0 6 6 12q6 7 14 7q6 0 12 -6q7 -6 7 -13q0 -8 -6 -14q-5 -6 -13 -6v0zM160 140q-7 0 -13 6q-7 6 -7 14q0 6 6 12q6 7 14 7q6 0 12 -6q7 -6 7 -13q0 -8 -6 -14q-5 -6 -13 -6v0zM160 204q-7 0 -13 6q-7 6 -7 14q0 6 6 12q6 7 14 7q6 0 12 -6q7 -6 7 -13
q0 -8 -6 -14q-5 -6 -13 -6v0zM160 268q-7 0 -13 6q-7 6 -7 14q0 6 6 12q6 7 14 7q6 0 12 -6q7 -6 7 -13q0 -8 -6 -14q-5 -6 -13 -6v0zM160 332q-7 0 -13 6q-7 6 -7 14q0 6 6 12q6 7 14 7q6 0 12 -6q7 -6 7 -13q0 -8 -6 -14q-5 -6 -13 -6v0zM160 396q-7 0 -13 6q-7 6 -7 14
q0 6 6 12q6 7 14 7q6 0 12 -6q7 -6 7 -13q0 -8 -6 -14q-5 -6 -13 -6v0zM32 460q-7 0 -13 6q-7 6 -7 14q0 6 6 12q6 7 14 7q6 0 12 -6q7 -6 7 -13q0 -8 -6 -14q-5 -6 -13 -6v0zM96 460q-7 0 -13 6q-7 6 -7 14q0 6 6 12q6 7 14 7q6 0 12 -6q7 -6 7 -13q0 -8 -6 -14
q-5 -6 -13 -6v0zM160 460q-7 0 -13 6q-7 6 -7 14q0 6 6 12q6 7 14 7q6 0 12 -6q7 -6 7 -13q0 -8 -6 -14q-5 -6 -13 -6v0zM160 524q-7 0 -13 6q-7 6 -7 14q0 6 6 12q6 7 14 7q6 0 12 -6q7 -6 7 -13q0 -8 -6 -14q-5 -6 -13 -6v0z" />
    <glyph glyph-name="two" unicode="2" 
d="M32 12q-7 0 -13 6q-7 6 -7 14q0 6 6 12q6 7 14 7q6 0 12 -6q7 -6 7 -13q0 -8 -6 -14q-5 -6 -13 -6v0zM96 12q-7 0 -13 6q-7 6 -7 14q0 6 6 12q6 7 14 7q6 0 12 -6q7 -6 7 -13q0 -8 -6 -14q-5 -6 -13 -6v0zM160 12q-7 0 -13 6q-7 6 -7 14q0 6 6 12q6 7 14 7q6 0 12 -6
q7 -6 7 -13q0 -8 -6 -14q-5 -6 -13 -6v0zM224 12q-7 0 -13 6q-7 6 -7 14q0 6 6 12q6 7 14 7q6 0 12 -6q7 -6 7 -13q0 -8 -6 -14q-5 -6 -13 -6v0zM288 12q-7 0 -13 6q-7 6 -7 14q0 6 6 12q6 7 14 7q6 0 12 -6q7 -6 7 -13q0 -8 -6 -14q-5 -6 -13 -6v0zM32 76q-7 0 -13 6
q-7 6 -7 14q0 6 6 12q6 7 14 7q6 0 12 -6q7 -6 7 -13q0 -8 -6 -14q-5 -6 -13 -6v0zM96 140q-7 0 -13 6q-7 6 -7 14q0 6 6 12q6 7 14 7q6 0 12 -6q7 -6 7 -13q0 -8 -6 -14q-5 -6 -13 -6v0zM160 204q-7 0 -13 6q-7 6 -7 14q0 6 6 12q6 7 14 7q6 0 12 -6q7 -6 7 -13
q0 -8 -6 -14q-5 -6 -13 -6v0zM224 268q-7 0 -13 6q-7 6 -7 14q0 6 6 12q6 7 14 7q6 0 12 -6q7 -6 7 -13q0 -8 -6 -14q-5 -6 -13 -6v0zM288 332q-7 0 -13 6q-7 6 -7 14q0 6 6 12q6 7 14 7q6 0 12 -6q7 -6 7 -13q0 -8 -6 -14q-5 -6 -13 -6v0zM288 396q-7 0 -13 6q-7 6 -7 14
q0 6 6 12q6 7 14 7q6 0 12 -6q7 -6 7 -13q0 -8 -6 -14q-5 -6 -13 -6v0zM32 460q-7 0 -13 6q-7 6 -7 14q0 6 6 12q6 7 14 7q6 0 12 -6q7 -6 7 -13q0 -8 -6 -14q-5 -6 -13 -6v0zM288 460q-7 0 -13 6q-7 6 -7 14q0 6 6 12q6 7 14 7q6 0 12 -6q7 -6 7 -13q0 -8 -6 -14
q-5 -6 -13 -6v0zM96 524q-7 0 -13 6q-7 6 -7 14q0 6 6 12q6 7 14 7q6 0 12 -6q7 -6 7 -13q0 -8 -6 -14q-5 -6 -13 -6v0zM160 524q-7 0 -13 6q-7 6 -7 14q0 6 6 12q6 7 14 7q6 0 12 -6q7 -6 7 -13q0 -8 -6 -14q-5 -6 -13 -6v0zM224 524q-7 0 -13 6q-7 6 -7 14q0 6 6 12
q6 7 14 7q6 0 12 -6q7 -6 7 -13q0 -8 -6 -14q-5 -6 -13 -6v0z" />
    <glyph glyph-name="three" unicode="3" 
d="M96 12q-7 0 -13 6q-7 6 -7 14q0 6 6 12q6 7 14 7q6 0 12 -6q7 -6 7 -13q0 -8 -6 -14q-5 -6 -13 -6v0zM160 12q-7 0 -13 6q-7 6 -7 14q0 6 6 12q6 7 14 7q6 0 12 -6q7 -6 7 -13q0 -8 -6 -14q-5 -6 -13 -6v0zM224 12q-7 0 -13 6q-7 6 -7 14q0 6 6 12q6 7 14 7q6 0 12 -6
q7 -6 7 -13q0 -8 -6 -14q-5 -6 -13 -6v0zM32 76q-7 0 -13 6q-7 6 -7 14q0 6 6 12q6 7 14 7q6 0 12 -6q7 -6 7 -13q0 -8 -6 -14q-5 -6 -13 -6v0zM288 76q-7 0 -13 6q-7 6 -7 14q0 6 6 12q6 7 14 7q6 0 12 -6q7 -6 7 -13q0 -8 -6 -14q-5 -6 -13 -6v0zM288 140q-7 0 -13 6
q-7 6 -7 14q0 6 6 12q6 7 14 7q6 0 12 -6q7 -6 7 -13q0 -8 -6 -14q-5 -6 -13 -6v0zM288 204q-7 0 -13 6q-7 6 -7 14q0 6 6 12q6 7 14 7q6 0 12 -6q7 -6 7 -13q0 -8 -6 -14q-5 -6 -13 -6v0zM96 268q-7 0 -13 6q-7 6 -7 14q0 6 6 12q6 7 14 7q6 0 12 -6q7 -6 7 -13
q0 -8 -6 -14q-5 -6 -13 -6v0zM160 268q-7 0 -13 6q-7 6 -7 14q0 6 6 12q6 7 14 7q6 0 12 -6q7 -6 7 -13q0 -8 -6 -14q-5 -6 -13 -6v0zM224 268q-7 0 -13 6q-7 6 -7 14q0 6 6 12q6 7 14 7q6 0 12 -6q7 -6 7 -13q0 -8 -6 -14q-5 -6 -13 -6v0zM288 332q-7 0 -13 6q-7 6 -7 14
q0 6 6 12q6 7 14 7q6 0 12 -6q7 -6 7 -13q0 -8 -6 -14q-5 -6 -13 -6v0zM288 396q-7 0 -13 6q-7 6 -7 14q0 6 6 12q6 7 14 7q6 0 12 -6q7 -6 7 -13q0 -8 -6 -14q-5 -6 -13 -6v0zM32 460q-7 0 -13 6q-7 6 -7 14q0 6 6 12q6 7 14 7q6 0 12 -6q7 -6 7 -13q0 -8 -6 -14
q-5 -6 -13 -6v0zM288 460q-7 0 -13 6q-7 6 -7 14q0 6 6 12q6 7 14 7q6 0 12 -6q7 -6 7 -13q0 -8 -6 -14q-5 -6 -13 -6v0zM96 524q-7 0 -13 6q-7 6 -7 14q0 6 6 12q6 7 14 7q6 0 12 -6q7 -6 7 -13q0 -8 -6 -14q-5 -6 -13 -6v0zM160 524q-7 0 -13 6q-7 6 -7 14q0 6 6 12
q6 7 14 7q6 0 12 -6q7 -6 7 -13q0 -8 -6 -14q-5 -6 -13 -6v0zM224 524q-7 0 -13 6q-7 6 -7 14q0 6 6 12q6 7 14 7q6 0 12 -6q7 -6 7 -13q0 -8 -6 -14q-5 -6 -13 -6v0z" />
    <glyph glyph-name="four" unicode="4" 
d="M224 12q-7 0 -13 6q-7 6 -7 14q0 6 6 12q6 7 14 7q6 0 12 -6q7 -6 7 -13q0 -8 -6 -14q-5 -6 -13 -6v0zM224 76q-7 0 -13 6q-7 6 -7 14q0 6 6 12q6 7 14 7q6 0 12 -6q7 -6 7 -13q0 -8 -6 -14q-5 -6 -13 -6v0zM224 140q-7 0 -13 6q-7 6 -7 14q0 6 6 12q6 7 14 7q6 0 12 -6
q7 -6 7 -13q0 -8 -6 -14q-5 -6 -13 -6v0zM224 204q-7 0 -13 6q-7 6 -7 14q0 6 6 12q6 7 14 7q6 0 12 -6q7 -6 7 -13q0 -8 -6 -14q-5 -6 -13 -6v0zM32 268q-7 0 -13 6q-7 6 -7 14q0 6 6 12q6 7 14 7q6 0 12 -6q7 -6 7 -13q0 -8 -6 -14q-5 -6 -13 -6v0zM96 268q-7 0 -13 6
q-7 6 -7 14q0 6 6 12q6 7 14 7q6 0 12 -6q7 -6 7 -13q0 -8 -6 -14q-5 -6 -13 -6v0zM160 268q-7 0 -13 6q-7 6 -7 14q0 6 6 12q6 7 14 7q6 0 12 -6q7 -6 7 -13q0 -8 -6 -14q-5 -6 -13 -6v0zM224 268q-7 0 -13 6q-7 6 -7 14q0 6 6 12q6 7 14 7q6 0 12 -6q7 -6 7 -13
q0 -8 -6 -14q-5 -6 -13 -6v0zM288 268q-7 0 -13 6q-7 6 -7 14q0 6 6 12q6 7 14 7q6 0 12 -6q7 -6 7 -13q0 -8 -6 -14q-5 -6 -13 -6v0zM32 332q-7 0 -13 6q-7 6 -7 14q0 6 6 12q6 7 14 7q6 0 12 -6q7 -6 7 -13q0 -8 -6 -14q-5 -6 -13 -6v0zM224 332q-7 0 -13 6q-7 6 -7 14
q0 6 6 12q6 7 14 7q6 0 12 -6q7 -6 7 -13q0 -8 -6 -14q-5 -6 -13 -6v0zM96 396q-7 0 -13 6q-7 6 -7 14q0 6 6 12q6 7 14 7q6 0 12 -6q7 -6 7 -13q0 -8 -6 -14q-5 -6 -13 -6v0zM224 396q-7 0 -13 6q-7 6 -7 14q0 6 6 12q6 7 14 7q6 0 12 -6q7 -6 7 -13q0 -8 -6 -14
q-5 -6 -13 -6v0zM160 460q-7 0 -13 6q-7 6 -7 14q0 6 6 12q6 7 14 7q6 0 12 -6q7 -6 7 -13q0 -8 -6 -14q-5 -6 -13 -6v0zM224 460q-7 0 -13 6q-7 6 -7 14q0 6 6 12q6 7 14 7q6 0 12 -6q7 -6 7 -13q0 -8 -6 -14q-5 -6 -13 -6v0zM224 524q-7 0 -13 6q-7 6 -7 14q0 6 6 12
q6 7 14 7q6 0 12 -6q7 -6 7 -13q0 -8 -6 -14q-5 -6 -13 -6v0z" />
    <glyph glyph-name="five" unicode="5" 
d="M32 12q-7 0 -13 6q-7 6 -7 14q0 6 6 12q6 7 14 7q6 0 12 -6q7 -6 7 -13q0 -8 -6 -14q-5 -6 -13 -6v0zM96 12q-7 0 -13 6q-7 6 -7 14q0 6 6 12q6 7 14 7q6 0 12 -6q7 -6 7 -13q0 -8 -6 -14q-5 -6 -13 -6v0zM160 12q-7 0 -13 6q-7 6 -7 14q0 6 6 12q6 7 14 7q6 0 12 -6
q7 -6 7 -13q0 -8 -6 -14q-5 -6 -13 -6v0zM224 12q-7 0 -13 6q-7 6 -7 14q0 6 6 12q6 7 14 7q6 0 12 -6q7 -6 7 -13q0 -8 -6 -14q-5 -6 -13 -6v0zM288 76q-7 0 -13 6q-7 6 -7 14q0 6 6 12q6 7 14 7q6 0 12 -6q7 -6 7 -13q0 -8 -6 -14q-5 -6 -13 -6v0zM288 140q-7 0 -13 6
q-7 6 -7 14q0 6 6 12q6 7 14 7q6 0 12 -6q7 -6 7 -13q0 -8 -6 -14q-5 -6 -13 -6v0zM288 204q-7 0 -13 6q-7 6 -7 14q0 6 6 12q6 7 14 7q6 0 12 -6q7 -6 7 -13q0 -8 -6 -14q-5 -6 -13 -6v0zM32 268q-7 0 -13 6q-7 6 -7 14q0 6 6 12q6 7 14 7q6 0 12 -6q7 -6 7 -13
q0 -8 -6 -14q-5 -6 -13 -6v0zM96 268q-7 0 -13 6q-7 6 -7 14q0 6 6 12q6 7 14 7q6 0 12 -6q7 -6 7 -13q0 -8 -6 -14q-5 -6 -13 -6v0zM160 268q-7 0 -13 6q-7 6 -7 14q0 6 6 12q6 7 14 7q6 0 12 -6q7 -6 7 -13q0 -8 -6 -14q-5 -6 -13 -6v0zM224 268q-7 0 -13 6q-7 6 -7 14
q0 6 6 12q6 7 14 7q6 0 12 -6q7 -6 7 -13q0 -8 -6 -14q-5 -6 -13 -6v0zM32 332q-7 0 -13 6q-7 6 -7 14q0 6 6 12q6 7 14 7q6 0 12 -6q7 -6 7 -13q0 -8 -6 -14q-5 -6 -13 -6v0zM32 396q-7 0 -13 6q-7 6 -7 14q0 6 6 12q6 7 14 7q6 0 12 -6q7 -6 7 -13q0 -8 -6 -14
q-5 -6 -13 -6v0zM32 460q-7 0 -13 6q-7 6 -7 14q0 6 6 12q6 7 14 7q6 0 12 -6q7 -6 7 -13q0 -8 -6 -14q-5 -6 -13 -6v0zM32 524q-7 0 -13 6q-7 6 -7 14q0 6 6 12q6 7 14 7q6 0 12 -6q7 -6 7 -13q0 -8 -6 -14q-5 -6 -13 -6v0zM96 524q-7 0 -13 6q-7 6 -7 14q0 6 6 12
q6 7 14 7q6 0 12 -6q7 -6 7 -13q0 -8 -6 -14q-5 -6 -13 -6v0zM160 524q-7 0 -13 6q-7 6 -7 14q0 6 6 12q6 7 14 7q6 0 12 -6q7 -6 7 -13q0 -8 -6 -14q-5 -6 -13 -6v0zM224 524q-7 0 -13 6q-7 6 -7 14q0 6 6 12q6 7 14 7q6 0 12 -6q7 -6 7 -13q0 -8 -6 -14q-5 -6 -13 -6v0z
M288 524q-7 0 -13 6q-7 6 -7 14q0 6 6 12q6 7 14 7q6 0 12 -6q7 -6 7 -13q0 -8 -6 -14q-5 -6 -13 -6v0z" />
    <glyph glyph-name="six" unicode="6" 
d="M96 12q-7 0 -13 6q-7 6 -7 14q0 6 6 12q6 7 14 7q6 0 12 -6q7 -6 7 -13q0 -8 -6 -14q-5 -6 -13 -6v0zM160 12q-7 0 -13 6q-7 6 -7 14q0 6 6 12q6 7 14 7q6 0 12 -6q7 -6 7 -13q0 -8 -6 -14q-5 -6 -13 -6v0zM224 12q-7 0 -13 6q-7 6 -7 14q0 6 6 12q6 7 14 7q6 0 12 -6
q7 -6 7 -13q0 -8 -6 -14q-5 -6 -13 -6v0zM32 76q-7 0 -13 6q-7 6 -7 14q0 6 6 12q6 7 14 7q6 0 12 -6q7 -6 7 -13q0 -8 -6 -14q-5 -6 -13 -6v0zM288 76q-7 0 -13 6q-7 6 -7 14q0 6 6 12q6 7 14 7q6 0 12 -6q7 -6 7 -13q0 -8 -6 -14q-5 -6 -13 -6v0zM32 140q-7 0 -13 6
q-7 6 -7 14q0 6 6 12q6 7 14 7q6 0 12 -6q7 -6 7 -13q0 -8 -6 -14q-5 -6 -13 -6v0zM288 140q-7 0 -13 6q-7 6 -7 14q0 6 6 12q6 7 14 7q6 0 12 -6q7 -6 7 -13q0 -8 -6 -14q-5 -6 -13 -6v0zM32 204q-7 0 -13 6q-7 6 -7 14q0 6 6 12q6 7 14 7q6 0 12 -6q7 -6 7 -13
q0 -8 -6 -14q-5 -6 -13 -6v0zM288 204q-7 0 -13 6q-7 6 -7 14q0 6 6 12q6 7 14 7q6 0 12 -6q7 -6 7 -13q0 -8 -6 -14q-5 -6 -13 -6v0zM32 268q-7 0 -13 6q-7 6 -7 14q0 6 6 12q6 7 14 7q6 0 12 -6q7 -6 7 -13q0 -8 -6 -14q-5 -6 -13 -6v0zM96 268q-7 0 -13 6q-7 6 -7 14
q0 6 6 12q6 7 14 7q6 0 12 -6q7 -6 7 -13q0 -8 -6 -14q-5 -6 -13 -6v0zM160 268q-7 0 -13 6q-7 6 -7 14q0 6 6 12q6 7 14 7q6 0 12 -6q7 -6 7 -13q0 -8 -6 -14q-5 -6 -13 -6v0zM224 268q-7 0 -13 6q-7 6 -7 14q0 6 6 12q6 7 14 7q6 0 12 -6q7 -6 7 -13q0 -8 -6 -14
q-5 -6 -13 -6v0zM32 332q-7 0 -13 6q-7 6 -7 14q0 6 6 12q6 7 14 7q6 0 12 -6q7 -6 7 -13q0 -8 -6 -14q-5 -6 -13 -6v0zM32 396q-7 0 -13 6q-7 6 -7 14q0 6 6 12q6 7 14 7q6 0 12 -6q7 -6 7 -13q0 -8 -6 -14q-5 -6 -13 -6v0zM32 460q-7 0 -13 6q-7 6 -7 14q0 6 6 12
q6 7 14 7q6 0 12 -6q7 -6 7 -13q0 -8 -6 -14q-5 -6 -13 -6v0zM288 460q-7 0 -13 6q-7 6 -7 14q0 6 6 12q6 7 14 7q6 0 12 -6q7 -6 7 -13q0 -8 -6 -14q-5 -6 -13 -6v0zM96 524q-7 0 -13 6q-7 6 -7 14q0 6 6 12q6 7 14 7q6 0 12 -6q7 -6 7 -13q0 -8 -6 -14q-5 -6 -13 -6v0z
M160 524q-7 0 -13 6q-7 6 -7 14q0 6 6 12q6 7 14 7q6 0 12 -6q7 -6 7 -13q0 -8 -6 -14q-5 -6 -13 -6v0zM224 524q-7 0 -13 6q-7 6 -7 14q0 6 6 12q6 7 14 7q6 0 12 -6q7 -6 7 -13q0 -8 -6 -14q-5 -6 -13 -6v0z" />
    <glyph glyph-name="seven" unicode="7" 
d="M160 12q-7 0 -13 6q-7 6 -7 14q0 6 6 12q6 7 14 7q6 0 12 -6q7 -6 7 -13q0 -8 -6 -14q-5 -6 -13 -6v0zM160 76q-7 0 -13 6q-7 6 -7 14q0 6 6 12q6 7 14 7q6 0 12 -6q7 -6 7 -13q0 -8 -6 -14q-5 -6 -13 -6v0zM160 140q-7 0 -13 6q-7 6 -7 14q0 6 6 12q6 7 14 7q6 0 12 -6
q7 -6 7 -13q0 -8 -6 -14q-5 -6 -13 -6v0zM160 204q-7 0 -13 6q-7 6 -7 14q0 6 6 12q6 7 14 7q6 0 12 -6q7 -6 7 -13q0 -8 -6 -14q-5 -6 -13 -6v0zM224 268q-7 0 -13 6q-7 6 -7 14q0 6 6 12q6 7 14 7q6 0 12 -6q7 -6 7 -13q0 -8 -6 -14q-5 -6 -13 -6v0zM224 332q-7 0 -13 6
q-7 6 -7 14q0 6 6 12q6 7 14 7q6 0 12 -6q7 -6 7 -13q0 -8 -6 -14q-5 -6 -13 -6v0zM288 396q-7 0 -13 6q-7 6 -7 14q0 6 6 12q6 7 14 7q6 0 12 -6q7 -6 7 -13q0 -8 -6 -14q-5 -6 -13 -6v0zM288 460q-7 0 -13 6q-7 6 -7 14q0 6 6 12q6 7 14 7q6 0 12 -6q7 -6 7 -13
q0 -8 -6 -14q-5 -6 -13 -6v0zM32 524q-7 0 -13 6q-7 6 -7 14q0 6 6 12q6 7 14 7q6 0 12 -6q7 -6 7 -13q0 -8 -6 -14q-5 -6 -13 -6v0zM96 524q-7 0 -13 6q-7 6 -7 14q0 6 6 12q6 7 14 7q6 0 12 -6q7 -6 7 -13q0 -8 -6 -14q-5 -6 -13 -6v0zM160 524q-7 0 -13 6q-7 6 -7 14
q0 6 6 12q6 7 14 7q6 0 12 -6q7 -6 7 -13q0 -8 -6 -14q-5 -6 -13 -6v0zM224 524q-7 0 -13 6q-7 6 -7 14q0 6 6 12q6 7 14 7q6 0 12 -6q7 -6 7 -13q0 -8 -6 -14q-5 -6 -13 -6v0zM288 524q-7 0 -13 6q-7 6 -7 14q0 6 6 12q6 7 14 7q6 0 12 -6q7 -6 7 -13q0 -8 -6 -14
q-5 -6 -13 -6v0z" />
    <glyph glyph-name="eight" unicode="8" 
d="M96 12q-7 0 -13 6q-7 6 -7 14q0 6 6 12q6 7 14 7q6 0 12 -6q7 -6 7 -13q0 -8 -6 -14q-5 -6 -13 -6v0zM160 12q-7 0 -13 6q-7 6 -7 14q0 6 6 12q6 7 14 7q6 0 12 -6q7 -6 7 -13q0 -8 -6 -14q-5 -6 -13 -6v0zM224 12q-7 0 -13 6q-7 6 -7 14q0 6 6 12q6 7 14 7q6 0 12 -6
q7 -6 7 -13q0 -8 -6 -14q-5 -6 -13 -6v0zM32 76q-7 0 -13 6q-7 6 -7 14q0 6 6 12q6 7 14 7q6 0 12 -6q7 -6 7 -13q0 -8 -6 -14q-5 -6 -13 -6v0zM288 76q-7 0 -13 6q-7 6 -7 14q0 6 6 12q6 7 14 7q6 0 12 -6q7 -6 7 -13q0 -8 -6 -14q-5 -6 -13 -6v0zM32 140q-7 0 -13 6
q-7 6 -7 14q0 6 6 12q6 7 14 7q6 0 12 -6q7 -6 7 -13q0 -8 -6 -14q-5 -6 -13 -6v0zM288 140q-7 0 -13 6q-7 6 -7 14q0 6 6 12q6 7 14 7q6 0 12 -6q7 -6 7 -13q0 -8 -6 -14q-5 -6 -13 -6v0zM32 204q-7 0 -13 6q-7 6 -7 14q0 6 6 12q6 7 14 7q6 0 12 -6q7 -6 7 -13
q0 -8 -6 -14q-5 -6 -13 -6v0zM288 204q-7 0 -13 6q-7 6 -7 14q0 6 6 12q6 7 14 7q6 0 12 -6q7 -6 7 -13q0 -8 -6 -14q-5 -6 -13 -6v0zM96 268q-7 0 -13 6q-7 6 -7 14q0 6 6 12q6 7 14 7q6 0 12 -6q7 -6 7 -13q0 -8 -6 -14q-5 -6 -13 -6v0zM160 268q-7 0 -13 6q-7 6 -7 14
q0 6 6 12q6 7 14 7q6 0 12 -6q7 -6 7 -13q0 -8 -6 -14q-5 -6 -13 -6v0zM224 268q-7 0 -13 6q-7 6 -7 14q0 6 6 12q6 7 14 7q6 0 12 -6q7 -6 7 -13q0 -8 -6 -14q-5 -6 -13 -6v0zM32 332q-7 0 -13 6q-7 6 -7 14q0 6 6 12q6 7 14 7q6 0 12 -6q7 -6 7 -13q0 -8 -6 -14
q-5 -6 -13 -6v0zM288 332q-7 0 -13 6q-7 6 -7 14q0 6 6 12q6 7 14 7q6 0 12 -6q7 -6 7 -13q0 -8 -6 -14q-5 -6 -13 -6v0zM32 396q-7 0 -13 6q-7 6 -7 14q0 6 6 12q6 7 14 7q6 0 12 -6q7 -6 7 -13q0 -8 -6 -14q-5 -6 -13 -6v0zM288 396q-7 0 -13 6q-7 6 -7 14q0 6 6 12
q6 7 14 7q6 0 12 -6q7 -6 7 -13q0 -8 -6 -14q-5 -6 -13 -6v0zM32 460q-7 0 -13 6q-7 6 -7 14q0 6 6 12q6 7 14 7q6 0 12 -6q7 -6 7 -13q0 -8 -6 -14q-5 -6 -13 -6v0zM288 460q-7 0 -13 6q-7 6 -7 14q0 6 6 12q6 7 14 7q6 0 12 -6q7 -6 7 -13q0 -8 -6 -14q-5 -6 -13 -6v0z
M96 524q-7 0 -13 6q-7 6 -7 14q0 6 6 12q6 7 14 7q6 0 12 -6q7 -6 7 -13q0 -8 -6 -14q-5 -6 -13 -6v0zM160 524q-7 0 -13 6q-7 6 -7 14q0 6 6 12q6 7 14 7q6 0 12 -6q7 -6 7 -13q0 -8 -6 -14q-5 -6 -13 -6v0zM224 524q-7 0 -13 6q-7 6 -7 14q0 6 6 12q6 7 14 7q6 0 12 -6
q7 -6 7 -13q0 -8 -6 -14q-5 -6 -13 -6v0z" />
    <glyph glyph-name="nine" unicode="9" 
d="M96 12q-7 0 -13 6q-7 6 -7 14t6 13q6 6 14 6q6 0 12 -6q7 -6 7 -13t-6 -13q-6 -7 -13 -7v0zM160 12q-7 0 -13 6q-7 6 -7 14t6 13q6 6 14 6q6 0 12 -6q7 -6 7 -13t-6 -13q-6 -7 -13 -7v0zM224 12q-7 0 -13 6q-7 6 -7 14t6 13q6 6 14 6q6 0 12 -6q7 -6 7 -13t-6 -13
q-6 -7 -13 -7v0zM32 76q-7 0 -13 6q-7 6 -7 14t6 13q6 6 14 6q6 0 12 -6q7 -6 7 -13t-6 -13q-6 -7 -13 -7v0zM288 76q-7 0 -13 6q-7 6 -7 14t6 13q6 6 14 6q6 0 12 -6q7 -6 7 -13t-6 -13q-6 -7 -13 -7v0zM288 140q-7 0 -13 6q-7 6 -7 14t6 13q6 6 14 6q6 0 12 -6q7 -6 7 -13
t-6 -13q-6 -7 -13 -7v0zM288 204q-7 0 -13 6q-7 6 -7 14t6 13q6 6 14 6q6 0 12 -6q7 -6 7 -13t-6 -13q-6 -7 -13 -7v0zM96 268q-7 0 -13 6q-7 6 -7 14t6 13q6 6 14 6q6 0 12 -6q7 -6 7 -13t-6 -13q-6 -7 -13 -7v0zM160 268q-7 0 -13 6q-7 6 -7 14t6 13q6 6 14 6q6 0 12 -6
q7 -6 7 -13t-6 -13q-6 -7 -13 -7v0zM224 268q-7 0 -13 6q-7 6 -7 14t6 13q6 6 14 6q6 0 12 -6q7 -6 7 -13t-6 -13q-6 -7 -13 -7v0zM288 268q-7 0 -13 6q-7 6 -7 14t6 13q6 6 14 6q6 0 12 -6q7 -6 7 -13t-6 -13q-6 -7 -13 -7v0zM32 332q-7 0 -13 6q-7 6 -7 14t6 13q6 6 14 6
q6 0 12 -6q7 -6 7 -13t-6 -13q-6 -7 -13 -7v0zM288 332q-7 0 -13 6q-7 6 -7 14t6 13q6 6 14 6q6 0 12 -6q7 -6 7 -13t-6 -13q-6 -7 -13 -7v0zM32 396q-7 0 -13 6q-7 6 -7 14t6 13q6 6 14 6q6 0 12 -6q7 -6 7 -13t-6 -13q-6 -7 -13 -7v0zM288 396q-7 0 -13 6q-7 6 -7 14t6 13
q6 6 14 6q6 0 12 -6q7 -6 7 -13t-6 -13q-6 -7 -13 -7v0zM32 460q-7 0 -13 6q-7 6 -7 14t6 13q6 6 14 6q6 0 12 -6q7 -6 7 -13t-6 -13q-6 -7 -13 -7v0zM288 460q-7 0 -13 6q-7 6 -7 14t6 13q6 6 14 6q6 0 12 -6q7 -6 7 -13t-6 -13q-6 -7 -13 -7v0zM96 524q-7 0 -13 6
q-7 6 -7 14t6 13q6 6 14 6q6 0 12 -6q7 -6 7 -13t-6 -13q-6 -7 -13 -7v0zM160 524q-7 0 -13 6q-7 6 -7 14t6 13q6 6 14 6q6 0 12 -6q7 -6 7 -13t-6 -13q-6 -7 -13 -7v0zM224 524q-7 0 -13 6q-7 6 -7 14t6 13q6 6 14 6q6 0 12 -6q7 -6 7 -13t-6 -13q-6 -7 -13 -7v0z" />
    <glyph glyph-name="colon" unicode=":" horiz-adv-x="192" 
d="M32 12q-7 0 -13 6q-7 6 -7 14q0 6 6 12q6 7 14 7q6 0 12 -6q7 -6 7 -13q0 -8 -6 -14q-5 -6 -13 -6v0zM96 12q-7 0 -13 6q-7 6 -7 14q0 6 6 12q6 7 14 7q6 0 12 -6q7 -6 7 -13q0 -8 -6 -14q-5 -6 -13 -6v0zM32 76q-7 0 -13 6q-7 6 -7 14q0 6 6 12q6 7 14 7q6 0 12 -6
q7 -6 7 -13q0 -8 -6 -14q-5 -6 -13 -6v0zM96 76q-7 0 -13 6q-7 6 -7 14q0 6 6 12q6 7 14 7q6 0 12 -6q7 -6 7 -13q0 -8 -6 -14q-5 -6 -13 -6v0zM32 268q-7 0 -13 6q-7 6 -7 14q0 6 6 12q6 7 14 7q6 0 12 -6q7 -6 7 -13q0 -8 -6 -14q-5 -6 -13 -6v0zM96 268q-7 0 -13 6
q-7 6 -7 14q0 6 6 12q6 7 14 7q6 0 12 -6q7 -6 7 -13q0 -8 -6 -14q-5 -6 -13 -6v0zM32 332q-7 0 -13 6q-7 6 -7 14q0 6 6 12q6 7 14 7q6 0 12 -6q7 -6 7 -13q0 -8 -6 -14q-5 -6 -13 -6v0zM96 332q-7 0 -13 6q-7 6 -7 14q0 6 6 12q6 7 14 7q6 0 12 -6q7 -6 7 -13q0 -8 -6 -14
q-5 -6 -13 -6v0z" />
    <glyph glyph-name="semicolon" unicode=";" horiz-adv-x="192" 
d="M32 12q-7 0 -13 6q-7 6 -7 14q0 6 6 12q6 7 14 7q6 0 12 -6q7 -6 7 -13q0 -8 -6 -14q-5 -6 -13 -6v0zM96 76q-7 0 -13 6q-7 6 -7 14q0 6 6 12q6 7 14 7q6 0 12 -6q7 -6 7 -13q0 -8 -6 -14q-5 -6 -13 -6v0zM32 140q-7 0 -13 6q-7 6 -7 14q0 6 6 12q6 7 14 7q6 0 12 -6
q7 -6 7 -13q0 -8 -6 -14q-5 -6 -13 -6v0zM96 140q-7 0 -13 6q-7 6 -7 14q0 6 6 12q6 7 14 7q6 0 12 -6q7 -6 7 -13q0 -8 -6 -14q-5 -6 -13 -6v0zM32 332q-7 0 -13 6q-7 6 -7 14q0 6 6 12q6 7 14 7q6 0 12 -6q7 -6 7 -13q0 -8 -6 -14q-5 -6 -13 -6v0zM96 332q-7 0 -13 6
q-7 6 -7 14q0 6 6 12q6 7 14 7q6 0 12 -6q7 -6 7 -13q0 -8 -6 -14q-5 -6 -13 -6v0zM32 396q-7 0 -13 6q-7 6 -7 14q0 6 6 12q6 7 14 7q6 0 12 -6q7 -6 7 -13q0 -8 -6 -14q-5 -6 -13 -6v0zM96 396q-7 0 -13 6q-7 6 -7 14q0 6 6 12q6 7 14 7q6 0 12 -6q7 -6 7 -13q0 -8 -6 -14
q-5 -6 -13 -6v0z" />
    <glyph glyph-name="less" unicode="&#x3c;" horiz-adv-x="320" 
d="M224 76q-7 0 -13 6q-7 6 -7 14q0 6 6 12q6 7 14 7q6 0 12 -6q7 -6 7 -13q0 -8 -6 -14q-5 -6 -13 -6v0zM160 140q-7 0 -13 6q-7 6 -7 14q0 6 6 12q6 7 14 7q6 0 12 -6q7 -6 7 -13q0 -8 -6 -14q-5 -6 -13 -6v0zM96 204q-7 0 -13 6q-7 6 -7 14q0 6 6 12q6 7 14 7q6 0 12 -6
q7 -6 7 -13q0 -8 -6 -14q-5 -6 -13 -6v0zM32 268q-7 0 -13 6q-7 6 -7 14q0 6 6 12q6 7 14 7q6 0 12 -6q7 -6 7 -13q0 -8 -6 -14q-5 -6 -13 -6v0zM96 332q-7 0 -13 6q-7 6 -7 14q0 6 6 12q6 7 14 7q6 0 12 -6q7 -6 7 -13q0 -8 -6 -14q-5 -6 -13 -6v0zM160 396q-7 0 -13 6
q-7 6 -7 14q0 6 6 12q6 7 14 7q6 0 12 -6q7 -6 7 -13q0 -8 -6 -14q-5 -6 -13 -6v0zM224 460q-7 0 -13 6q-7 6 -7 14q0 6 6 12q6 7 14 7q6 0 12 -6q7 -6 7 -13q0 -8 -6 -14q-5 -6 -13 -6v0z" />
    <glyph glyph-name="equal" unicode="=" 
d="M32 204q-7 0 -13 6q-7 6 -7 14q0 6 6 12q6 7 14 7q6 0 12 -6q7 -6 7 -13q0 -8 -6 -14q-5 -6 -13 -6v0zM96 204q-7 0 -13 6q-7 6 -7 14q0 6 6 12q6 7 14 7q6 0 12 -6q7 -6 7 -13q0 -8 -6 -14q-5 -6 -13 -6v0zM160 204q-7 0 -13 6q-7 6 -7 14q0 6 6 12q6 7 14 7q6 0 12 -6
q7 -6 7 -13q0 -8 -6 -14q-5 -6 -13 -6v0zM224 204q-7 0 -13 6q-7 6 -7 14q0 6 6 12q6 7 14 7q6 0 12 -6q7 -6 7 -13q0 -8 -6 -14q-5 -6 -13 -6v0zM288 204q-7 0 -13 6q-7 6 -7 14q0 6 6 12q6 7 14 7q6 0 12 -6q7 -6 7 -13q0 -8 -6 -14q-5 -6 -13 -6v0zM32 332q-7 0 -13 6
q-7 6 -7 14q0 6 6 12q6 7 14 7q6 0 12 -6q7 -6 7 -13q0 -8 -6 -14q-5 -6 -13 -6v0zM96 332q-7 0 -13 6q-7 6 -7 14q0 6 6 12q6 7 14 7q6 0 12 -6q7 -6 7 -13q0 -8 -6 -14q-5 -6 -13 -6v0zM160 332q-7 0 -13 6q-7 6 -7 14q0 6 6 12q6 7 14 7q6 0 12 -6q7 -6 7 -13
q0 -8 -6 -14q-5 -6 -13 -6v0zM224 332q-7 0 -13 6q-7 6 -7 14q0 6 6 12q6 7 14 7q6 0 12 -6q7 -6 7 -13q0 -8 -6 -14q-5 -6 -13 -6v0zM288 332q-7 0 -13 6q-7 6 -7 14q0 6 6 12q6 7 14 7q6 0 12 -6q7 -6 7 -13q0 -8 -6 -14q-5 -6 -13 -6v0z" />
    <glyph glyph-name="greater" unicode="&#x3e;" horiz-adv-x="320" 
d="M32 76q-7 0 -13 6q-7 6 -7 14q0 6 6 12q6 7 14 7q6 0 12 -6q7 -6 7 -13q0 -8 -6 -14q-5 -6 -13 -6v0zM96 140q-7 0 -13 6q-7 6 -7 14q0 6 6 12q6 7 14 7q6 0 12 -6q7 -6 7 -13q0 -8 -6 -14q-5 -6 -13 -6v0zM160 204q-7 0 -13 6q-7 6 -7 14q0 6 6 12q6 7 14 7q6 0 12 -6
q7 -6 7 -13q0 -8 -6 -14q-5 -6 -13 -6v0zM224 268q-7 0 -13 6q-7 6 -7 14q0 6 6 12q6 7 14 7q6 0 12 -6q7 -6 7 -13q0 -8 -6 -14q-5 -6 -13 -6v0zM160 332q-7 0 -13 6q-7 6 -7 14q0 6 6 12q6 7 14 7q6 0 12 -6q7 -6 7 -13q0 -8 -6 -14q-5 -6 -13 -6v0zM96 396q-7 0 -13 6
q-7 6 -7 14q0 6 6 12q6 7 14 7q6 0 12 -6q7 -6 7 -13q0 -8 -6 -14q-5 -6 -13 -6v0zM32 460q-7 0 -13 6q-7 6 -7 14q0 6 6 12q6 7 14 7q6 0 12 -6q7 -6 7 -13q0 -8 -6 -14q-5 -6 -13 -6v0z" />
    <glyph glyph-name="question" unicode="?" 
d="M160 12q-7 0 -13 6q-7 6 -7 14q0 6 6 12q6 7 14 7q6 0 12 -6q7 -6 7 -13q0 -8 -6 -14q-5 -6 -13 -6v0zM160 204q-7 0 -13 6q-7 6 -7 14q0 6 6 12q6 7 14 7q6 0 12 -6q7 -6 7 -13q0 -8 -6 -14q-5 -6 -13 -6v0zM160 268q-7 0 -13 6q-7 6 -7 14q0 6 6 12q6 7 14 7q6 0 12 -6
q7 -6 7 -13q0 -8 -6 -14q-5 -6 -13 -6v0zM224 332q-7 0 -13 6q-7 6 -7 14q0 6 6 12q6 7 14 7q6 0 12 -6q7 -6 7 -13q0 -8 -6 -14q-5 -6 -13 -6v0zM288 396q-7 0 -13 6q-7 6 -7 14q0 6 6 12q6 7 14 7q6 0 12 -6q7 -6 7 -13q0 -8 -6 -14q-5 -6 -13 -6v0zM32 460q-7 0 -13 6
q-7 6 -7 14q0 6 6 12q6 7 14 7q6 0 12 -6q7 -6 7 -13q0 -8 -6 -14q-5 -6 -13 -6v0zM288 460q-7 0 -13 6q-7 6 -7 14q0 6 6 12q6 7 14 7q6 0 12 -6q7 -6 7 -13q0 -8 -6 -14q-5 -6 -13 -6v0zM96 524q-7 0 -13 6q-7 6 -7 14q0 6 6 12q6 7 14 7q6 0 12 -6q7 -6 7 -13
q0 -8 -6 -14q-5 -6 -13 -6v0zM160 524q-7 0 -13 6q-7 6 -7 14q0 6 6 12q6 7 14 7q6 0 12 -6q7 -6 7 -13q0 -8 -6 -14q-5 -6 -13 -6v0zM224 524q-7 0 -13 6q-7 6 -7 14q0 6 6 12q6 7 14 7q6 0 12 -6q7 -6 7 -13q0 -8 -6 -14q-5 -6 -13 -6v0z" />
    <glyph glyph-name="at" unicode="@" horiz-adv-x="447" 
d="M96 12q-7 0 -13 6q-7 6 -7 14q0 6 6 12q6 7 14 7q6 0 12 -6q7 -6 7 -13q0 -8 -6 -14q-5 -6 -13 -6v0zM32 76q-7 0 -13 6q-7 6 -7 14q0 6 6 12q6 7 14 7q6 0 12 -6q7 -6 7 -13q0 -8 -6 -14q-5 -6 -13 -6v0zM224 76q-7 0 -13 6q-7 6 -7 14q0 6 6 12q6 7 14 7q6 0 12 -6
q7 -6 7 -13q0 -8 -6 -14q-5 -6 -13 -6v0zM288 76q-7 0 -13 6q-7 6 -7 14q0 6 6 12q6 7 14 7q6 0 12 -6q7 -6 7 -13q0 -8 -6 -14q-5 -6 -13 -6v0zM32 140q-7 0 -13 6q-7 6 -7 14q0 6 6 12q6 7 14 7q6 0 12 -6q7 -6 7 -13q0 -8 -6 -14q-5 -6 -13 -6v0zM160 140q-7 0 -13 6
q-7 6 -7 14q0 6 6 12q6 7 14 7q6 0 12 -6q7 -6 7 -13q0 -8 -6 -14q-5 -6 -13 -6v0zM352 140q-7 0 -13 6q-7 6 -7 14q0 6 6 12q6 7 14 7q6 0 12 -6q7 -6 7 -13q0 -8 -6 -14q-5 -6 -13 -6v0zM32 204q-7 0 -13 6q-7 6 -7 14q0 6 6 12q6 7 14 7q6 0 12 -6q7 -6 7 -13
q0 -8 -6 -14q-5 -6 -13 -6v0zM160 204q-7 0 -13 6q-7 6 -7 14q0 6 6 12q6 7 14 7q6 0 12 -6q7 -6 7 -13q0 -8 -6 -14q-5 -6 -13 -6v0zM352 204q-7 0 -13 6q-7 6 -7 14q0 6 6 12q6 7 14 7q6 0 12 -6q7 -6 7 -13q0 -8 -6 -14q-5 -6 -13 -6v0zM32 268q-7 0 -13 6q-7 6 -7 14
q0 6 6 12q6 7 14 7q6 0 12 -6q7 -6 7 -13q0 -8 -6 -14q-5 -6 -13 -6v0zM224 268q-7 0 -13 6q-7 6 -7 14q0 6 6 12q6 7 14 7q6 0 12 -6q7 -6 7 -13q0 -8 -6 -14q-5 -6 -13 -6v0zM288 268q-7 0 -13 6q-7 6 -7 14q0 6 6 12q6 7 14 7q6 0 12 -6q7 -6 7 -13q0 -8 -6 -14
q-5 -6 -13 -6v0zM352 268q-7 0 -13 6q-7 6 -7 14q0 6 6 12q6 7 14 7q6 0 12 -6q7 -6 7 -13q0 -8 -6 -14q-5 -6 -13 -6v0zM96 332q-7 0 -13 6q-7 6 -7 14q0 6 6 12q6 7 14 7q6 0 12 -6q7 -6 7 -13q0 -8 -6 -14q-5 -6 -13 -6v0zM352 332q-7 0 -13 6q-7 6 -7 14q0 6 6 12
q6 7 14 7q6 0 12 -6q7 -6 7 -13q0 -8 -6 -14q-5 -6 -13 -6v0zM160 396q-7 0 -13 6q-7 6 -7 14q0 6 6 12q6 7 14 7q6 0 12 -6q7 -6 7 -13q0 -8 -6 -14q-5 -6 -13 -6v0zM224 396q-7 0 -13 6q-7 6 -7 14q0 6 6 12q6 7 14 7q6 0 12 -6q7 -6 7 -13q0 -8 -6 -14q-5 -6 -13 -6v0z
M288 396q-7 0 -13 6q-7 6 -7 14q0 6 6 12q6 7 14 7q6 0 12 -6q7 -6 7 -13q0 -8 -6 -14q-5 -6 -13 -6v0z" />
    <glyph glyph-name="A" unicode="A" 
d="M32 12q-7 0 -13 6q-7 6 -7 14q0 6 6 12q6 7 14 7q6 0 12 -6q7 -6 7 -13q0 -8 -6 -14q-5 -6 -13 -6v0zM288 12q-7 0 -13 6q-7 6 -7 14q0 6 6 12q6 7 14 7q6 0 12 -6q7 -6 7 -13q0 -8 -6 -14q-5 -6 -13 -6v0zM32 76q-7 0 -13 6q-7 6 -7 14q0 6 6 12q6 7 14 7q6 0 12 -6
q7 -6 7 -13q0 -8 -6 -14q-5 -6 -13 -6v0zM288 76q-7 0 -13 6q-7 6 -7 14q0 6 6 12q6 7 14 7q6 0 12 -6q7 -6 7 -13q0 -8 -6 -14q-5 -6 -13 -6v0zM32 140q-7 0 -13 6q-7 6 -7 14q0 6 6 12q6 7 14 7q6 0 12 -6q7 -6 7 -13q0 -8 -6 -14q-5 -6 -13 -6v0zM288 140q-7 0 -13 6
q-7 6 -7 14q0 6 6 12q6 7 14 7q6 0 12 -6q7 -6 7 -13q0 -8 -6 -14q-5 -6 -13 -6v0zM32 204q-7 0 -13 6q-7 6 -7 14q0 6 6 12q6 7 14 7q6 0 12 -6q7 -6 7 -13q0 -8 -6 -14q-5 -6 -13 -6v0zM288 204q-7 0 -13 6q-7 6 -7 14q0 6 6 12q6 7 14 7q6 0 12 -6q7 -6 7 -13
q0 -8 -6 -14q-5 -6 -13 -6v0zM32 268q-7 0 -13 6q-7 6 -7 14q0 6 6 12q6 7 14 7q6 0 12 -6q7 -6 7 -13q0 -8 -6 -14q-5 -6 -13 -6v0zM96 268q-7 0 -13 6q-7 6 -7 14q0 6 6 12q6 7 14 7q6 0 12 -6q7 -6 7 -13q0 -8 -6 -14q-5 -6 -13 -6v0zM160 268q-7 0 -13 6q-7 6 -7 14
q0 6 6 12q6 7 14 7q6 0 12 -6q7 -6 7 -13q0 -8 -6 -14q-5 -6 -13 -6v0zM224 268q-7 0 -13 6q-7 6 -7 14q0 6 6 12q6 7 14 7q6 0 12 -6q7 -6 7 -13q0 -8 -6 -14q-5 -6 -13 -6v0zM288 268q-7 0 -13 6q-7 6 -7 14q0 6 6 12q6 7 14 7q6 0 12 -6q7 -6 7 -13q0 -8 -6 -14
q-5 -6 -13 -6v0zM32 332q-7 0 -13 6q-7 6 -7 14q0 6 6 12q6 7 14 7q6 0 12 -6q7 -6 7 -13q0 -8 -6 -14q-5 -6 -13 -6v0zM288 332q-7 0 -13 6q-7 6 -7 14q0 6 6 12q6 7 14 7q6 0 12 -6q7 -6 7 -13q0 -8 -6 -14q-5 -6 -13 -6v0zM32 396q-7 0 -13 6q-7 6 -7 14q0 6 6 12
q6 7 14 7q6 0 12 -6q7 -6 7 -13q0 -8 -6 -14q-5 -6 -13 -6v0zM288 396q-7 0 -13 6q-7 6 -7 14q0 6 6 12q6 7 14 7q6 0 12 -6q7 -6 7 -13q0 -8 -6 -14q-5 -6 -13 -6v0zM32 460q-7 0 -13 6q-7 6 -7 14q0 6 6 12q6 7 14 7q6 0 12 -6q7 -6 7 -13q0 -8 -6 -14q-5 -6 -13 -6v0z
M288 460q-7 0 -13 6q-7 6 -7 14q0 6 6 12q6 7 14 7q6 0 12 -6q7 -6 7 -13q0 -8 -6 -14q-5 -6 -13 -6v0zM96 524q-7 0 -13 6q-7 6 -7 14q0 6 6 12q6 7 14 7q6 0 12 -6q7 -6 7 -13q0 -8 -6 -14q-5 -6 -13 -6v0zM160 524q-7 0 -13 6q-7 6 -7 14q0 6 6 12q6 7 14 7q6 0 12 -6
q7 -6 7 -13q0 -8 -6 -14q-5 -6 -13 -6v0zM224 524q-7 0 -13 6q-7 6 -7 14q0 6 6 12q6 7 14 7q6 0 12 -6q7 -6 7 -13q0 -8 -6 -14q-5 -6 -13 -6v0z" />
    <glyph glyph-name="B" unicode="B" 
d="M32 12q-7 0 -13 6q-7 6 -7 14q0 6 6 12q6 7 14 7q6 0 12 -6q7 -6 7 -13q0 -8 -6 -14q-5 -6 -13 -6v0zM96 12q-7 0 -13 6q-7 6 -7 14q0 6 6 12q6 7 14 7q6 0 12 -6q7 -6 7 -13q0 -8 -6 -14q-5 -6 -13 -6v0zM160 12q-7 0 -13 6q-7 6 -7 14q0 6 6 12q6 7 14 7q6 0 12 -6
q7 -6 7 -13q0 -8 -6 -14q-5 -6 -13 -6v0zM224 12q-7 0 -13 6q-7 6 -7 14q0 6 6 12q6 7 14 7q6 0 12 -6q7 -6 7 -13q0 -8 -6 -14q-5 -6 -13 -6v0zM32 76q-7 0 -13 6q-7 6 -7 14q0 6 6 12q6 7 14 7q6 0 12 -6q7 -6 7 -13q0 -8 -6 -14q-5 -6 -13 -6v0zM288 76q-7 0 -13 6
q-7 6 -7 14q0 6 6 12q6 7 14 7q6 0 12 -6q7 -6 7 -13q0 -8 -6 -14q-5 -6 -13 -6v0zM32 140q-7 0 -13 6q-7 6 -7 14q0 6 6 12q6 7 14 7q6 0 12 -6q7 -6 7 -13q0 -8 -6 -14q-5 -6 -13 -6v0zM288 140q-7 0 -13 6q-7 6 -7 14q0 6 6 12q6 7 14 7q6 0 12 -6q7 -6 7 -13
q0 -8 -6 -14q-5 -6 -13 -6v0zM32 204q-7 0 -13 6q-7 6 -7 14q0 6 6 12q6 7 14 7q6 0 12 -6q7 -6 7 -13q0 -8 -6 -14q-5 -6 -13 -6v0zM288 204q-7 0 -13 6q-7 6 -7 14q0 6 6 12q6 7 14 7q6 0 12 -6q7 -6 7 -13q0 -8 -6 -14q-5 -6 -13 -6v0zM32 268q-7 0 -13 6q-7 6 -7 14
q0 6 6 12q6 7 14 7q6 0 12 -6q7 -6 7 -13q0 -8 -6 -14q-5 -6 -13 -6v0zM96 268q-7 0 -13 6q-7 6 -7 14q0 6 6 12q6 7 14 7q6 0 12 -6q7 -6 7 -13q0 -8 -6 -14q-5 -6 -13 -6v0zM160 268q-7 0 -13 6q-7 6 -7 14q0 6 6 12q6 7 14 7q6 0 12 -6q7 -6 7 -13q0 -8 -6 -14
q-5 -6 -13 -6v0zM224 268q-7 0 -13 6q-7 6 -7 14q0 6 6 12q6 7 14 7q6 0 12 -6q7 -6 7 -13q0 -8 -6 -14q-5 -6 -13 -6v0zM32 332q-7 0 -13 6q-7 6 -7 14q0 6 6 12q6 7 14 7q6 0 12 -6q7 -6 7 -13q0 -8 -6 -14q-5 -6 -13 -6v0zM288 332q-7 0 -13 6q-7 6 -7 14q0 6 6 12
q6 7 14 7q6 0 12 -6q7 -6 7 -13q0 -8 -6 -14q-5 -6 -13 -6v0zM32 396q-7 0 -13 6q-7 6 -7 14q0 6 6 12q6 7 14 7q6 0 12 -6q7 -6 7 -13q0 -8 -6 -14q-5 -6 -13 -6v0zM288 396q-7 0 -13 6q-7 6 -7 14q0 6 6 12q6 7 14 7q6 0 12 -6q7 -6 7 -13q0 -8 -6 -14q-5 -6 -13 -6v0z
M32 460q-7 0 -13 6q-7 6 -7 14q0 6 6 12q6 7 14 7q6 0 12 -6q7 -6 7 -13q0 -8 -6 -14q-5 -6 -13 -6v0zM288 460q-7 0 -13 6q-7 6 -7 14q0 6 6 12q6 7 14 7q6 0 12 -6q7 -6 7 -13q0 -8 -6 -14q-5 -6 -13 -6v0zM32 524q-7 0 -13 6q-7 6 -7 14q0 6 6 12q6 7 14 7q6 0 12 -6
q7 -6 7 -13q0 -8 -6 -14q-5 -6 -13 -6v0zM96 524q-7 0 -13 6q-7 6 -7 14q0 6 6 12q6 7 14 7q6 0 12 -6q7 -6 7 -13q0 -8 -6 -14q-5 -6 -13 -6v0zM160 524q-7 0 -13 6q-7 6 -7 14q0 6 6 12q6 7 14 7q6 0 12 -6q7 -6 7 -13q0 -8 -6 -14q-5 -6 -13 -6v0zM224 524q-7 0 -13 6
q-7 6 -7 14q0 6 6 12q6 7 14 7q6 0 12 -6q7 -6 7 -13q0 -8 -6 -14q-5 -6 -13 -6v0z" />
    <glyph glyph-name="C" unicode="C" 
d="M96 12q-7 0 -13 6q-7 6 -7 14q0 6 6 12q6 7 14 7q6 0 12 -6q7 -6 7 -13q0 -8 -6 -14q-5 -6 -13 -6v0zM160 12q-7 0 -13 6q-7 6 -7 14q0 6 6 12q6 7 14 7q6 0 12 -6q7 -6 7 -13q0 -8 -6 -14q-5 -6 -13 -6v0zM224 12q-7 0 -13 6q-7 6 -7 14q0 6 6 12q6 7 14 7q6 0 12 -6
q7 -6 7 -13q0 -8 -6 -14q-5 -6 -13 -6v0zM32 76q-7 0 -13 6q-7 6 -7 14q0 6 6 12q6 7 14 7q6 0 12 -6q7 -6 7 -13q0 -8 -6 -14q-5 -6 -13 -6v0zM288 76q-7 0 -13 6q-7 6 -7 14q0 6 6 12q6 7 14 7q6 0 12 -6q7 -6 7 -13q0 -8 -6 -14q-5 -6 -13 -6v0zM32 140q-7 0 -13 6
q-7 6 -7 14q0 6 6 12q6 7 14 7q6 0 12 -6q7 -6 7 -13q0 -8 -6 -14q-5 -6 -13 -6v0zM32 204q-7 0 -13 6q-7 6 -7 14q0 6 6 12q6 7 14 7q6 0 12 -6q7 -6 7 -13q0 -8 -6 -14q-5 -6 -13 -6v0zM32 268q-7 0 -13 6q-7 6 -7 14q0 6 6 12q6 7 14 7q6 0 12 -6q7 -6 7 -13q0 -8 -6 -14
q-5 -6 -13 -6v0zM32 332q-7 0 -13 6q-7 6 -7 14q0 6 6 12q6 7 14 7q6 0 12 -6q7 -6 7 -13q0 -8 -6 -14q-5 -6 -13 -6v0zM32 396q-7 0 -13 6q-7 6 -7 14q0 6 6 12q6 7 14 7q6 0 12 -6q7 -6 7 -13q0 -8 -6 -14q-5 -6 -13 -6v0zM32 460q-7 0 -13 6q-7 6 -7 14q0 6 6 12
q6 7 14 7q6 0 12 -6q7 -6 7 -13q0 -8 -6 -14q-5 -6 -13 -6v0zM288 460q-7 0 -13 6q-7 6 -7 14q0 6 6 12q6 7 14 7q6 0 12 -6q7 -6 7 -13q0 -8 -6 -14q-5 -6 -13 -6v0zM96 524q-7 0 -13 6q-7 6 -7 14q0 6 6 12q6 7 14 7q6 0 12 -6q7 -6 7 -13q0 -8 -6 -14q-5 -6 -13 -6v0z
M160 524q-7 0 -13 6q-7 6 -7 14q0 6 6 12q6 7 14 7q6 0 12 -6q7 -6 7 -13q0 -8 -6 -14q-5 -6 -13 -6v0zM224 524q-7 0 -13 6q-7 6 -7 14q0 6 6 12q6 7 14 7q6 0 12 -6q7 -6 7 -13q0 -8 -6 -14q-5 -6 -13 -6v0z" />
    <glyph glyph-name="D" unicode="D" 
d="M32 12q-7 0 -13 6q-7 6 -7 14q0 6 6 12q6 7 14 7q6 0 12 -6q7 -6 7 -13q0 -8 -6 -14q-5 -6 -13 -6v0zM96 12q-7 0 -13 6q-7 6 -7 14q0 6 6 12q6 7 14 7q6 0 12 -6q7 -6 7 -13q0 -8 -6 -14q-5 -6 -13 -6v0zM160 12q-7 0 -13 6q-7 6 -7 14q0 6 6 12q6 7 14 7q6 0 12 -6
q7 -6 7 -13q0 -8 -6 -14q-5 -6 -13 -6v0zM32 76q-7 0 -13 6q-7 6 -7 14q0 6 6 12q6 7 14 7q6 0 12 -6q7 -6 7 -13q0 -8 -6 -14q-5 -6 -13 -6v0zM224 76q-7 0 -13 6q-7 6 -7 14q0 6 6 12q6 7 14 7q6 0 12 -6q7 -6 7 -13q0 -8 -6 -14q-5 -6 -13 -6v0zM32 140q-7 0 -13 6
q-7 6 -7 14q0 6 6 12q6 7 14 7q6 0 12 -6q7 -6 7 -13q0 -8 -6 -14q-5 -6 -13 -6v0zM288 140q-7 0 -13 6q-7 6 -7 14q0 6 6 12q6 7 14 7q6 0 12 -6q7 -6 7 -13q0 -8 -6 -14q-5 -6 -13 -6v0zM32 204q-7 0 -13 6q-7 6 -7 14q0 6 6 12q6 7 14 7q6 0 12 -6q7 -6 7 -13
q0 -8 -6 -14q-5 -6 -13 -6v0zM288 204q-7 0 -13 6q-7 6 -7 14q0 6 6 12q6 7 14 7q6 0 12 -6q7 -6 7 -13q0 -8 -6 -14q-5 -6 -13 -6v0zM32 268q-7 0 -13 6q-7 6 -7 14q0 6 6 12q6 7 14 7q6 0 12 -6q7 -6 7 -13q0 -8 -6 -14q-5 -6 -13 -6v0zM288 268q-7 0 -13 6q-7 6 -7 14
q0 6 6 12q6 7 14 7q6 0 12 -6q7 -6 7 -13q0 -8 -6 -14q-5 -6 -13 -6v0zM32 332q-7 0 -13 6q-7 6 -7 14q0 6 6 12q6 7 14 7q6 0 12 -6q7 -6 7 -13q0 -8 -6 -14q-5 -6 -13 -6v0zM288 332q-7 0 -13 6q-7 6 -7 14q0 6 6 12q6 7 14 7q6 0 12 -6q7 -6 7 -13q0 -8 -6 -14
q-5 -6 -13 -6v0zM32 396q-7 0 -13 6q-7 6 -7 14q0 6 6 12q6 7 14 7q6 0 12 -6q7 -6 7 -13q0 -8 -6 -14q-5 -6 -13 -6v0zM288 396q-7 0 -13 6q-7 6 -7 14q0 6 6 12q6 7 14 7q6 0 12 -6q7 -6 7 -13q0 -8 -6 -14q-5 -6 -13 -6v0zM32 460q-7 0 -13 6q-7 6 -7 14q0 6 6 12
q6 7 14 7q6 0 12 -6q7 -6 7 -13q0 -8 -6 -14q-5 -6 -13 -6v0zM224 460q-7 0 -13 6q-7 6 -7 14q0 6 6 12q6 7 14 7q6 0 12 -6q7 -6 7 -13q0 -8 -6 -14q-5 -6 -13 -6v0zM32 524q-7 0 -13 6q-7 6 -7 14q0 6 6 12q6 7 14 7q6 0 12 -6q7 -6 7 -13q0 -8 -6 -14q-5 -6 -13 -6v0z
M96 524q-7 0 -13 6q-7 6 -7 14q0 6 6 12q6 7 14 7q6 0 12 -6q7 -6 7 -13q0 -8 -6 -14q-5 -6 -13 -6v0zM160 524q-7 0 -13 6q-7 6 -7 14q0 6 6 12q6 7 14 7q6 0 12 -6q7 -6 7 -13q0 -8 -6 -14q-5 -6 -13 -6v0z" />
    <glyph glyph-name="E" unicode="E" 
d="M32 12q-7 0 -13 6q-7 6 -7 14q0 6 6 12q6 7 14 7q6 0 12 -6q7 -6 7 -13q0 -8 -6 -14q-5 -6 -13 -6v0zM96 12q-7 0 -13 6q-7 6 -7 14q0 6 6 12q6 7 14 7q6 0 12 -6q7 -6 7 -13q0 -8 -6 -14q-5 -6 -13 -6v0zM160 12q-7 0 -13 6q-7 6 -7 14q0 6 6 12q6 7 14 7q6 0 12 -6
q7 -6 7 -13q0 -8 -6 -14q-5 -6 -13 -6v0zM224 12q-7 0 -13 6q-7 6 -7 14q0 6 6 12q6 7 14 7q6 0 12 -6q7 -6 7 -13q0 -8 -6 -14q-5 -6 -13 -6v0zM288 12q-7 0 -13 6q-7 6 -7 14q0 6 6 12q6 7 14 7q6 0 12 -6q7 -6 7 -13q0 -8 -6 -14q-5 -6 -13 -6v0zM32 76q-7 0 -13 6
q-7 6 -7 14q0 6 6 12q6 7 14 7q6 0 12 -6q7 -6 7 -13q0 -8 -6 -14q-5 -6 -13 -6v0zM32 140q-7 0 -13 6q-7 6 -7 14q0 6 6 12q6 7 14 7q6 0 12 -6q7 -6 7 -13q0 -8 -6 -14q-5 -6 -13 -6v0zM32 204q-7 0 -13 6q-7 6 -7 14q0 6 6 12q6 7 14 7q6 0 12 -6q7 -6 7 -13q0 -8 -6 -14
q-5 -6 -13 -6v0zM32 268q-7 0 -13 6q-7 6 -7 14q0 6 6 12q6 7 14 7q6 0 12 -6q7 -6 7 -13q0 -8 -6 -14q-5 -6 -13 -6v0zM96 268q-7 0 -13 6q-7 6 -7 14q0 6 6 12q6 7 14 7q6 0 12 -6q7 -6 7 -13q0 -8 -6 -14q-5 -6 -13 -6v0zM160 268q-7 0 -13 6q-7 6 -7 14q0 6 6 12
q6 7 14 7q6 0 12 -6q7 -6 7 -13q0 -8 -6 -14q-5 -6 -13 -6v0zM224 268q-7 0 -13 6q-7 6 -7 14q0 6 6 12q6 7 14 7q6 0 12 -6q7 -6 7 -13q0 -8 -6 -14q-5 -6 -13 -6v0zM288 268q-7 0 -13 6q-7 6 -7 14q0 6 6 12q6 7 14 7q6 0 12 -6q7 -6 7 -13q0 -8 -6 -14q-5 -6 -13 -6v0z
M32 332q-7 0 -13 6q-7 6 -7 14q0 6 6 12q6 7 14 7q6 0 12 -6q7 -6 7 -13q0 -8 -6 -14q-5 -6 -13 -6v0zM32 396q-7 0 -13 6q-7 6 -7 14q0 6 6 12q6 7 14 7q6 0 12 -6q7 -6 7 -13q0 -8 -6 -14q-5 -6 -13 -6v0zM32 460q-7 0 -13 6q-7 6 -7 14q0 6 6 12q6 7 14 7q6 0 12 -6
q7 -6 7 -13q0 -8 -6 -14q-5 -6 -13 -6v0zM32 524q-7 0 -13 6q-7 6 -7 14q0 6 6 12q6 7 14 7q6 0 12 -6q7 -6 7 -13q0 -8 -6 -14q-5 -6 -13 -6v0zM96 524q-7 0 -13 6q-7 6 -7 14q0 6 6 12q6 7 14 7q6 0 12 -6q7 -6 7 -13q0 -8 -6 -14q-5 -6 -13 -6v0zM160 524q-7 0 -13 6
q-7 6 -7 14q0 6 6 12q6 7 14 7q6 0 12 -6q7 -6 7 -13q0 -8 -6 -14q-5 -6 -13 -6v0zM224 524q-7 0 -13 6q-7 6 -7 14q0 6 6 12q6 7 14 7q6 0 12 -6q7 -6 7 -13q0 -8 -6 -14q-5 -6 -13 -6v0zM288 524q-7 0 -13 6q-7 6 -7 14q0 6 6 12q6 7 14 7q6 0 12 -6q7 -6 7 -13
q0 -8 -6 -14q-5 -6 -13 -6v0z" />
    <glyph glyph-name="F" unicode="F" 
d="M32 12q-7 0 -13 6q-7 6 -7 14q0 6 6 12q6 7 14 7q6 0 12 -6q7 -6 7 -13q0 -8 -6 -14q-5 -6 -13 -6v0zM32 76q-7 0 -13 6q-7 6 -7 14q0 6 6 12q6 7 14 7q6 0 12 -6q7 -6 7 -13q0 -8 -6 -14q-5 -6 -13 -6v0zM32 140q-7 0 -13 6q-7 6 -7 14q0 6 6 12q6 7 14 7q6 0 12 -6
q7 -6 7 -13q0 -8 -6 -14q-5 -6 -13 -6v0zM32 204q-7 0 -13 6q-7 6 -7 14q0 6 6 12q6 7 14 7q6 0 12 -6q7 -6 7 -13q0 -8 -6 -14q-5 -6 -13 -6v0zM32 268q-7 0 -13 6q-7 6 -7 14q0 6 6 12q6 7 14 7q6 0 12 -6q7 -6 7 -13q0 -8 -6 -14q-5 -6 -13 -6v0zM96 268q-7 0 -13 6
q-7 6 -7 14q0 6 6 12q6 7 14 7q6 0 12 -6q7 -6 7 -13q0 -8 -6 -14q-5 -6 -13 -6v0zM160 268q-7 0 -13 6q-7 6 -7 14q0 6 6 12q6 7 14 7q6 0 12 -6q7 -6 7 -13q0 -8 -6 -14q-5 -6 -13 -6v0zM224 268q-7 0 -13 6q-7 6 -7 14q0 6 6 12q6 7 14 7q6 0 12 -6q7 -6 7 -13
q0 -8 -6 -14q-5 -6 -13 -6v0zM288 268q-7 0 -13 6q-7 6 -7 14q0 6 6 12q6 7 14 7q6 0 12 -6q7 -6 7 -13q0 -8 -6 -14q-5 -6 -13 -6v0zM32 332q-7 0 -13 6q-7 6 -7 14q0 6 6 12q6 7 14 7q6 0 12 -6q7 -6 7 -13q0 -8 -6 -14q-5 -6 -13 -6v0zM32 396q-7 0 -13 6q-7 6 -7 14
q0 6 6 12q6 7 14 7q6 0 12 -6q7 -6 7 -13q0 -8 -6 -14q-5 -6 -13 -6v0zM32 460q-7 0 -13 6q-7 6 -7 14q0 6 6 12q6 7 14 7q6 0 12 -6q7 -6 7 -13q0 -8 -6 -14q-5 -6 -13 -6v0zM32 524q-7 0 -13 6q-7 6 -7 14q0 6 6 12q6 7 14 7q6 0 12 -6q7 -6 7 -13q0 -8 -6 -14
q-5 -6 -13 -6v0zM96 524q-7 0 -13 6q-7 6 -7 14q0 6 6 12q6 7 14 7q6 0 12 -6q7 -6 7 -13q0 -8 -6 -14q-5 -6 -13 -6v0zM160 524q-7 0 -13 6q-7 6 -7 14q0 6 6 12q6 7 14 7q6 0 12 -6q7 -6 7 -13q0 -8 -6 -14q-5 -6 -13 -6v0zM224 524q-7 0 -13 6q-7 6 -7 14q0 6 6 12
q6 7 14 7q6 0 12 -6q7 -6 7 -13q0 -8 -6 -14q-5 -6 -13 -6v0zM288 524q-7 0 -13 6q-7 6 -7 14q0 6 6 12q6 7 14 7q6 0 12 -6q7 -6 7 -13q0 -8 -6 -14q-5 -6 -13 -6v0z" />
    <glyph glyph-name="G" unicode="G" 
d="M96 12q-7 0 -13 6q-7 6 -7 14q0 6 6 12q6 7 14 7q6 0 12 -6q7 -6 7 -13q0 -8 -6 -14q-5 -6 -13 -6v0zM160 12q-7 0 -13 6q-7 6 -7 14q0 6 6 12q6 7 14 7q6 0 12 -6q7 -6 7 -13q0 -8 -6 -14q-5 -6 -13 -6v0zM288 12q-7 0 -13 6q-7 6 -7 14q0 6 6 12q6 7 14 7q6 0 12 -6
q7 -6 7 -13q0 -8 -6 -14q-5 -6 -13 -6v0zM32 76q-7 0 -13 6q-7 6 -7 14q0 6 6 12q6 7 14 7q6 0 12 -6q7 -6 7 -13q0 -8 -6 -14q-5 -6 -13 -6v0zM224 76q-7 0 -13 6q-7 6 -7 14q0 6 6 12q6 7 14 7q6 0 12 -6q7 -6 7 -13q0 -8 -6 -14q-5 -6 -13 -6v0zM288 76q-7 0 -13 6
q-7 6 -7 14q0 6 6 12q6 7 14 7q6 0 12 -6q7 -6 7 -13q0 -8 -6 -14q-5 -6 -13 -6v0zM32 140q-7 0 -13 6q-7 6 -7 14q0 6 6 12q6 7 14 7q6 0 12 -6q7 -6 7 -13q0 -8 -6 -14q-5 -6 -13 -6v0zM288 140q-7 0 -13 6q-7 6 -7 14q0 6 6 12q6 7 14 7q6 0 12 -6q7 -6 7 -13
q0 -8 -6 -14q-5 -6 -13 -6v0zM32 204q-7 0 -13 6q-7 6 -7 14q0 6 6 12q6 7 14 7q6 0 12 -6q7 -6 7 -13q0 -8 -6 -14q-5 -6 -13 -6v0zM288 204q-7 0 -13 6q-7 6 -7 14q0 6 6 12q6 7 14 7q6 0 12 -6q7 -6 7 -13q0 -8 -6 -14q-5 -6 -13 -6v0zM32 268q-7 0 -13 6q-7 6 -7 14
q0 6 6 12q6 7 14 7q6 0 12 -6q7 -6 7 -13q0 -8 -6 -14q-5 -6 -13 -6v0zM160 268q-7 0 -13 6q-7 6 -7 14q0 6 6 12q6 7 14 7q6 0 12 -6q7 -6 7 -13q0 -8 -6 -14q-5 -6 -13 -6v0zM224 268q-7 0 -13 6q-7 6 -7 14q0 6 6 12q6 7 14 7q6 0 12 -6q7 -6 7 -13q0 -8 -6 -14
q-5 -6 -13 -6v0zM288 268q-7 0 -13 6q-7 6 -7 14q0 6 6 12q6 7 14 7q6 0 12 -6q7 -6 7 -13q0 -8 -6 -14q-5 -6 -13 -6v0zM32 332q-7 0 -13 6q-7 6 -7 14q0 6 6 12q6 7 14 7q6 0 12 -6q7 -6 7 -13q0 -8 -6 -14q-5 -6 -13 -6v0zM32 396q-7 0 -13 6q-7 6 -7 14q0 6 6 12
q6 7 14 7q6 0 12 -6q7 -6 7 -13q0 -8 -6 -14q-5 -6 -13 -6v0zM32 460q-7 0 -13 6q-7 6 -7 14q0 6 6 12q6 7 14 7q6 0 12 -6q7 -6 7 -13q0 -8 -6 -14q-5 -6 -13 -6v0zM288 460q-7 0 -13 6q-7 6 -7 14q0 6 6 12q6 7 14 7q6 0 12 -6q7 -6 7 -13q0 -8 -6 -14q-5 -6 -13 -6v0z
M96 524q-7 0 -13 6q-7 6 -7 14q0 6 6 12q6 7 14 7q6 0 12 -6q7 -6 7 -13q0 -8 -6 -14q-5 -6 -13 -6v0zM160 524q-7 0 -13 6q-7 6 -7 14q0 6 6 12q6 7 14 7q6 0 12 -6q7 -6 7 -13q0 -8 -6 -14q-5 -6 -13 -6v0zM224 524q-7 0 -13 6q-7 6 -7 14q0 6 6 12q6 7 14 7q6 0 12 -6
q7 -6 7 -13q0 -8 -6 -14q-5 -6 -13 -6v0z" />
    <glyph glyph-name="H" unicode="H" 
d="M32 12q-7 0 -13 6q-7 6 -7 14q0 6 6 12q6 7 14 7q6 0 12 -6q7 -6 7 -13q0 -8 -6 -14q-5 -6 -13 -6v0zM288 12q-7 0 -13 6q-7 6 -7 14q0 6 6 12q6 7 14 7q6 0 12 -6q7 -6 7 -13q0 -8 -6 -14q-5 -6 -13 -6v0zM32 76q-7 0 -13 6q-7 6 -7 14q0 6 6 12q6 7 14 7q6 0 12 -6
q7 -6 7 -13q0 -8 -6 -14q-5 -6 -13 -6v0zM288 76q-7 0 -13 6q-7 6 -7 14q0 6 6 12q6 7 14 7q6 0 12 -6q7 -6 7 -13q0 -8 -6 -14q-5 -6 -13 -6v0zM32 140q-7 0 -13 6q-7 6 -7 14q0 6 6 12q6 7 14 7q6 0 12 -6q7 -6 7 -13q0 -8 -6 -14q-5 -6 -13 -6v0zM288 140q-7 0 -13 6
q-7 6 -7 14q0 6 6 12q6 7 14 7q6 0 12 -6q7 -6 7 -13q0 -8 -6 -14q-5 -6 -13 -6v0zM32 204q-7 0 -13 6q-7 6 -7 14q0 6 6 12q6 7 14 7q6 0 12 -6q7 -6 7 -13q0 -8 -6 -14q-5 -6 -13 -6v0zM288 204q-7 0 -13 6q-7 6 -7 14q0 6 6 12q6 7 14 7q6 0 12 -6q7 -6 7 -13
q0 -8 -6 -14q-5 -6 -13 -6v0zM32 268q-7 0 -13 6q-7 6 -7 14q0 6 6 12q6 7 14 7q6 0 12 -6q7 -6 7 -13q0 -8 -6 -14q-5 -6 -13 -6v0zM96 268q-7 0 -13 6q-7 6 -7 14q0 6 6 12q6 7 14 7q6 0 12 -6q7 -6 7 -13q0 -8 -6 -14q-5 -6 -13 -6v0zM160 268q-7 0 -13 6q-7 6 -7 14
q0 6 6 12q6 7 14 7q6 0 12 -6q7 -6 7 -13q0 -8 -6 -14q-5 -6 -13 -6v0zM224 268q-7 0 -13 6q-7 6 -7 14q0 6 6 12q6 7 14 7q6 0 12 -6q7 -6 7 -13q0 -8 -6 -14q-5 -6 -13 -6v0zM288 268q-7 0 -13 6q-7 6 -7 14q0 6 6 12q6 7 14 7q6 0 12 -6q7 -6 7 -13q0 -8 -6 -14
q-5 -6 -13 -6v0zM32 332q-7 0 -13 6q-7 6 -7 14q0 6 6 12q6 7 14 7q6 0 12 -6q7 -6 7 -13q0 -8 -6 -14q-5 -6 -13 -6v0zM288 332q-7 0 -13 6q-7 6 -7 14q0 6 6 12q6 7 14 7q6 0 12 -6q7 -6 7 -13q0 -8 -6 -14q-5 -6 -13 -6v0zM32 396q-7 0 -13 6q-7 6 -7 14q0 6 6 12
q6 7 14 7q6 0 12 -6q7 -6 7 -13q0 -8 -6 -14q-5 -6 -13 -6v0zM288 396q-7 0 -13 6q-7 6 -7 14q0 6 6 12q6 7 14 7q6 0 12 -6q7 -6 7 -13q0 -8 -6 -14q-5 -6 -13 -6v0zM32 460q-7 0 -13 6q-7 6 -7 14q0 6 6 12q6 7 14 7q6 0 12 -6q7 -6 7 -13q0 -8 -6 -14q-5 -6 -13 -6v0z
M288 460q-7 0 -13 6q-7 6 -7 14q0 6 6 12q6 7 14 7q6 0 12 -6q7 -6 7 -13q0 -8 -6 -14q-5 -6 -13 -6v0zM32 524q-7 0 -13 6q-7 6 -7 14q0 6 6 12q6 7 14 7q6 0 12 -6q7 -6 7 -13q0 -8 -6 -14q-5 -6 -13 -6v0zM288 524q-7 0 -13 6q-7 6 -7 14q0 6 6 12q6 7 14 7q6 0 12 -6
q7 -6 7 -13q0 -8 -6 -14q-5 -6 -13 -6v0z" />
    <glyph glyph-name="I" unicode="I" 
d="M32 12q-7 0 -13 6q-7 6 -7 14q0 6 6 12q6 7 14 7q6 0 12 -6q7 -6 7 -13q0 -8 -6 -14q-5 -6 -13 -6v0zM96 12q-7 0 -13 6q-7 6 -7 14q0 6 6 12q6 7 14 7q6 0 12 -6q7 -6 7 -13q0 -8 -6 -14q-5 -6 -13 -6v0zM160 12q-7 0 -13 6q-7 6 -7 14q0 6 6 12q6 7 14 7q6 0 12 -6
q7 -6 7 -13q0 -8 -6 -14q-5 -6 -13 -6v0zM224 12q-7 0 -13 6q-7 6 -7 14q0 6 6 12q6 7 14 7q6 0 12 -6q7 -6 7 -13q0 -8 -6 -14q-5 -6 -13 -6v0zM288 12q-7 0 -13 6q-7 6 -7 14q0 6 6 12q6 7 14 7q6 0 12 -6q7 -6 7 -13q0 -8 -6 -14q-5 -6 -13 -6v0zM160 76q-7 0 -13 6
q-7 6 -7 14q0 6 6 12q6 7 14 7q6 0 12 -6q7 -6 7 -13q0 -8 -6 -14q-5 -6 -13 -6v0zM160 140q-7 0 -13 6q-7 6 -7 14q0 6 6 12q6 7 14 7q6 0 12 -6q7 -6 7 -13q0 -8 -6 -14q-5 -6 -13 -6v0zM160 204q-7 0 -13 6q-7 6 -7 14q0 6 6 12q6 7 14 7q6 0 12 -6q7 -6 7 -13
q0 -8 -6 -14q-5 -6 -13 -6v0zM160 268q-7 0 -13 6q-7 6 -7 14q0 6 6 12q6 7 14 7q6 0 12 -6q7 -6 7 -13q0 -8 -6 -14q-5 -6 -13 -6v0zM160 332q-7 0 -13 6q-7 6 -7 14q0 6 6 12q6 7 14 7q6 0 12 -6q7 -6 7 -13q0 -8 -6 -14q-5 -6 -13 -6v0zM160 396q-7 0 -13 6q-7 6 -7 14
q0 6 6 12q6 7 14 7q6 0 12 -6q7 -6 7 -13q0 -8 -6 -14q-5 -6 -13 -6v0zM160 460q-7 0 -13 6q-7 6 -7 14q0 6 6 12q6 7 14 7q6 0 12 -6q7 -6 7 -13q0 -8 -6 -14q-5 -6 -13 -6v0zM32 524q-7 0 -13 6q-7 6 -7 14q0 6 6 12q6 7 14 7q6 0 12 -6q7 -6 7 -13q0 -8 -6 -14
q-5 -6 -13 -6v0zM96 524q-7 0 -13 6q-7 6 -7 14q0 6 6 12q6 7 14 7q6 0 12 -6q7 -6 7 -13q0 -8 -6 -14q-5 -6 -13 -6v0zM160 524q-7 0 -13 6q-7 6 -7 14q0 6 6 12q6 7 14 7q6 0 12 -6q7 -6 7 -13q0 -8 -6 -14q-5 -6 -13 -6v0zM224 524q-7 0 -13 6q-7 6 -7 14q0 6 6 12
q6 7 14 7q6 0 12 -6q7 -6 7 -13q0 -8 -6 -14q-5 -6 -13 -6v0zM288 524q-7 0 -13 6q-7 6 -7 14q0 6 6 12q6 7 14 7q6 0 12 -6q7 -6 7 -13q0 -8 -6 -14q-5 -6 -13 -6v0z" />
    <glyph glyph-name="J" unicode="J" 
d="M96 12q-7 0 -13 6q-7 6 -7 14q0 6 6 12q6 7 14 7q6 0 12 -6q7 -6 7 -13q0 -8 -6 -14q-5 -6 -13 -6v0zM160 12q-7 0 -13 6q-7 6 -7 14q0 6 6 12q6 7 14 7q6 0 12 -6q7 -6 7 -13q0 -8 -6 -14q-5 -6 -13 -6v0zM224 12q-7 0 -13 6q-7 6 -7 14q0 6 6 12q6 7 14 7q6 0 12 -6
q7 -6 7 -13q0 -8 -6 -14q-5 -6 -13 -6v0zM32 76q-7 0 -13 6q-7 6 -7 14q0 6 6 12q6 7 14 7q6 0 12 -6q7 -6 7 -13q0 -8 -6 -14q-5 -6 -13 -6v0zM288 76q-7 0 -13 6q-7 6 -7 14q0 6 6 12q6 7 14 7q6 0 12 -6q7 -6 7 -13q0 -8 -6 -14q-5 -6 -13 -6v0zM288 140q-7 0 -13 6
q-7 6 -7 14q0 6 6 12q6 7 14 7q6 0 12 -6q7 -6 7 -13q0 -8 -6 -14q-5 -6 -13 -6v0zM288 204q-7 0 -13 6q-7 6 -7 14q0 6 6 12q6 7 14 7q6 0 12 -6q7 -6 7 -13q0 -8 -6 -14q-5 -6 -13 -6v0zM288 268q-7 0 -13 6q-7 6 -7 14q0 6 6 12q6 7 14 7q6 0 12 -6q7 -6 7 -13
q0 -8 -6 -14q-5 -6 -13 -6v0zM288 332q-7 0 -13 6q-7 6 -7 14q0 6 6 12q6 7 14 7q6 0 12 -6q7 -6 7 -13q0 -8 -6 -14q-5 -6 -13 -6v0zM288 396q-7 0 -13 6q-7 6 -7 14q0 6 6 12q6 7 14 7q6 0 12 -6q7 -6 7 -13q0 -8 -6 -14q-5 -6 -13 -6v0zM288 460q-7 0 -13 6q-7 6 -7 14
q0 6 6 12q6 7 14 7q6 0 12 -6q7 -6 7 -13q0 -8 -6 -14q-5 -6 -13 -6v0zM224 524q-7 0 -13 6q-7 6 -7 14q0 6 6 12q6 7 14 7q6 0 12 -6q7 -6 7 -13q0 -8 -6 -14q-5 -6 -13 -6v0zM288 524q-7 0 -13 6q-7 6 -7 14q0 6 6 12q6 7 14 7q6 0 12 -6q7 -6 7 -13q0 -8 -6 -14
q-5 -6 -13 -6v0z" />
    <glyph glyph-name="K" unicode="K" 
d="M32 12q-7 0 -13 6q-7 6 -7 14q0 6 6 12q6 7 14 7q6 0 12 -6q7 -6 7 -13q0 -8 -6 -14q-5 -6 -13 -6v0zM288 12q-7 0 -13 6q-7 6 -7 14q0 6 6 12q6 7 14 7q6 0 12 -6q7 -6 7 -13q0 -8 -6 -14q-5 -6 -13 -6v0zM32 76q-7 0 -13 6q-7 6 -7 14q0 6 6 12q6 7 14 7q6 0 12 -6
q7 -6 7 -13q0 -8 -6 -14q-5 -6 -13 -6v0zM288 76q-7 0 -13 6q-7 6 -7 14q0 6 6 12q6 7 14 7q6 0 12 -6q7 -6 7 -13q0 -8 -6 -14q-5 -6 -13 -6v0zM32 140q-7 0 -13 6q-7 6 -7 14q0 6 6 12q6 7 14 7q6 0 12 -6q7 -6 7 -13q0 -8 -6 -14q-5 -6 -13 -6v0zM224 140q-7 0 -13 6
q-7 6 -7 14q0 6 6 12q6 7 14 7q6 0 12 -6q7 -6 7 -13q0 -8 -6 -14q-5 -6 -13 -6v0zM32 204q-7 0 -13 6q-7 6 -7 14q0 6 6 12q6 7 14 7q6 0 12 -6q7 -6 7 -13q0 -8 -6 -14q-5 -6 -13 -6v0zM160 204q-7 0 -13 6q-7 6 -7 14q0 6 6 12q6 7 14 7q6 0 12 -6q7 -6 7 -13
q0 -8 -6 -14q-5 -6 -13 -6v0zM32 268q-7 0 -13 6q-7 6 -7 14q0 6 6 12q6 7 14 7q6 0 12 -6q7 -6 7 -13q0 -8 -6 -14q-5 -6 -13 -6v0zM96 268q-7 0 -13 6q-7 6 -7 14q0 6 6 12q6 7 14 7q6 0 12 -6q7 -6 7 -13q0 -8 -6 -14q-5 -6 -13 -6v0zM32 332q-7 0 -13 6q-7 6 -7 14
q0 6 6 12q6 7 14 7q6 0 12 -6q7 -6 7 -13q0 -8 -6 -14q-5 -6 -13 -6v0zM160 332q-7 0 -13 6q-7 6 -7 14q0 6 6 12q6 7 14 7q6 0 12 -6q7 -6 7 -13q0 -8 -6 -14q-5 -6 -13 -6v0zM32 396q-7 0 -13 6q-7 6 -7 14q0 6 6 12q6 7 14 7q6 0 12 -6q7 -6 7 -13q0 -8 -6 -14
q-5 -6 -13 -6v0zM224 396q-7 0 -13 6q-7 6 -7 14q0 6 6 12q6 7 14 7q6 0 12 -6q7 -6 7 -13q0 -8 -6 -14q-5 -6 -13 -6v0zM32 460q-7 0 -13 6q-7 6 -7 14q0 6 6 12q6 7 14 7q6 0 12 -6q7 -6 7 -13q0 -8 -6 -14q-5 -6 -13 -6v0zM288 460q-7 0 -13 6q-7 6 -7 14q0 6 6 12
q6 7 14 7q6 0 12 -6q7 -6 7 -13q0 -8 -6 -14q-5 -6 -13 -6v0zM32 524q-7 0 -13 6q-7 6 -7 14q0 6 6 12q6 7 14 7q6 0 12 -6q7 -6 7 -13q0 -8 -6 -14q-5 -6 -13 -6v0zM288 524q-7 0 -13 6q-7 6 -7 14q0 6 6 12q6 7 14 7q6 0 12 -6q7 -6 7 -13q0 -8 -6 -14q-5 -6 -13 -6v0z
" />
    <glyph glyph-name="L" unicode="L" 
d="M32 12q-7 0 -13 6q-7 6 -7 14q0 6 6 12q6 7 14 7q6 0 12 -6q7 -6 7 -13q0 -8 -6 -14q-5 -6 -13 -6v0zM96 12q-7 0 -13 6q-7 6 -7 14q0 6 6 12q6 7 14 7q6 0 12 -6q7 -6 7 -13q0 -8 -6 -14q-5 -6 -13 -6v0zM160 12q-7 0 -13 6q-7 6 -7 14q0 6 6 12q6 7 14 7q6 0 12 -6
q7 -6 7 -13q0 -8 -6 -14q-5 -6 -13 -6v0zM224 12q-7 0 -13 6q-7 6 -7 14q0 6 6 12q6 7 14 7q6 0 12 -6q7 -6 7 -13q0 -8 -6 -14q-5 -6 -13 -6v0zM288 12q-7 0 -13 6q-7 6 -7 14q0 6 6 12q6 7 14 7q6 0 12 -6q7 -6 7 -13q0 -8 -6 -14q-5 -6 -13 -6v0zM32 76q-7 0 -13 6
q-7 6 -7 14q0 6 6 12q6 7 14 7q6 0 12 -6q7 -6 7 -13q0 -8 -6 -14q-5 -6 -13 -6v0zM32 140q-7 0 -13 6q-7 6 -7 14q0 6 6 12q6 7 14 7q6 0 12 -6q7 -6 7 -13q0 -8 -6 -14q-5 -6 -13 -6v0zM32 204q-7 0 -13 6q-7 6 -7 14q0 6 6 12q6 7 14 7q6 0 12 -6q7 -6 7 -13q0 -8 -6 -14
q-5 -6 -13 -6v0zM32 268q-7 0 -13 6q-7 6 -7 14q0 6 6 12q6 7 14 7q6 0 12 -6q7 -6 7 -13q0 -8 -6 -14q-5 -6 -13 -6v0zM32 332q-7 0 -13 6q-7 6 -7 14q0 6 6 12q6 7 14 7q6 0 12 -6q7 -6 7 -13q0 -8 -6 -14q-5 -6 -13 -6v0zM32 396q-7 0 -13 6q-7 6 -7 14q0 6 6 12
q6 7 14 7q6 0 12 -6q7 -6 7 -13q0 -8 -6 -14q-5 -6 -13 -6v0zM32 460q-7 0 -13 6q-7 6 -7 14q0 6 6 12q6 7 14 7q6 0 12 -6q7 -6 7 -13q0 -8 -6 -14q-5 -6 -13 -6v0zM32 524q-7 0 -13 6q-7 6 -7 14q0 6 6 12q6 7 14 7q6 0 12 -6q7 -6 7 -13q0 -8 -6 -14q-5 -6 -13 -6v0z" />
    <glyph glyph-name="M" unicode="M" horiz-adv-x="511" 
d="M32 12q-7 0 -13 6q-7 6 -7 14q0 6 6 12q6 7 14 7q6 0 12 -6q7 -6 7 -13q0 -8 -6 -14q-5 -6 -13 -6v0zM416 12q-7 0 -13 6q-7 6 -7 14q0 6 6 12q6 7 14 7q6 0 12 -6q7 -6 7 -13q0 -8 -6 -14q-5 -6 -13 -6v0zM32 76q-7 0 -13 6q-7 6 -7 14q0 6 6 12q6 7 14 7q6 0 12 -6
q7 -6 7 -13q0 -8 -6 -14q-5 -6 -13 -6v0zM416 76q-7 0 -13 6q-7 6 -7 14q0 6 6 12q6 7 14 7q6 0 12 -6q7 -6 7 -13q0 -8 -6 -14q-5 -6 -13 -6v0zM32 140q-7 0 -13 6q-7 6 -7 14q0 6 6 12q6 7 14 7q6 0 12 -6q7 -6 7 -13q0 -8 -6 -14q-5 -6 -13 -6v0zM416 140q-7 0 -13 6
q-7 6 -7 14q0 6 6 12q6 7 14 7q6 0 12 -6q7 -6 7 -13q0 -8 -6 -14q-5 -6 -13 -6v0zM32 204q-7 0 -13 6q-7 6 -7 14q0 6 6 12q6 7 14 7q6 0 12 -6q7 -6 7 -13q0 -8 -6 -14q-5 -6 -13 -6v0zM416 204q-7 0 -13 6q-7 6 -7 14q0 6 6 12q6 7 14 7q6 0 12 -6q7 -6 7 -13
q0 -8 -6 -14q-5 -6 -13 -6v0zM32 268q-7 0 -13 6q-7 6 -7 14q0 6 6 12q6 7 14 7q6 0 12 -6q7 -6 7 -13q0 -8 -6 -14q-5 -6 -13 -6v0zM416 268q-7 0 -13 6q-7 6 -7 14q0 6 6 12q6 7 14 7q6 0 12 -6q7 -6 7 -13q0 -8 -6 -14q-5 -6 -13 -6v0zM32 332q-7 0 -13 6q-7 6 -7 14
q0 6 6 12q6 7 14 7q6 0 12 -6q7 -6 7 -13q0 -8 -6 -14q-5 -6 -13 -6v0zM224 332q-7 0 -13 6q-7 6 -7 14q0 6 6 12q6 7 14 7q6 0 12 -6q7 -6 7 -13q0 -8 -6 -14q-5 -6 -13 -6v0zM416 332q-7 0 -13 6q-7 6 -7 14q0 6 6 12q6 7 14 7q6 0 12 -6q7 -6 7 -13q0 -8 -6 -14
q-5 -6 -13 -6v0zM32 396q-7 0 -13 6q-7 6 -7 14q0 6 6 12q6 7 14 7q6 0 12 -6q7 -6 7 -13q0 -8 -6 -14q-5 -6 -13 -6v0zM160 396q-7 0 -13 6q-7 6 -7 14q0 6 6 12q6 7 14 7q6 0 12 -6q7 -6 7 -13q0 -8 -6 -14q-5 -6 -13 -6v0zM288 396q-7 0 -13 6q-7 6 -7 14q0 6 6 12
q6 7 14 7q6 0 12 -6q7 -6 7 -13q0 -8 -6 -14q-5 -6 -13 -6v0zM416 396q-7 0 -13 6q-7 6 -7 14q0 6 6 12q6 7 14 7q6 0 12 -6q7 -6 7 -13q0 -8 -6 -14q-5 -6 -13 -6v0zM32 460q-7 0 -13 6q-7 6 -7 14q0 6 6 12q6 7 14 7q6 0 12 -6q7 -6 7 -13q0 -8 -6 -14q-5 -6 -13 -6v0z
M96 460q-7 0 -13 6q-7 6 -7 14q0 6 6 12q6 7 14 7q6 0 12 -6q7 -6 7 -13q0 -8 -6 -14q-5 -6 -13 -6v0zM352 460q-7 0 -13 6q-7 6 -7 14q0 6 6 12q6 7 14 7q6 0 12 -6q7 -6 7 -13q0 -8 -6 -14q-5 -6 -13 -6v0zM416 460q-7 0 -13 6q-7 6 -7 14q0 6 6 12q6 7 14 7q6 0 12 -6
q7 -6 7 -13q0 -8 -6 -14q-5 -6 -13 -6v0zM32 524q-7 0 -13 6q-7 6 -7 14q0 6 6 12q6 7 14 7q6 0 12 -6q7 -6 7 -13q0 -8 -6 -14q-5 -6 -13 -6v0zM416 524q-7 0 -13 6q-7 6 -7 14q0 6 6 12q6 7 14 7q6 0 12 -6q7 -6 7 -13q0 -8 -6 -14q-5 -6 -13 -6v0z" />
    <glyph glyph-name="N" unicode="N" 
d="M32 12q-7 0 -13 6q-7 6 -7 14q0 6 6 12q6 7 14 7q6 0 12 -6q7 -6 7 -13q0 -8 -6 -14q-5 -6 -13 -6v0zM288 12q-7 0 -13 6q-7 6 -7 14q0 6 6 12q6 7 14 7q6 0 12 -6q7 -6 7 -13q0 -8 -6 -14q-5 -6 -13 -6v0zM32 76q-7 0 -13 6q-7 6 -7 14q0 6 6 12q6 7 14 7q6 0 12 -6
q7 -6 7 -13q0 -8 -6 -14q-5 -6 -13 -6v0zM288 76q-7 0 -13 6q-7 6 -7 14q0 6 6 12q6 7 14 7q6 0 12 -6q7 -6 7 -13q0 -8 -6 -14q-5 -6 -13 -6v0zM32 140q-7 0 -13 6q-7 6 -7 14q0 6 6 12q6 7 14 7q6 0 12 -6q7 -6 7 -13q0 -8 -6 -14q-5 -6 -13 -6v0zM288 140q-7 0 -13 6
q-7 6 -7 14q0 6 6 12q6 7 14 7q6 0 12 -6q7 -6 7 -13q0 -8 -6 -14q-5 -6 -13 -6v0zM32 204q-7 0 -13 6q-7 6 -7 14q0 6 6 12q6 7 14 7q6 0 12 -6q7 -6 7 -13q0 -8 -6 -14q-5 -6 -13 -6v0zM224 204q-7 0 -13 6q-7 6 -7 14q0 6 6 12q6 7 14 7q6 0 12 -6q7 -6 7 -13
q0 -8 -6 -14q-5 -6 -13 -6v0zM288 204q-7 0 -13 6q-7 6 -7 14q0 6 6 12q6 7 14 7q6 0 12 -6q7 -6 7 -13q0 -8 -6 -14q-5 -6 -13 -6v0zM32 268q-7 0 -13 6q-7 6 -7 14q0 6 6 12q6 7 14 7q6 0 12 -6q7 -6 7 -13q0 -8 -6 -14q-5 -6 -13 -6v0zM160 268q-7 0 -13 6q-7 6 -7 14
q0 6 6 12q6 7 14 7q6 0 12 -6q7 -6 7 -13q0 -8 -6 -14q-5 -6 -13 -6v0zM288 268q-7 0 -13 6q-7 6 -7 14q0 6 6 12q6 7 14 7q6 0 12 -6q7 -6 7 -13q0 -8 -6 -14q-5 -6 -13 -6v0zM32 332q-7 0 -13 6q-7 6 -7 14q0 6 6 12q6 7 14 7q6 0 12 -6q7 -6 7 -13q0 -8 -6 -14
q-5 -6 -13 -6v0zM96 332q-7 0 -13 6q-7 6 -7 14q0 6 6 12q6 7 14 7q6 0 12 -6q7 -6 7 -13q0 -8 -6 -14q-5 -6 -13 -6v0zM288 332q-7 0 -13 6q-7 6 -7 14q0 6 6 12q6 7 14 7q6 0 12 -6q7 -6 7 -13q0 -8 -6 -14q-5 -6 -13 -6v0zM32 396q-7 0 -13 6q-7 6 -7 14q0 6 6 12
q6 7 14 7q6 0 12 -6q7 -6 7 -13q0 -8 -6 -14q-5 -6 -13 -6v0zM288 396q-7 0 -13 6q-7 6 -7 14q0 6 6 12q6 7 14 7q6 0 12 -6q7 -6 7 -13q0 -8 -6 -14q-5 -6 -13 -6v0zM32 460q-7 0 -13 6q-7 6 -7 14q0 6 6 12q6 7 14 7q6 0 12 -6q7 -6 7 -13q0 -8 -6 -14q-5 -6 -13 -6v0z
M288 460q-7 0 -13 6q-7 6 -7 14q0 6 6 12q6 7 14 7q6 0 12 -6q7 -6 7 -13q0 -8 -6 -14q-5 -6 -13 -6v0zM32 524q-7 0 -13 6q-7 6 -7 14q0 6 6 12q6 7 14 7q6 0 12 -6q7 -6 7 -13q0 -8 -6 -14q-5 -6 -13 -6v0zM288 524q-7 0 -13 6q-7 6 -7 14q0 6 6 12q6 7 14 7q6 0 12 -6
q7 -6 7 -13q0 -8 -6 -14q-5 -6 -13 -6v0z" />
    <glyph glyph-name="O" unicode="O" 
d="M96 12q-7 0 -13 6q-7 6 -7 14q0 6 6 12q6 7 14 7q6 0 12 -6q7 -6 7 -13q0 -8 -6 -14q-5 -6 -13 -6v0zM160 12q-7 0 -13 6q-7 6 -7 14q0 6 6 12q6 7 14 7q6 0 12 -6q7 -6 7 -13q0 -8 -6 -14q-5 -6 -13 -6v0zM224 12q-7 0 -13 6q-7 6 -7 14q0 6 6 12q6 7 14 7q6 0 12 -6
q7 -6 7 -13q0 -8 -6 -14q-5 -6 -13 -6v0zM32 76q-7 0 -13 6q-7 6 -7 14q0 6 6 12q6 7 14 7q6 0 12 -6q7 -6 7 -13q0 -8 -6 -14q-5 -6 -13 -6v0zM288 76q-7 0 -13 6q-7 6 -7 14q0 6 6 12q6 7 14 7q6 0 12 -6q7 -6 7 -13q0 -8 -6 -14q-5 -6 -13 -6v0zM32 140q-7 0 -13 6
q-7 6 -7 14q0 6 6 12q6 7 14 7q6 0 12 -6q7 -6 7 -13q0 -8 -6 -14q-5 -6 -13 -6v0zM288 140q-7 0 -13 6q-7 6 -7 14q0 6 6 12q6 7 14 7q6 0 12 -6q7 -6 7 -13q0 -8 -6 -14q-5 -6 -13 -6v0zM32 204q-7 0 -13 6q-7 6 -7 14q0 6 6 12q6 7 14 7q6 0 12 -6q7 -6 7 -13
q0 -8 -6 -14q-5 -6 -13 -6v0zM288 204q-7 0 -13 6q-7 6 -7 14q0 6 6 12q6 7 14 7q6 0 12 -6q7 -6 7 -13q0 -8 -6 -14q-5 -6 -13 -6v0zM32 268q-7 0 -13 6q-7 6 -7 14q0 6 6 12q6 7 14 7q6 0 12 -6q7 -6 7 -13q0 -8 -6 -14q-5 -6 -13 -6v0zM288 268q-7 0 -13 6q-7 6 -7 14
q0 6 6 12q6 7 14 7q6 0 12 -6q7 -6 7 -13q0 -8 -6 -14q-5 -6 -13 -6v0zM32 332q-7 0 -13 6q-7 6 -7 14q0 6 6 12q6 7 14 7q6 0 12 -6q7 -6 7 -13q0 -8 -6 -14q-5 -6 -13 -6v0zM288 332q-7 0 -13 6q-7 6 -7 14q0 6 6 12q6 7 14 7q6 0 12 -6q7 -6 7 -13q0 -8 -6 -14
q-5 -6 -13 -6v0zM32 396q-7 0 -13 6q-7 6 -7 14q0 6 6 12q6 7 14 7q6 0 12 -6q7 -6 7 -13q0 -8 -6 -14q-5 -6 -13 -6v0zM288 396q-7 0 -13 6q-7 6 -7 14q0 6 6 12q6 7 14 7q6 0 12 -6q7 -6 7 -13q0 -8 -6 -14q-5 -6 -13 -6v0zM32 460q-7 0 -13 6q-7 6 -7 14q0 6 6 12
q6 7 14 7q6 0 12 -6q7 -6 7 -13q0 -8 -6 -14q-5 -6 -13 -6v0zM288 460q-7 0 -13 6q-7 6 -7 14q0 6 6 12q6 7 14 7q6 0 12 -6q7 -6 7 -13q0 -8 -6 -14q-5 -6 -13 -6v0zM96 524q-7 0 -13 6q-7 6 -7 14q0 6 6 12q6 7 14 7q6 0 12 -6q7 -6 7 -13q0 -8 -6 -14q-5 -6 -13 -6v0z
M160 524q-7 0 -13 6q-7 6 -7 14q0 6 6 12q6 7 14 7q6 0 12 -6q7 -6 7 -13q0 -8 -6 -14q-5 -6 -13 -6v0zM224 524q-7 0 -13 6q-7 6 -7 14q0 6 6 12q6 7 14 7q6 0 12 -6q7 -6 7 -13q0 -8 -6 -14q-5 -6 -13 -6v0z" />
    <glyph glyph-name="P" unicode="P" 
d="M32 12q-7 0 -13 6q-7 6 -7 14q0 6 6 12q6 7 14 7q6 0 12 -6q7 -6 7 -13q0 -8 -6 -14q-5 -6 -13 -6v0zM32 76q-7 0 -13 6q-7 6 -7 14q0 6 6 12q6 7 14 7q6 0 12 -6q7 -6 7 -13q0 -8 -6 -14q-5 -6 -13 -6v0zM32 140q-7 0 -13 6q-7 6 -7 14q0 6 6 12q6 7 14 7q6 0 12 -6
q7 -6 7 -13q0 -8 -6 -14q-5 -6 -13 -6v0zM32 204q-7 0 -13 6q-7 6 -7 14q0 6 6 12q6 7 14 7q6 0 12 -6q7 -6 7 -13q0 -8 -6 -14q-5 -6 -13 -6v0zM32 268q-7 0 -13 6q-7 6 -7 14q0 6 6 12q6 7 14 7q6 0 12 -6q7 -6 7 -13q0 -8 -6 -14q-5 -6 -13 -6v0zM96 268q-7 0 -13 6
q-7 6 -7 14q0 6 6 12q6 7 14 7q6 0 12 -6q7 -6 7 -13q0 -8 -6 -14q-5 -6 -13 -6v0zM160 268q-7 0 -13 6q-7 6 -7 14q0 6 6 12q6 7 14 7q6 0 12 -6q7 -6 7 -13q0 -8 -6 -14q-5 -6 -13 -6v0zM224 268q-7 0 -13 6q-7 6 -7 14q0 6 6 12q6 7 14 7q6 0 12 -6q7 -6 7 -13
q0 -8 -6 -14q-5 -6 -13 -6v0zM32 332q-7 0 -13 6q-7 6 -7 14q0 6 6 12q6 7 14 7q6 0 12 -6q7 -6 7 -13q0 -8 -6 -14q-5 -6 -13 -6v0zM288 332q-7 0 -13 6q-7 6 -7 14q0 6 6 12q6 7 14 7q6 0 12 -6q7 -6 7 -13q0 -8 -6 -14q-5 -6 -13 -6v0zM32 396q-7 0 -13 6q-7 6 -7 14
q0 6 6 12q6 7 14 7q6 0 12 -6q7 -6 7 -13q0 -8 -6 -14q-5 -6 -13 -6v0zM288 396q-7 0 -13 6q-7 6 -7 14q0 6 6 12q6 7 14 7q6 0 12 -6q7 -6 7 -13q0 -8 -6 -14q-5 -6 -13 -6v0zM32 460q-7 0 -13 6q-7 6 -7 14q0 6 6 12q6 7 14 7q6 0 12 -6q7 -6 7 -13q0 -8 -6 -14
q-5 -6 -13 -6v0zM288 460q-7 0 -13 6q-7 6 -7 14q0 6 6 12q6 7 14 7q6 0 12 -6q7 -6 7 -13q0 -8 -6 -14q-5 -6 -13 -6v0zM32 524q-7 0 -13 6q-7 6 -7 14q0 6 6 12q6 7 14 7q6 0 12 -6q7 -6 7 -13q0 -8 -6 -14q-5 -6 -13 -6v0zM96 524q-7 0 -13 6q-7 6 -7 14q0 6 6 12
q6 7 14 7q6 0 12 -6q7 -6 7 -13q0 -8 -6 -14q-5 -6 -13 -6v0zM160 524q-7 0 -13 6q-7 6 -7 14q0 6 6 12q6 7 14 7q6 0 12 -6q7 -6 7 -13q0 -8 -6 -14q-5 -6 -13 -6v0zM224 524q-7 0 -13 6q-7 6 -7 14q0 6 6 12q6 7 14 7q6 0 12 -6q7 -6 7 -13q0 -8 -6 -14q-5 -6 -13 -6v0z
" />
    <glyph glyph-name="Q" unicode="Q" 
d="M96 12q-7 0 -13 6q-7 6 -7 14q0 6 6 12q6 7 14 7q6 0 12 -6q7 -6 7 -13q0 -8 -6 -14q-5 -6 -13 -6v0zM160 12q-7 0 -13 6q-7 6 -7 14q0 6 6 12q6 7 14 7q6 0 12 -6q7 -6 7 -13q0 -8 -6 -14q-5 -6 -13 -6v0zM224 12q-7 0 -13 6q-7 6 -7 14q0 6 6 12q6 7 14 7q6 0 12 -6
q7 -6 7 -13q0 -8 -6 -14q-5 -6 -13 -6v0zM288 12q-7 0 -13 6q-7 6 -7 14q0 6 6 12q6 7 14 7q6 0 12 -6q7 -6 7 -13q0 -8 -6 -14q-5 -6 -13 -6v0zM32 76q-7 0 -13 6q-7 6 -7 14q0 6 6 12q6 7 14 7q6 0 12 -6q7 -6 7 -13q0 -8 -6 -14q-5 -6 -13 -6v0zM224 76q-7 0 -13 6
q-7 6 -7 14q0 6 6 12q6 7 14 7q6 0 12 -6q7 -6 7 -13q0 -8 -6 -14q-5 -6 -13 -6v0zM288 76q-7 0 -13 6q-7 6 -7 14q0 6 6 12q6 7 14 7q6 0 12 -6q7 -6 7 -13q0 -8 -6 -14q-5 -6 -13 -6v0zM32 140q-7 0 -13 6q-7 6 -7 14q0 6 6 12q6 7 14 7q6 0 12 -6q7 -6 7 -13q0 -8 -6 -14
q-5 -6 -13 -6v0zM160 140q-7 0 -13 6q-7 6 -7 14q0 6 6 12q6 7 14 7q6 0 12 -6q7 -6 7 -13q0 -8 -6 -14q-5 -6 -13 -6v0zM288 140q-7 0 -13 6q-7 6 -7 14q0 6 6 12q6 7 14 7q6 0 12 -6q7 -6 7 -13q0 -8 -6 -14q-5 -6 -13 -6v0zM32 204q-7 0 -13 6q-7 6 -7 14q0 6 6 12
q6 7 14 7q6 0 12 -6q7 -6 7 -13q0 -8 -6 -14q-5 -6 -13 -6v0zM288 204q-7 0 -13 6q-7 6 -7 14q0 6 6 12q6 7 14 7q6 0 12 -6q7 -6 7 -13q0 -8 -6 -14q-5 -6 -13 -6v0zM32 268q-7 0 -13 6q-7 6 -7 14q0 6 6 12q6 7 14 7q6 0 12 -6q7 -6 7 -13q0 -8 -6 -14q-5 -6 -13 -6v0z
M288 268q-7 0 -13 6q-7 6 -7 14q0 6 6 12q6 7 14 7q6 0 12 -6q7 -6 7 -13q0 -8 -6 -14q-5 -6 -13 -6v0zM32 332q-7 0 -13 6q-7 6 -7 14q0 6 6 12q6 7 14 7q6 0 12 -6q7 -6 7 -13q0 -8 -6 -14q-5 -6 -13 -6v0zM288 332q-7 0 -13 6q-7 6 -7 14q0 6 6 12q6 7 14 7q6 0 12 -6
q7 -6 7 -13q0 -8 -6 -14q-5 -6 -13 -6v0zM32 396q-7 0 -13 6q-7 6 -7 14q0 6 6 12q6 7 14 7q6 0 12 -6q7 -6 7 -13q0 -8 -6 -14q-5 -6 -13 -6v0zM288 396q-7 0 -13 6q-7 6 -7 14q0 6 6 12q6 7 14 7q6 0 12 -6q7 -6 7 -13q0 -8 -6 -14q-5 -6 -13 -6v0zM32 460q-7 0 -13 6
q-7 6 -7 14q0 6 6 12q6 7 14 7q6 0 12 -6q7 -6 7 -13q0 -8 -6 -14q-5 -6 -13 -6v0zM288 460q-7 0 -13 6q-7 6 -7 14q0 6 6 12q6 7 14 7q6 0 12 -6q7 -6 7 -13q0 -8 -6 -14q-5 -6 -13 -6v0zM96 524q-7 0 -13 6q-7 6 -7 14q0 6 6 12q6 7 14 7q6 0 12 -6q7 -6 7 -13
q0 -8 -6 -14q-5 -6 -13 -6v0zM160 524q-7 0 -13 6q-7 6 -7 14q0 6 6 12q6 7 14 7q6 0 12 -6q7 -6 7 -13q0 -8 -6 -14q-5 -6 -13 -6v0zM224 524q-7 0 -13 6q-7 6 -7 14q0 6 6 12q6 7 14 7q6 0 12 -6q7 -6 7 -13q0 -8 -6 -14q-5 -6 -13 -6v0z" />
    <glyph glyph-name="R" unicode="R" 
d="M32 12q-7 0 -13 6q-7 6 -7 14q0 6 6 12q6 7 14 7q6 0 12 -6q7 -6 7 -13q0 -8 -6 -14q-5 -6 -13 -6v0zM288 12q-7 0 -13 6q-7 6 -7 14q0 6 6 12q6 7 14 7q6 0 12 -6q7 -6 7 -13q0 -8 -6 -14q-5 -6 -13 -6v0zM32 76q-7 0 -13 6q-7 6 -7 14q0 6 6 12q6 7 14 7q6 0 12 -6
q7 -6 7 -13q0 -8 -6 -14q-5 -6 -13 -6v0zM288 76q-7 0 -13 6q-7 6 -7 14q0 6 6 12q6 7 14 7q6 0 12 -6q7 -6 7 -13q0 -8 -6 -14q-5 -6 -13 -6v0zM32 140q-7 0 -13 6q-7 6 -7 14q0 6 6 12q6 7 14 7q6 0 12 -6q7 -6 7 -13q0 -8 -6 -14q-5 -6 -13 -6v0zM288 140q-7 0 -13 6
q-7 6 -7 14q0 6 6 12q6 7 14 7q6 0 12 -6q7 -6 7 -13q0 -8 -6 -14q-5 -6 -13 -6v0zM32 204q-7 0 -13 6q-7 6 -7 14q0 6 6 12q6 7 14 7q6 0 12 -6q7 -6 7 -13q0 -8 -6 -14q-5 -6 -13 -6v0zM288 204q-7 0 -13 6q-7 6 -7 14q0 6 6 12q6 7 14 7q6 0 12 -6q7 -6 7 -13
q0 -8 -6 -14q-5 -6 -13 -6v0zM32 268q-7 0 -13 6q-7 6 -7 14q0 6 6 12q6 7 14 7q6 0 12 -6q7 -6 7 -13q0 -8 -6 -14q-5 -6 -13 -6v0zM96 268q-7 0 -13 6q-7 6 -7 14q0 6 6 12q6 7 14 7q6 0 12 -6q7 -6 7 -13q0 -8 -6 -14q-5 -6 -13 -6v0zM160 268q-7 0 -13 6q-7 6 -7 14
q0 6 6 12q6 7 14 7q6 0 12 -6q7 -6 7 -13q0 -8 -6 -14q-5 -6 -13 -6v0zM224 268q-7 0 -13 6q-7 6 -7 14q0 6 6 12q6 7 14 7q6 0 12 -6q7 -6 7 -13q0 -8 -6 -14q-5 -6 -13 -6v0zM32 332q-7 0 -13 6q-7 6 -7 14q0 6 6 12q6 7 14 7q6 0 12 -6q7 -6 7 -13q0 -8 -6 -14
q-5 -6 -13 -6v0zM288 332q-7 0 -13 6q-7 6 -7 14q0 6 6 12q6 7 14 7q6 0 12 -6q7 -6 7 -13q0 -8 -6 -14q-5 -6 -13 -6v0zM32 396q-7 0 -13 6q-7 6 -7 14q0 6 6 12q6 7 14 7q6 0 12 -6q7 -6 7 -13q0 -8 -6 -14q-5 -6 -13 -6v0zM288 396q-7 0 -13 6q-7 6 -7 14q0 6 6 12
q6 7 14 7q6 0 12 -6q7 -6 7 -13q0 -8 -6 -14q-5 -6 -13 -6v0zM32 460q-7 0 -13 6q-7 6 -7 14q0 6 6 12q6 7 14 7q6 0 12 -6q7 -6 7 -13q0 -8 -6 -14q-5 -6 -13 -6v0zM288 460q-7 0 -13 6q-7 6 -7 14q0 6 6 12q6 7 14 7q6 0 12 -6q7 -6 7 -13q0 -8 -6 -14q-5 -6 -13 -6v0z
M32 524q-7 0 -13 6q-7 6 -7 14q0 6 6 12q6 7 14 7q6 0 12 -6q7 -6 7 -13q0 -8 -6 -14q-5 -6 -13 -6v0zM96 524q-7 0 -13 6q-7 6 -7 14q0 6 6 12q6 7 14 7q6 0 12 -6q7 -6 7 -13q0 -8 -6 -14q-5 -6 -13 -6v0zM160 524q-7 0 -13 6q-7 6 -7 14q0 6 6 12q6 7 14 7q6 0 12 -6
q7 -6 7 -13q0 -8 -6 -14q-5 -6 -13 -6v0zM224 524q-7 0 -13 6q-7 6 -7 14q0 6 6 12q6 7 14 7q6 0 12 -6q7 -6 7 -13q0 -8 -6 -14q-5 -6 -13 -6v0z" />
    <glyph glyph-name="S" unicode="S" 
d="M96 12q-7 0 -13 6q-7 6 -7 14q0 6 6 12q6 7 14 7q6 0 12 -6q7 -6 7 -13q0 -8 -6 -14q-5 -6 -13 -6v0zM160 12q-7 0 -13 6q-7 6 -7 14q0 6 6 12q6 7 14 7q6 0 12 -6q7 -6 7 -13q0 -8 -6 -14q-5 -6 -13 -6v0zM224 12q-7 0 -13 6q-7 6 -7 14q0 6 6 12q6 7 14 7q6 0 12 -6
q7 -6 7 -13q0 -8 -6 -14q-5 -6 -13 -6v0zM32 76q-7 0 -13 6q-7 6 -7 14q0 6 6 12q6 7 14 7q6 0 12 -6q7 -6 7 -13q0 -8 -6 -14q-5 -6 -13 -6v0zM288 76q-7 0 -13 6q-7 6 -7 14q0 6 6 12q6 7 14 7q6 0 12 -6q7 -6 7 -13q0 -8 -6 -14q-5 -6 -13 -6v0zM288 140q-7 0 -13 6
q-7 6 -7 14q0 6 6 12q6 7 14 7q6 0 12 -6q7 -6 7 -13q0 -8 -6 -14q-5 -6 -13 -6v0zM288 204q-7 0 -13 6q-7 6 -7 14q0 6 6 12q6 7 14 7q6 0 12 -6q7 -6 7 -13q0 -8 -6 -14q-5 -6 -13 -6v0zM96 268q-7 0 -13 6q-7 6 -7 14q0 6 6 12q6 7 14 7q6 0 12 -6q7 -6 7 -13
q0 -8 -6 -14q-5 -6 -13 -6v0zM160 268q-7 0 -13 6q-7 6 -7 14q0 6 6 12q6 7 14 7q6 0 12 -6q7 -6 7 -13q0 -8 -6 -14q-5 -6 -13 -6v0zM224 268q-7 0 -13 6q-7 6 -7 14q0 6 6 12q6 7 14 7q6 0 12 -6q7 -6 7 -13q0 -8 -6 -14q-5 -6 -13 -6v0zM32 332q-7 0 -13 6q-7 6 -7 14
q0 6 6 12q6 7 14 7q6 0 12 -6q7 -6 7 -13q0 -8 -6 -14q-5 -6 -13 -6v0zM32 396q-7 0 -13 6q-7 6 -7 14q0 6 6 12q6 7 14 7q6 0 12 -6q7 -6 7 -13q0 -8 -6 -14q-5 -6 -13 -6v0zM32 460q-7 0 -13 6q-7 6 -7 14q0 6 6 12q6 7 14 7q6 0 12 -6q7 -6 7 -13q0 -8 -6 -14
q-5 -6 -13 -6v0zM288 460q-7 0 -13 6q-7 6 -7 14q0 6 6 12q6 7 14 7q6 0 12 -6q7 -6 7 -13q0 -8 -6 -14q-5 -6 -13 -6v0zM96 524q-7 0 -13 6q-7 6 -7 14q0 6 6 12q6 7 14 7q6 0 12 -6q7 -6 7 -13q0 -8 -6 -14q-5 -6 -13 -6v0zM160 524q-7 0 -13 6q-7 6 -7 14q0 6 6 12
q6 7 14 7q6 0 12 -6q7 -6 7 -13q0 -8 -6 -14q-5 -6 -13 -6v0zM224 524q-7 0 -13 6q-7 6 -7 14q0 6 6 12q6 7 14 7q6 0 12 -6q7 -6 7 -13q0 -8 -6 -14q-5 -6 -13 -6v0z" />
    <glyph glyph-name="T" unicode="T" 
d="M160 12q-7 0 -13 6q-7 6 -7 14q0 6 6 12q6 7 14 7q6 0 12 -6q7 -6 7 -13q0 -8 -6 -14q-5 -6 -13 -6v0zM160 76q-7 0 -13 6q-7 6 -7 14q0 6 6 12q6 7 14 7q6 0 12 -6q7 -6 7 -13q0 -8 -6 -14q-5 -6 -13 -6v0zM160 140q-7 0 -13 6q-7 6 -7 14q0 6 6 12q6 7 14 7q6 0 12 -6
q7 -6 7 -13q0 -8 -6 -14q-5 -6 -13 -6v0zM160 204q-7 0 -13 6q-7 6 -7 14q0 6 6 12q6 7 14 7q6 0 12 -6q7 -6 7 -13q0 -8 -6 -14q-5 -6 -13 -6v0zM160 268q-7 0 -13 6q-7 6 -7 14q0 6 6 12q6 7 14 7q6 0 12 -6q7 -6 7 -13q0 -8 -6 -14q-5 -6 -13 -6v0zM160 332q-7 0 -13 6
q-7 6 -7 14q0 6 6 12q6 7 14 7q6 0 12 -6q7 -6 7 -13q0 -8 -6 -14q-5 -6 -13 -6v0zM160 396q-7 0 -13 6q-7 6 -7 14q0 6 6 12q6 7 14 7q6 0 12 -6q7 -6 7 -13q0 -8 -6 -14q-5 -6 -13 -6v0zM160 460q-7 0 -13 6q-7 6 -7 14q0 6 6 12q6 7 14 7q6 0 12 -6q7 -6 7 -13
q0 -8 -6 -14q-5 -6 -13 -6v0zM32 524q-7 0 -13 6q-7 6 -7 14q0 6 6 12q6 7 14 7q6 0 12 -6q7 -6 7 -13q0 -8 -6 -14q-5 -6 -13 -6v0zM96 524q-7 0 -13 6q-7 6 -7 14q0 6 6 12q6 7 14 7q6 0 12 -6q7 -6 7 -13q0 -8 -6 -14q-5 -6 -13 -6v0zM160 524q-7 0 -13 6q-7 6 -7 14
q0 6 6 12q6 7 14 7q6 0 12 -6q7 -6 7 -13q0 -8 -6 -14q-5 -6 -13 -6v0zM224 524q-7 0 -13 6q-7 6 -7 14q0 6 6 12q6 7 14 7q6 0 12 -6q7 -6 7 -13q0 -8 -6 -14q-5 -6 -13 -6v0zM288 524q-7 0 -13 6q-7 6 -7 14q0 6 6 12q6 7 14 7q6 0 12 -6q7 -6 7 -13q0 -8 -6 -14
q-5 -6 -13 -6v0z" />
    <glyph glyph-name="U" unicode="U" 
d="M96 12q-7 0 -13 6q-7 6 -7 14q0 6 6 12q6 7 14 7q6 0 12 -6q7 -6 7 -13q0 -8 -6 -14q-5 -6 -13 -6v0zM160 12q-7 0 -13 6q-7 6 -7 14q0 6 6 12q6 7 14 7q6 0 12 -6q7 -6 7 -13q0 -8 -6 -14q-5 -6 -13 -6v0zM224 12q-7 0 -13 6q-7 6 -7 14q0 6 6 12q6 7 14 7q6 0 12 -6
q7 -6 7 -13q0 -8 -6 -14q-5 -6 -13 -6v0zM32 76q-7 0 -13 6q-7 6 -7 14q0 6 6 12q6 7 14 7q6 0 12 -6q7 -6 7 -13q0 -8 -6 -14q-5 -6 -13 -6v0zM288 76q-7 0 -13 6q-7 6 -7 14q0 6 6 12q6 7 14 7q6 0 12 -6q7 -6 7 -13q0 -8 -6 -14q-5 -6 -13 -6v0zM32 140q-7 0 -13 6
q-7 6 -7 14q0 6 6 12q6 7 14 7q6 0 12 -6q7 -6 7 -13q0 -8 -6 -14q-5 -6 -13 -6v0zM288 140q-7 0 -13 6q-7 6 -7 14q0 6 6 12q6 7 14 7q6 0 12 -6q7 -6 7 -13q0 -8 -6 -14q-5 -6 -13 -6v0zM32 204q-7 0 -13 6q-7 6 -7 14q0 6 6 12q6 7 14 7q6 0 12 -6q7 -6 7 -13
q0 -8 -6 -14q-5 -6 -13 -6v0zM288 204q-7 0 -13 6q-7 6 -7 14q0 6 6 12q6 7 14 7q6 0 12 -6q7 -6 7 -13q0 -8 -6 -14q-5 -6 -13 -6v0zM32 268q-7 0 -13 6q-7 6 -7 14q0 6 6 12q6 7 14 7q6 0 12 -6q7 -6 7 -13q0 -8 -6 -14q-5 -6 -13 -6v0zM288 268q-7 0 -13 6q-7 6 -7 14
q0 6 6 12q6 7 14 7q6 0 12 -6q7 -6 7 -13q0 -8 -6 -14q-5 -6 -13 -6v0zM32 332q-7 0 -13 6q-7 6 -7 14q0 6 6 12q6 7 14 7q6 0 12 -6q7 -6 7 -13q0 -8 -6 -14q-5 -6 -13 -6v0zM288 332q-7 0 -13 6q-7 6 -7 14q0 6 6 12q6 7 14 7q6 0 12 -6q7 -6 7 -13q0 -8 -6 -14
q-5 -6 -13 -6v0zM32 396q-7 0 -13 6q-7 6 -7 14q0 6 6 12q6 7 14 7q6 0 12 -6q7 -6 7 -13q0 -8 -6 -14q-5 -6 -13 -6v0zM288 396q-7 0 -13 6q-7 6 -7 14q0 6 6 12q6 7 14 7q6 0 12 -6q7 -6 7 -13q0 -8 -6 -14q-5 -6 -13 -6v0zM32 460q-7 0 -13 6q-7 6 -7 14q0 6 6 12
q6 7 14 7q6 0 12 -6q7 -6 7 -13q0 -8 -6 -14q-5 -6 -13 -6v0zM288 460q-7 0 -13 6q-7 6 -7 14q0 6 6 12q6 7 14 7q6 0 12 -6q7 -6 7 -13q0 -8 -6 -14q-5 -6 -13 -6v0zM32 524q-7 0 -13 6q-7 6 -7 14q0 6 6 12q6 7 14 7q6 0 12 -6q7 -6 7 -13q0 -8 -6 -14q-5 -6 -13 -6v0z
M288 524q-7 0 -13 6q-7 6 -7 14q0 6 6 12q6 7 14 7q6 0 12 -6q7 -6 7 -13q0 -8 -6 -14q-5 -6 -13 -6v0z" />
    <glyph glyph-name="V" unicode="V" 
d="M160 12q-7 0 -13 6q-7 6 -7 14q0 6 6 12q6 7 14 7q6 0 12 -6q7 -6 7 -13q0 -8 -6 -14q-5 -6 -13 -6v0zM160 76q-7 0 -13 6q-7 6 -7 14q0 6 6 12q6 7 14 7q6 0 12 -6q7 -6 7 -13q0 -8 -6 -14q-5 -6 -13 -6v0zM96 140q-7 0 -13 6q-7 6 -7 14q0 6 6 12q6 7 14 7q6 0 12 -6
q7 -6 7 -13q0 -8 -6 -14q-5 -6 -13 -6v0zM224 140q-7 0 -13 6q-7 6 -7 14q0 6 6 12q6 7 14 7q6 0 12 -6q7 -6 7 -13q0 -8 -6 -14q-5 -6 -13 -6v0zM96 204q-7 0 -13 6q-7 6 -7 14q0 6 6 12q6 7 14 7q6 0 12 -6q7 -6 7 -13q0 -8 -6 -14q-5 -6 -13 -6v0zM224 204q-7 0 -13 6
q-7 6 -7 14q0 6 6 12q6 7 14 7q6 0 12 -6q7 -6 7 -13q0 -8 -6 -14q-5 -6 -13 -6v0zM32 268q-7 0 -13 6q-7 6 -7 14q0 6 6 12q6 7 14 7q6 0 12 -6q7 -6 7 -13q0 -8 -6 -14q-5 -6 -13 -6v0zM288 268q-7 0 -13 6q-7 6 -7 14q0 6 6 12q6 7 14 7q6 0 12 -6q7 -6 7 -13
q0 -8 -6 -14q-5 -6 -13 -6v0zM32 332q-7 0 -13 6q-7 6 -7 14q0 6 6 12q6 7 14 7q6 0 12 -6q7 -6 7 -13q0 -8 -6 -14q-5 -6 -13 -6v0zM288 332q-7 0 -13 6q-7 6 -7 14q0 6 6 12q6 7 14 7q6 0 12 -6q7 -6 7 -13q0 -8 -6 -14q-5 -6 -13 -6v0zM32 396q-7 0 -13 6q-7 6 -7 14
q0 6 6 12q6 7 14 7q6 0 12 -6q7 -6 7 -13q0 -8 -6 -14q-5 -6 -13 -6v0zM288 396q-7 0 -13 6q-7 6 -7 14q0 6 6 12q6 7 14 7q6 0 12 -6q7 -6 7 -13q0 -8 -6 -14q-5 -6 -13 -6v0zM32 460q-7 0 -13 6q-7 6 -7 14q0 6 6 12q6 7 14 7q6 0 12 -6q7 -6 7 -13q0 -8 -6 -14
q-5 -6 -13 -6v0zM288 460q-7 0 -13 6q-7 6 -7 14q0 6 6 12q6 7 14 7q6 0 12 -6q7 -6 7 -13q0 -8 -6 -14q-5 -6 -13 -6v0zM32 524q-7 0 -13 6q-7 6 -7 14q0 6 6 12q6 7 14 7q6 0 12 -6q7 -6 7 -13q0 -8 -6 -14q-5 -6 -13 -6v0zM288 524q-7 0 -13 6q-7 6 -7 14q0 6 6 12
q6 7 14 7q6 0 12 -6q7 -6 7 -13q0 -8 -6 -14q-5 -6 -13 -6v0z" />
    <glyph glyph-name="W" unicode="W" horiz-adv-x="511" 
d="M32 12q-7 0 -13 6q-7 6 -7 14q0 6 6 12q6 7 14 7q6 0 12 -6q7 -6 7 -13q0 -8 -6 -14q-5 -6 -13 -6v0zM416 12q-7 0 -13 6q-7 6 -7 14q0 6 6 12q6 7 14 7q6 0 12 -6q7 -6 7 -13q0 -8 -6 -14q-5 -6 -13 -6v0zM32 76q-7 0 -13 6q-7 6 -7 14q0 6 6 12q6 7 14 7q6 0 12 -6
q7 -6 7 -13q0 -8 -6 -14q-5 -6 -13 -6v0zM96 76q-7 0 -13 6q-7 6 -7 14q0 6 6 12q6 7 14 7q6 0 12 -6q7 -6 7 -13q0 -8 -6 -14q-5 -6 -13 -6v0zM352 76q-7 0 -13 6q-7 6 -7 14q0 6 6 12q6 7 14 7q6 0 12 -6q7 -6 7 -13q0 -8 -6 -14q-5 -6 -13 -6v0zM416 76q-7 0 -13 6
q-7 6 -7 14q0 6 6 12q6 7 14 7q6 0 12 -6q7 -6 7 -13q0 -8 -6 -14q-5 -6 -13 -6v0zM32 140q-7 0 -13 6q-7 6 -7 14q0 6 6 12q6 7 14 7q6 0 12 -6q7 -6 7 -13q0 -8 -6 -14q-5 -6 -13 -6v0zM160 140q-7 0 -13 6q-7 6 -7 14q0 6 6 12q6 7 14 7q6 0 12 -6q7 -6 7 -13
q0 -8 -6 -14q-5 -6 -13 -6v0zM288 140q-7 0 -13 6q-7 6 -7 14q0 6 6 12q6 7 14 7q6 0 12 -6q7 -6 7 -13q0 -8 -6 -14q-5 -6 -13 -6v0zM416 140q-7 0 -13 6q-7 6 -7 14q0 6 6 12q6 7 14 7q6 0 12 -6q7 -6 7 -13q0 -8 -6 -14q-5 -6 -13 -6v0zM32 204q-7 0 -13 6q-7 6 -7 14
q0 6 6 12q6 7 14 7q6 0 12 -6q7 -6 7 -13q0 -8 -6 -14q-5 -6 -13 -6v0zM224 204q-7 0 -13 6q-7 6 -7 14q0 6 6 12q6 7 14 7q6 0 12 -6q7 -6 7 -13q0 -8 -6 -14q-5 -6 -13 -6v0zM416 204q-7 0 -13 6q-7 6 -7 14q0 6 6 12q6 7 14 7q6 0 12 -6q7 -6 7 -13q0 -8 -6 -14
q-5 -6 -13 -6v0zM32 268q-7 0 -13 6q-7 6 -7 14q0 6 6 12q6 7 14 7q6 0 12 -6q7 -6 7 -13q0 -8 -6 -14q-5 -6 -13 -6v0zM416 268q-7 0 -13 6q-7 6 -7 14q0 6 6 12q6 7 14 7q6 0 12 -6q7 -6 7 -13q0 -8 -6 -14q-5 -6 -13 -6v0zM32 332q-7 0 -13 6q-7 6 -7 14q0 6 6 12
q6 7 14 7q6 0 12 -6q7 -6 7 -13q0 -8 -6 -14q-5 -6 -13 -6v0zM416 332q-7 0 -13 6q-7 6 -7 14q0 6 6 12q6 7 14 7q6 0 12 -6q7 -6 7 -13q0 -8 -6 -14q-5 -6 -13 -6v0zM32 396q-7 0 -13 6q-7 6 -7 14q0 6 6 12q6 7 14 7q6 0 12 -6q7 -6 7 -13q0 -8 -6 -14q-5 -6 -13 -6v0z
M416 396q-7 0 -13 6q-7 6 -7 14q0 6 6 12q6 7 14 7q6 0 12 -6q7 -6 7 -13q0 -8 -6 -14q-5 -6 -13 -6v0zM32 460q-7 0 -13 6q-7 6 -7 14q0 6 6 12q6 7 14 7q6 0 12 -6q7 -6 7 -13q0 -8 -6 -14q-5 -6 -13 -6v0zM416 460q-7 0 -13 6q-7 6 -7 14q0 6 6 12q6 7 14 7q6 0 12 -6
q7 -6 7 -13q0 -8 -6 -14q-5 -6 -13 -6v0zM32 524q-7 0 -13 6q-7 6 -7 14q0 6 6 12q6 7 14 7q6 0 12 -6q7 -6 7 -13q0 -8 -6 -14q-5 -6 -13 -6v0zM416 524q-7 0 -13 6q-7 6 -7 14q0 6 6 12q6 7 14 7q6 0 12 -6q7 -6 7 -13q0 -8 -6 -14q-5 -6 -13 -6v0z" />
    <glyph glyph-name="X" unicode="X" 
d="M32 12q-7 0 -13 6q-7 6 -7 14q0 6 6 12q6 7 14 7q6 0 12 -6q7 -6 7 -13q0 -8 -6 -14q-5 -6 -13 -6v0zM288 12q-7 0 -13 6q-7 6 -7 14q0 6 6 12q6 7 14 7q6 0 12 -6q7 -6 7 -13q0 -8 -6 -14q-5 -6 -13 -6v0zM32 76q-7 0 -13 6q-7 6 -7 14q0 6 6 12q6 7 14 7q6 0 12 -6
q7 -6 7 -13q0 -8 -6 -14q-5 -6 -13 -6v0zM288 76q-7 0 -13 6q-7 6 -7 14q0 6 6 12q6 7 14 7q6 0 12 -6q7 -6 7 -13q0 -8 -6 -14q-5 -6 -13 -6v0zM96 140q-7 0 -13 6q-7 6 -7 14q0 6 6 12q6 7 14 7q6 0 12 -6q7 -6 7 -13q0 -8 -6 -14q-5 -6 -13 -6v0zM224 140q-7 0 -13 6
q-7 6 -7 14q0 6 6 12q6 7 14 7q6 0 12 -6q7 -6 7 -13q0 -8 -6 -14q-5 -6 -13 -6v0zM96 204q-7 0 -13 6q-7 6 -7 14q0 6 6 12q6 7 14 7q6 0 12 -6q7 -6 7 -13q0 -8 -6 -14q-5 -6 -13 -6v0zM224 204q-7 0 -13 6q-7 6 -7 14q0 6 6 12q6 7 14 7q6 0 12 -6q7 -6 7 -13
q0 -8 -6 -14q-5 -6 -13 -6v0zM160 268q-7 0 -13 6q-7 6 -7 14q0 6 6 12q6 7 14 7q6 0 12 -6q7 -6 7 -13q0 -8 -6 -14q-5 -6 -13 -6v0zM96 332q-7 0 -13 6q-7 6 -7 14q0 6 6 12q6 7 14 7q6 0 12 -6q7 -6 7 -13q0 -8 -6 -14q-5 -6 -13 -6v0zM224 332q-7 0 -13 6q-7 6 -7 14
q0 6 6 12q6 7 14 7q6 0 12 -6q7 -6 7 -13q0 -8 -6 -14q-5 -6 -13 -6v0zM96 396q-7 0 -13 6q-7 6 -7 14q0 6 6 12q6 7 14 7q6 0 12 -6q7 -6 7 -13q0 -8 -6 -14q-5 -6 -13 -6v0zM224 396q-7 0 -13 6q-7 6 -7 14q0 6 6 12q6 7 14 7q6 0 12 -6q7 -6 7 -13q0 -8 -6 -14
q-5 -6 -13 -6v0zM32 460q-7 0 -13 6q-7 6 -7 14q0 6 6 12q6 7 14 7q6 0 12 -6q7 -6 7 -13q0 -8 -6 -14q-5 -6 -13 -6v0zM288 460q-7 0 -13 6q-7 6 -7 14q0 6 6 12q6 7 14 7q6 0 12 -6q7 -6 7 -13q0 -8 -6 -14q-5 -6 -13 -6v0zM32 524q-7 0 -13 6q-7 6 -7 14q0 6 6 12
q6 7 14 7q6 0 12 -6q7 -6 7 -13q0 -8 -6 -14q-5 -6 -13 -6v0zM288 524q-7 0 -13 6q-7 6 -7 14q0 6 6 12q6 7 14 7q6 0 12 -6q7 -6 7 -13q0 -8 -6 -14q-5 -6 -13 -6v0z" />
    <glyph glyph-name="Y" unicode="Y" 
d="M160 12q-7 0 -13 6q-7 6 -7 14q0 6 6 12q6 7 14 7q6 0 12 -6q7 -6 7 -13q0 -8 -6 -14q-5 -6 -13 -6v0zM160 76q-7 0 -13 6q-7 6 -7 14q0 6 6 12q6 7 14 7q6 0 12 -6q7 -6 7 -13q0 -8 -6 -14q-5 -6 -13 -6v0zM160 140q-7 0 -13 6q-7 6 -7 14q0 6 6 12q6 7 14 7q6 0 12 -6
q7 -6 7 -13q0 -8 -6 -14q-5 -6 -13 -6v0zM160 204q-7 0 -13 6q-7 6 -7 14q0 6 6 12q6 7 14 7q6 0 12 -6q7 -6 7 -13q0 -8 -6 -14q-5 -6 -13 -6v0zM160 268q-7 0 -13 6q-7 6 -7 14q0 6 6 12q6 7 14 7q6 0 12 -6q7 -6 7 -13q0 -8 -6 -14q-5 -6 -13 -6v0zM96 332q-7 0 -13 6
q-7 6 -7 14q0 6 6 12q6 7 14 7q6 0 12 -6q7 -6 7 -13q0 -8 -6 -14q-5 -6 -13 -6v0zM224 332q-7 0 -13 6q-7 6 -7 14q0 6 6 12q6 7 14 7q6 0 12 -6q7 -6 7 -13q0 -8 -6 -14q-5 -6 -13 -6v0zM32 396q-7 0 -13 6q-7 6 -7 14q0 6 6 12q6 7 14 7q6 0 12 -6q7 -6 7 -13
q0 -8 -6 -14q-5 -6 -13 -6v0zM288 396q-7 0 -13 6q-7 6 -7 14q0 6 6 12q6 7 14 7q6 0 12 -6q7 -6 7 -13q0 -8 -6 -14q-5 -6 -13 -6v0zM32 460q-7 0 -13 6q-7 6 -7 14q0 6 6 12q6 7 14 7q6 0 12 -6q7 -6 7 -13q0 -8 -6 -14q-5 -6 -13 -6v0zM288 460q-7 0 -13 6q-7 6 -7 14
q0 6 6 12q6 7 14 7q6 0 12 -6q7 -6 7 -13q0 -8 -6 -14q-5 -6 -13 -6v0zM32 524q-7 0 -13 6q-7 6 -7 14q0 6 6 12q6 7 14 7q6 0 12 -6q7 -6 7 -13q0 -8 -6 -14q-5 -6 -13 -6v0zM288 524q-7 0 -13 6q-7 6 -7 14q0 6 6 12q6 7 14 7q6 0 12 -6q7 -6 7 -13q0 -8 -6 -14
q-5 -6 -13 -6v0z" />
    <glyph glyph-name="Z" unicode="Z" 
d="M32 12q-7 0 -13 6q-7 6 -7 14q0 6 6 12q6 7 14 7q6 0 12 -6q7 -6 7 -13q0 -8 -6 -14q-5 -6 -13 -6v0zM96 12q-7 0 -13 6q-7 6 -7 14q0 6 6 12q6 7 14 7q6 0 12 -6q7 -6 7 -13q0 -8 -6 -14q-5 -6 -13 -6v0zM160 12q-7 0 -13 6q-7 6 -7 14q0 6 6 12q6 7 14 7q6 0 12 -6
q7 -6 7 -13q0 -8 -6 -14q-5 -6 -13 -6v0zM224 12q-7 0 -13 6q-7 6 -7 14q0 6 6 12q6 7 14 7q6 0 12 -6q7 -6 7 -13q0 -8 -6 -14q-5 -6 -13 -6v0zM288 12q-7 0 -13 6q-7 6 -7 14q0 6 6 12q6 7 14 7q6 0 12 -6q7 -6 7 -13q0 -8 -6 -14q-5 -6 -13 -6v0zM32 76q-7 0 -13 6
q-7 6 -7 14q0 6 6 12q6 7 14 7q6 0 12 -6q7 -6 7 -13q0 -8 -6 -14q-5 -6 -13 -6v0zM32 140q-7 0 -13 6q-7 6 -7 14q0 6 6 12q6 7 14 7q6 0 12 -6q7 -6 7 -13q0 -8 -6 -14q-5 -6 -13 -6v0zM96 204q-7 0 -13 6q-7 6 -7 14q0 6 6 12q6 7 14 7q6 0 12 -6q7 -6 7 -13q0 -8 -6 -14
q-5 -6 -13 -6v0zM160 268q-7 0 -13 6q-7 6 -7 14q0 6 6 12q6 7 14 7q6 0 12 -6q7 -6 7 -13q0 -8 -6 -14q-5 -6 -13 -6v0zM224 332q-7 0 -13 6q-7 6 -7 14q0 6 6 12q6 7 14 7q6 0 12 -6q7 -6 7 -13q0 -8 -6 -14q-5 -6 -13 -6v0zM288 396q-7 0 -13 6q-7 6 -7 14q0 6 6 12
q6 7 14 7q6 0 12 -6q7 -6 7 -13q0 -8 -6 -14q-5 -6 -13 -6v0zM288 460q-7 0 -13 6q-7 6 -7 14q0 6 6 12q6 7 14 7q6 0 12 -6q7 -6 7 -13q0 -8 -6 -14q-5 -6 -13 -6v0zM32 524q-7 0 -13 6q-7 6 -7 14q0 6 6 12q6 7 14 7q6 0 12 -6q7 -6 7 -13q0 -8 -6 -14q-5 -6 -13 -6v0z
M96 524q-7 0 -13 6q-7 6 -7 14q0 6 6 12q6 7 14 7q6 0 12 -6q7 -6 7 -13q0 -8 -6 -14q-5 -6 -13 -6v0zM160 524q-7 0 -13 6q-7 6 -7 14q0 6 6 12q6 7 14 7q6 0 12 -6q7 -6 7 -13q0 -8 -6 -14q-5 -6 -13 -6v0zM224 524q-7 0 -13 6q-7 6 -7 14q0 6 6 12q6 7 14 7q6 0 12 -6
q7 -6 7 -13q0 -8 -6 -14q-5 -6 -13 -6v0zM288 524q-7 0 -13 6q-7 6 -7 14q0 6 6 12q6 7 14 7q6 0 12 -6q7 -6 7 -13q0 -8 -6 -14q-5 -6 -13 -6v0z" />
    <glyph glyph-name="bracketleft" unicode="[" horiz-adv-x="256" 
d="M32 12q-7 0 -13 6q-7 6 -7 14q0 6 6 12q6 7 14 7q6 0 12 -6q7 -6 7 -13q0 -8 -6 -14q-5 -6 -13 -6v0zM96 12q-7 0 -13 6q-7 6 -7 14q0 6 6 12q6 7 14 7q6 0 12 -6q7 -6 7 -13q0 -8 -6 -14q-5 -6 -13 -6v0zM160 12q-7 0 -13 6q-7 6 -7 14q0 6 6 12q6 7 14 7q6 0 12 -6
q7 -6 7 -13q0 -8 -6 -14q-5 -6 -13 -6v0zM32 76q-7 0 -13 6q-7 6 -7 14q0 6 6 12q6 7 14 7q6 0 12 -6q7 -6 7 -13q0 -8 -6 -14q-5 -6 -13 -6v0zM32 140q-7 0 -13 6q-7 6 -7 14q0 6 6 12q6 7 14 7q6 0 12 -6q7 -6 7 -13q0 -8 -6 -14q-5 -6 -13 -6v0zM32 204q-7 0 -13 6
q-7 6 -7 14q0 6 6 12q6 7 14 7q6 0 12 -6q7 -6 7 -13q0 -8 -6 -14q-5 -6 -13 -6v0zM32 268q-7 0 -13 6q-7 6 -7 14q0 6 6 12q6 7 14 7q6 0 12 -6q7 -6 7 -13q0 -8 -6 -14q-5 -6 -13 -6v0zM32 332q-7 0 -13 6q-7 6 -7 14q0 6 6 12q6 7 14 7q6 0 12 -6q7 -6 7 -13q0 -8 -6 -14
q-5 -6 -13 -6v0zM32 396q-7 0 -13 6q-7 6 -7 14q0 6 6 12q6 7 14 7q6 0 12 -6q7 -6 7 -13q0 -8 -6 -14q-5 -6 -13 -6v0zM32 460q-7 0 -13 6q-7 6 -7 14q0 6 6 12q6 7 14 7q6 0 12 -6q7 -6 7 -13q0 -8 -6 -14q-5 -6 -13 -6v0zM32 524q-7 0 -13 6q-7 6 -7 14q0 6 6 12
q6 7 14 7q6 0 12 -6q7 -6 7 -13q0 -8 -6 -14q-5 -6 -13 -6v0zM96 524q-7 0 -13 6q-7 6 -7 14q0 6 6 12q6 7 14 7q6 0 12 -6q7 -6 7 -13q0 -8 -6 -14q-5 -6 -13 -6v0zM160 524q-7 0 -13 6q-7 6 -7 14q0 6 6 12q6 7 14 7q6 0 12 -6q7 -6 7 -13q0 -8 -6 -14q-5 -6 -13 -6v0z
" />
    <glyph glyph-name="backslash" unicode="\" 
d="M288 12q-7 0 -13 6q-7 6 -7 14q0 6 6 12q6 7 14 7q6 0 12 -6q7 -6 7 -13q0 -8 -6 -14q-5 -6 -13 -6v0zM288 76q-7 0 -13 6q-7 6 -7 14q0 6 6 12q6 7 14 7q6 0 12 -6q7 -6 7 -13q0 -8 -6 -14q-5 -6 -13 -6v0zM224 140q-7 0 -13 6q-7 6 -7 14q0 6 6 12q6 7 14 7q6 0 12 -6
q7 -6 7 -13q0 -8 -6 -14q-5 -6 -13 -6v0zM224 204q-7 0 -13 6q-7 6 -7 14q0 6 6 12q6 7 14 7q6 0 12 -6q7 -6 7 -13q0 -8 -6 -14q-5 -6 -13 -6v0zM160 268q-7 0 -13 6q-7 6 -7 14q0 6 6 12q6 7 14 7q6 0 12 -6q7 -6 7 -13q0 -8 -6 -14q-5 -6 -13 -6v0zM160 332q-7 0 -13 6
q-7 6 -7 14q0 6 6 12q6 7 14 7q6 0 12 -6q7 -6 7 -13q0 -8 -6 -14q-5 -6 -13 -6v0zM96 396q-7 0 -13 6q-7 6 -7 14q0 6 6 12q6 7 14 7q6 0 12 -6q7 -6 7 -13q0 -8 -6 -14q-5 -6 -13 -6v0zM96 460q-7 0 -13 6q-7 6 -7 14q0 6 6 12q6 7 14 7q6 0 12 -6q7 -6 7 -13q0 -8 -6 -14
q-5 -6 -13 -6v0zM32 524q-7 0 -13 6q-7 6 -7 14q0 6 6 12q6 7 14 7q6 0 12 -6q7 -6 7 -13q0 -8 -6 -14q-5 -6 -13 -6v0z" />
    <glyph glyph-name="bracketright" unicode="]" horiz-adv-x="256" 
d="M32 12q-7 0 -13 6q-7 6 -7 14q0 6 6 12q6 7 14 7q6 0 12 -6q7 -6 7 -13q0 -8 -6 -14q-5 -6 -13 -6v0zM96 12q-7 0 -13 6q-7 6 -7 14q0 6 6 12q6 7 14 7q6 0 12 -6q7 -6 7 -13q0 -8 -6 -14q-5 -6 -13 -6v0zM160 12q-7 0 -13 6q-7 6 -7 14q0 6 6 12q6 7 14 7q6 0 12 -6
q7 -6 7 -13q0 -8 -6 -14q-5 -6 -13 -6v0zM160 76q-7 0 -13 6q-7 6 -7 14q0 6 6 12q6 7 14 7q6 0 12 -6q7 -6 7 -13q0 -8 -6 -14q-5 -6 -13 -6v0zM160 140q-7 0 -13 6q-7 6 -7 14q0 6 6 12q6 7 14 7q6 0 12 -6q7 -6 7 -13q0 -8 -6 -14q-5 -6 -13 -6v0zM160 204q-7 0 -13 6
q-7 6 -7 14q0 6 6 12q6 7 14 7q6 0 12 -6q7 -6 7 -13q0 -8 -6 -14q-5 -6 -13 -6v0zM160 268q-7 0 -13 6q-7 6 -7 14q0 6 6 12q6 7 14 7q6 0 12 -6q7 -6 7 -13q0 -8 -6 -14q-5 -6 -13 -6v0zM160 332q-7 0 -13 6q-7 6 -7 14q0 6 6 12q6 7 14 7q6 0 12 -6q7 -6 7 -13
q0 -8 -6 -14q-5 -6 -13 -6v0zM160 396q-7 0 -13 6q-7 6 -7 14q0 6 6 12q6 7 14 7q6 0 12 -6q7 -6 7 -13q0 -8 -6 -14q-5 -6 -13 -6v0zM160 460q-7 0 -13 6q-7 6 -7 14q0 6 6 12q6 7 14 7q6 0 12 -6q7 -6 7 -13q0 -8 -6 -14q-5 -6 -13 -6v0zM32 524q-7 0 -13 6q-7 6 -7 14
q0 6 6 12q6 7 14 7q6 0 12 -6q7 -6 7 -13q0 -8 -6 -14q-5 -6 -13 -6v0zM96 524q-7 0 -13 6q-7 6 -7 14q0 6 6 12q6 7 14 7q6 0 12 -6q7 -6 7 -13q0 -8 -6 -14q-5 -6 -13 -6v0zM160 524q-7 0 -13 6q-7 6 -7 14q0 6 6 12q6 7 14 7q6 0 12 -6q7 -6 7 -13q0 -8 -6 -14
q-5 -6 -13 -6v0z" />
    <glyph glyph-name="asciicircum" unicode="^" 
d="M32 396q-7 0 -13 6q-7 6 -7 14q0 6 6 12q6 7 14 7q6 0 12 -6q7 -6 7 -13q0 -8 -6 -14q-5 -6 -13 -6v0zM288 396q-7 0 -13 6q-7 6 -7 14q0 6 6 12q6 7 14 7q6 0 12 -6q7 -6 7 -13q0 -8 -6 -14q-5 -6 -13 -6v0zM96 460q-7 0 -13 6q-7 6 -7 14q0 6 6 12q6 7 14 7q6 0 12 -6
q7 -6 7 -13q0 -8 -6 -14q-5 -6 -13 -6v0zM224 460q-7 0 -13 6q-7 6 -7 14q0 6 6 12q6 7 14 7q6 0 12 -6q7 -6 7 -13q0 -8 -6 -14q-5 -6 -13 -6v0zM160 524q-7 0 -13 6q-7 6 -7 14q0 6 6 12q6 7 14 7q6 0 12 -6q7 -6 7 -13q0 -8 -6 -14q-5 -6 -13 -6v0z" />
    <glyph glyph-name="underscore" unicode="_" horiz-adv-x="447" 
d="M32 12q-7 0 -13 6q-7 6 -7 14q0 6 6 12q6 7 14 7q6 0 12 -6q7 -6 7 -13q0 -8 -6 -14q-5 -6 -13 -6v0zM96 12q-7 0 -13 6q-7 6 -7 14q0 6 6 12q6 7 14 7q6 0 12 -6q7 -6 7 -13q0 -8 -6 -14q-5 -6 -13 -6v0zM160 12q-7 0 -13 6q-7 6 -7 14q0 6 6 12q6 7 14 7q6 0 12 -6
q7 -6 7 -13q0 -8 -6 -14q-5 -6 -13 -6v0zM224 12q-7 0 -13 6q-7 6 -7 14q0 6 6 12q6 7 14 7q6 0 12 -6q7 -6 7 -13q0 -8 -6 -14q-5 -6 -13 -6v0zM288 12q-7 0 -13 6q-7 6 -7 14q0 6 6 12q6 7 14 7q6 0 12 -6q7 -6 7 -13q0 -8 -6 -14q-5 -6 -13 -6v0zM352 12q-7 0 -13 6
q-7 6 -7 14q0 6 6 12q6 7 14 7q6 0 12 -6q7 -6 7 -13q0 -8 -6 -14q-5 -6 -13 -6v0z" />
    <glyph glyph-name="grave" unicode="`" horiz-adv-x="256" 
d="M160 396q-7 0 -13 6q-7 6 -7 14q0 6 6 12q6 7 14 7q6 0 12 -6q7 -6 7 -13q0 -8 -6 -14q-5 -6 -13 -6v0zM96 460q-7 0 -13 6q-7 6 -7 14q0 6 6 12q6 7 14 7q6 0 12 -6q7 -6 7 -13q0 -8 -6 -14q-5 -6 -13 -6v0zM32 524q-7 0 -13 6q-7 6 -7 14q0 6 6 12q6 7 14 7q6 0 12 -6
q7 -6 7 -13q0 -8 -6 -14q-5 -6 -13 -6v0z" />
    <glyph glyph-name="a" unicode="a" 
d="M96 12q-7 0 -13 6q-7 6 -7 14q0 6 6 12q6 7 14 7q6 0 12 -6q7 -6 7 -13q0 -8 -6 -14q-5 -6 -13 -6v0zM160 12q-7 0 -13 6q-7 6 -7 14q0 6 6 12q6 7 14 7q6 0 12 -6q7 -6 7 -13q0 -8 -6 -14q-5 -6 -13 -6v0zM224 12q-7 0 -13 6q-7 6 -7 14q0 6 6 12q6 7 14 7q6 0 12 -6
q7 -6 7 -13q0 -8 -6 -14q-5 -6 -13 -6v0zM288 12q-7 0 -13 6q-7 6 -7 14q0 6 6 12q6 7 14 7q6 0 12 -6q7 -6 7 -13q0 -8 -6 -14q-5 -6 -13 -6v0zM32 76q-7 0 -13 6q-7 6 -7 14q0 6 6 12q6 7 14 7q6 0 12 -6q7 -6 7 -13q0 -8 -6 -14q-5 -6 -13 -6v0zM288 76q-7 0 -13 6
q-7 6 -7 14q0 6 6 12q6 7 14 7q6 0 12 -6q7 -6 7 -13q0 -8 -6 -14q-5 -6 -13 -6v0zM32 140q-7 0 -13 6q-7 6 -7 14q0 6 6 12q6 7 14 7q6 0 12 -6q7 -6 7 -13q0 -8 -6 -14q-5 -6 -13 -6v0zM288 140q-7 0 -13 6q-7 6 -7 14q0 6 6 12q6 7 14 7q6 0 12 -6q7 -6 7 -13
q0 -8 -6 -14q-5 -6 -13 -6v0zM96 204q-7 0 -13 6q-7 6 -7 14q0 6 6 12q6 7 14 7q6 0 12 -6q7 -6 7 -13q0 -8 -6 -14q-5 -6 -13 -6v0zM160 204q-7 0 -13 6q-7 6 -7 14q0 6 6 12q6 7 14 7q6 0 12 -6q7 -6 7 -13q0 -8 -6 -14q-5 -6 -13 -6v0zM224 204q-7 0 -13 6q-7 6 -7 14
q0 6 6 12q6 7 14 7q6 0 12 -6q7 -6 7 -13q0 -8 -6 -14q-5 -6 -13 -6v0zM288 204q-7 0 -13 6q-7 6 -7 14q0 6 6 12q6 7 14 7q6 0 12 -6q7 -6 7 -13q0 -8 -6 -14q-5 -6 -13 -6v0zM288 268q-7 0 -13 6q-7 6 -7 14q0 6 6 12q6 7 14 7q6 0 12 -6q7 -6 7 -13q0 -8 -6 -14
q-5 -6 -13 -6v0zM96 332q-7 0 -13 6q-7 6 -7 14q0 6 6 12q6 7 14 7q6 0 12 -6q7 -6 7 -13q0 -8 -6 -14q-5 -6 -13 -6v0zM160 332q-7 0 -13 6q-7 6 -7 14q0 6 6 12q6 7 14 7q6 0 12 -6q7 -6 7 -13q0 -8 -6 -14q-5 -6 -13 -6v0zM224 332q-7 0 -13 6q-7 6 -7 14q0 6 6 12
q6 7 14 7q6 0 12 -6q7 -6 7 -13q0 -8 -6 -14q-5 -6 -13 -6v0z" />
    <glyph glyph-name="b" unicode="b" 
d="M32 12q-7 0 -13 6q-7 6 -7 14q0 6 6 12q6 7 14 7q6 0 12 -6q7 -6 7 -13q0 -8 -6 -14q-5 -6 -13 -6v0zM96 12q-7 0 -13 6q-7 6 -7 14q0 6 6 12q6 7 14 7q6 0 12 -6q7 -6 7 -13q0 -8 -6 -14q-5 -6 -13 -6v0zM160 12q-7 0 -13 6q-7 6 -7 14q0 6 6 12q6 7 14 7q6 0 12 -6
q7 -6 7 -13q0 -8 -6 -14q-5 -6 -13 -6v0zM224 12q-7 0 -13 6q-7 6 -7 14q0 6 6 12q6 7 14 7q6 0 12 -6q7 -6 7 -13q0 -8 -6 -14q-5 -6 -13 -6v0zM32 76q-7 0 -13 6q-7 6 -7 14q0 6 6 12q6 7 14 7q6 0 12 -6q7 -6 7 -13q0 -8 -6 -14q-5 -6 -13 -6v0zM288 76q-7 0 -13 6
q-7 6 -7 14q0 6 6 12q6 7 14 7q6 0 12 -6q7 -6 7 -13q0 -8 -6 -14q-5 -6 -13 -6v0zM32 140q-7 0 -13 6q-7 6 -7 14q0 6 6 12q6 7 14 7q6 0 12 -6q7 -6 7 -13q0 -8 -6 -14q-5 -6 -13 -6v0zM288 140q-7 0 -13 6q-7 6 -7 14q0 6 6 12q6 7 14 7q6 0 12 -6q7 -6 7 -13
q0 -8 -6 -14q-5 -6 -13 -6v0zM32 204q-7 0 -13 6q-7 6 -7 14q0 6 6 12q6 7 14 7q6 0 12 -6q7 -6 7 -13q0 -8 -6 -14q-5 -6 -13 -6v0zM288 204q-7 0 -13 6q-7 6 -7 14q0 6 6 12q6 7 14 7q6 0 12 -6q7 -6 7 -13q0 -8 -6 -14q-5 -6 -13 -6v0zM32 268q-7 0 -13 6q-7 6 -7 14
q0 6 6 12q6 7 14 7q6 0 12 -6q7 -6 7 -13q0 -8 -6 -14q-5 -6 -13 -6v0zM288 268q-7 0 -13 6q-7 6 -7 14q0 6 6 12q6 7 14 7q6 0 12 -6q7 -6 7 -13q0 -8 -6 -14q-5 -6 -13 -6v0zM32 332q-7 0 -13 6q-7 6 -7 14q0 6 6 12q6 7 14 7q6 0 12 -6q7 -6 7 -13q0 -8 -6 -14
q-5 -6 -13 -6v0zM96 332q-7 0 -13 6q-7 6 -7 14q0 6 6 12q6 7 14 7q6 0 12 -6q7 -6 7 -13q0 -8 -6 -14q-5 -6 -13 -6v0zM160 332q-7 0 -13 6q-7 6 -7 14q0 6 6 12q6 7 14 7q6 0 12 -6q7 -6 7 -13q0 -8 -6 -14q-5 -6 -13 -6v0zM224 332q-7 0 -13 6q-7 6 -7 14q0 6 6 12
q6 7 14 7q6 0 12 -6q7 -6 7 -13q0 -8 -6 -14q-5 -6 -13 -6v0zM32 396q-7 0 -13 6q-7 6 -7 14q0 6 6 12q6 7 14 7q6 0 12 -6q7 -6 7 -13q0 -8 -6 -14q-5 -6 -13 -6v0zM32 460q-7 0 -13 6q-7 6 -7 14q0 6 6 12q6 7 14 7q6 0 12 -6q7 -6 7 -13q0 -8 -6 -14q-5 -6 -13 -6v0z
M32 524q-7 0 -13 6q-7 6 -7 14q0 6 6 12q6 7 14 7q6 0 12 -6q7 -6 7 -13q0 -8 -6 -14q-5 -6 -13 -6v0z" />
    <glyph glyph-name="c" unicode="c" 
d="M96 12q-7 0 -13 6q-7 6 -7 14q0 6 6 12q6 7 14 7q6 0 12 -6q7 -6 7 -13q0 -8 -6 -14q-5 -6 -13 -6v0zM160 12q-7 0 -13 6q-7 6 -7 14q0 6 6 12q6 7 14 7q6 0 12 -6q7 -6 7 -13q0 -8 -6 -14q-5 -6 -13 -6v0zM224 12q-7 0 -13 6q-7 6 -7 14q0 6 6 12q6 7 14 7q6 0 12 -6
q7 -6 7 -13q0 -8 -6 -14q-5 -6 -13 -6v0zM288 12q-7 0 -13 6q-7 6 -7 14q0 6 6 12q6 7 14 7q6 0 12 -6q7 -6 7 -13q0 -8 -6 -14q-5 -6 -13 -6v0zM32 76q-7 0 -13 6q-7 6 -7 14q0 6 6 12q6 7 14 7q6 0 12 -6q7 -6 7 -13q0 -8 -6 -14q-5 -6 -13 -6v0zM32 140q-7 0 -13 6
q-7 6 -7 14q0 6 6 12q6 7 14 7q6 0 12 -6q7 -6 7 -13q0 -8 -6 -14q-5 -6 -13 -6v0zM32 204q-7 0 -13 6q-7 6 -7 14q0 6 6 12q6 7 14 7q6 0 12 -6q7 -6 7 -13q0 -8 -6 -14q-5 -6 -13 -6v0zM32 268q-7 0 -13 6q-7 6 -7 14q0 6 6 12q6 7 14 7q6 0 12 -6q7 -6 7 -13q0 -8 -6 -14
q-5 -6 -13 -6v0zM288 268q-7 0 -13 6q-7 6 -7 14q0 6 6 12q6 7 14 7q6 0 12 -6q7 -6 7 -13q0 -8 -6 -14q-5 -6 -13 -6v0zM96 332q-7 0 -13 6q-7 6 -7 14q0 6 6 12q6 7 14 7q6 0 12 -6q7 -6 7 -13q0 -8 -6 -14q-5 -6 -13 -6v0zM160 332q-7 0 -13 6q-7 6 -7 14q0 6 6 12
q6 7 14 7q6 0 12 -6q7 -6 7 -13q0 -8 -6 -14q-5 -6 -13 -6v0zM224 332q-7 0 -13 6q-7 6 -7 14q0 6 6 12q6 7 14 7q6 0 12 -6q7 -6 7 -13q0 -8 -6 -14q-5 -6 -13 -6v0z" />
    <glyph glyph-name="d" unicode="d" 
d="M96 12q-7 0 -13 6q-7 6 -7 14q0 6 6 12q6 7 14 7q6 0 12 -6q7 -6 7 -13q0 -8 -6 -14q-5 -6 -13 -6v0zM160 12q-7 0 -13 6q-7 6 -7 14q0 6 6 12q6 7 14 7q6 0 12 -6q7 -6 7 -13q0 -8 -6 -14q-5 -6 -13 -6v0zM224 12q-7 0 -13 6q-7 6 -7 14q0 6 6 12q6 7 14 7q6 0 12 -6
q7 -6 7 -13q0 -8 -6 -14q-5 -6 -13 -6v0zM288 12q-7 0 -13 6q-7 6 -7 14q0 6 6 12q6 7 14 7q6 0 12 -6q7 -6 7 -13q0 -8 -6 -14q-5 -6 -13 -6v0zM32 76q-7 0 -13 6q-7 6 -7 14q0 6 6 12q6 7 14 7q6 0 12 -6q7 -6 7 -13q0 -8 -6 -14q-5 -6 -13 -6v0zM288 76q-7 0 -13 6
q-7 6 -7 14q0 6 6 12q6 7 14 7q6 0 12 -6q7 -6 7 -13q0 -8 -6 -14q-5 -6 -13 -6v0zM32 140q-7 0 -13 6q-7 6 -7 14q0 6 6 12q6 7 14 7q6 0 12 -6q7 -6 7 -13q0 -8 -6 -14q-5 -6 -13 -6v0zM288 140q-7 0 -13 6q-7 6 -7 14q0 6 6 12q6 7 14 7q6 0 12 -6q7 -6 7 -13
q0 -8 -6 -14q-5 -6 -13 -6v0zM32 204q-7 0 -13 6q-7 6 -7 14q0 6 6 12q6 7 14 7q6 0 12 -6q7 -6 7 -13q0 -8 -6 -14q-5 -6 -13 -6v0zM288 204q-7 0 -13 6q-7 6 -7 14q0 6 6 12q6 7 14 7q6 0 12 -6q7 -6 7 -13q0 -8 -6 -14q-5 -6 -13 -6v0zM32 268q-7 0 -13 6q-7 6 -7 14
q0 6 6 12q6 7 14 7q6 0 12 -6q7 -6 7 -13q0 -8 -6 -14q-5 -6 -13 -6v0zM288 268q-7 0 -13 6q-7 6 -7 14q0 6 6 12q6 7 14 7q6 0 12 -6q7 -6 7 -13q0 -8 -6 -14q-5 -6 -13 -6v0zM96 332q-7 0 -13 6q-7 6 -7 14q0 6 6 12q6 7 14 7q6 0 12 -6q7 -6 7 -13q0 -8 -6 -14
q-5 -6 -13 -6v0zM160 332q-7 0 -13 6q-7 6 -7 14q0 6 6 12q6 7 14 7q6 0 12 -6q7 -6 7 -13q0 -8 -6 -14q-5 -6 -13 -6v0zM224 332q-7 0 -13 6q-7 6 -7 14q0 6 6 12q6 7 14 7q6 0 12 -6q7 -6 7 -13q0 -8 -6 -14q-5 -6 -13 -6v0zM288 332q-7 0 -13 6q-7 6 -7 14q0 6 6 12
q6 7 14 7q6 0 12 -6q7 -6 7 -13q0 -8 -6 -14q-5 -6 -13 -6v0zM288 396q-7 0 -13 6q-7 6 -7 14q0 6 6 12q6 7 14 7q6 0 12 -6q7 -6 7 -13q0 -8 -6 -14q-5 -6 -13 -6v0zM288 460q-7 0 -13 6q-7 6 -7 14q0 6 6 12q6 7 14 7q6 0 12 -6q7 -6 7 -13q0 -8 -6 -14q-5 -6 -13 -6v0z
M288 524q-7 0 -13 6q-7 6 -7 14q0 6 6 12q6 7 14 7q6 0 12 -6q7 -6 7 -13q0 -8 -6 -14q-5 -6 -13 -6v0z" />
    <glyph glyph-name="e" unicode="e" 
d="M96 12q-7 0 -13 6q-7 6 -7 14q0 6 6 12q6 7 14 7q6 0 12 -6q7 -6 7 -13q0 -8 -6 -14q-5 -6 -13 -6v0zM160 12q-7 0 -13 6q-7 6 -7 14q0 6 6 12q6 7 14 7q6 0 12 -6q7 -6 7 -13q0 -8 -6 -14q-5 -6 -13 -6v0zM224 12q-7 0 -13 6q-7 6 -7 14q0 6 6 12q6 7 14 7q6 0 12 -6
q7 -6 7 -13q0 -8 -6 -14q-5 -6 -13 -6v0zM288 12q-7 0 -13 6q-7 6 -7 14q0 6 6 12q6 7 14 7q6 0 12 -6q7 -6 7 -13q0 -8 -6 -14q-5 -6 -13 -6v0zM32 76q-7 0 -13 6q-7 6 -7 14q0 6 6 12q6 7 14 7q6 0 12 -6q7 -6 7 -13q0 -8 -6 -14q-5 -6 -13 -6v0zM32 140q-7 0 -13 6
q-7 6 -7 14q0 6 6 12q6 7 14 7q6 0 12 -6q7 -6 7 -13q0 -8 -6 -14q-5 -6 -13 -6v0zM32 204q-7 0 -13 6q-7 6 -7 14q0 6 6 12q6 7 14 7q6 0 12 -6q7 -6 7 -13q0 -8 -6 -14q-5 -6 -13 -6v0zM96 204q-7 0 -13 6q-7 6 -7 14q0 6 6 12q6 7 14 7q6 0 12 -6q7 -6 7 -13q0 -8 -6 -14
q-5 -6 -13 -6v0zM160 204q-7 0 -13 6q-7 6 -7 14q0 6 6 12q6 7 14 7q6 0 12 -6q7 -6 7 -13q0 -8 -6 -14q-5 -6 -13 -6v0zM224 204q-7 0 -13 6q-7 6 -7 14q0 6 6 12q6 7 14 7q6 0 12 -6q7 -6 7 -13q0 -8 -6 -14q-5 -6 -13 -6v0zM288 204q-7 0 -13 6q-7 6 -7 14q0 6 6 12
q6 7 14 7q6 0 12 -6q7 -6 7 -13q0 -8 -6 -14q-5 -6 -13 -6v0zM32 268q-7 0 -13 6q-7 6 -7 14q0 6 6 12q6 7 14 7q6 0 12 -6q7 -6 7 -13q0 -8 -6 -14q-5 -6 -13 -6v0zM288 268q-7 0 -13 6q-7 6 -7 14q0 6 6 12q6 7 14 7q6 0 12 -6q7 -6 7 -13q0 -8 -6 -14q-5 -6 -13 -6v0z
M96 332q-7 0 -13 6q-7 6 -7 14q0 6 6 12q6 7 14 7q6 0 12 -6q7 -6 7 -13q0 -8 -6 -14q-5 -6 -13 -6v0zM160 332q-7 0 -13 6q-7 6 -7 14q0 6 6 12q6 7 14 7q6 0 12 -6q7 -6 7 -13q0 -8 -6 -14q-5 -6 -13 -6v0zM224 332q-7 0 -13 6q-7 6 -7 14q0 6 6 12q6 7 14 7q6 0 12 -6
q7 -6 7 -13q0 -8 -6 -14q-5 -6 -13 -6v0z" />
    <glyph glyph-name="f" unicode="f" 
d="M160 12q-7 0 -13 6q-7 6 -7 14q0 6 6 12q6 7 14 7q6 0 12 -6q7 -6 7 -13q0 -8 -6 -14q-5 -6 -13 -6v0zM160 76q-7 0 -13 6q-7 6 -7 14q0 6 6 12q6 7 14 7q6 0 12 -6q7 -6 7 -13q0 -8 -6 -14q-5 -6 -13 -6v0zM160 140q-7 0 -13 6q-7 6 -7 14q0 6 6 12q6 7 14 7q6 0 12 -6
q7 -6 7 -13q0 -8 -6 -14q-5 -6 -13 -6v0zM160 204q-7 0 -13 6q-7 6 -7 14q0 6 6 12q6 7 14 7q6 0 12 -6q7 -6 7 -13q0 -8 -6 -14q-5 -6 -13 -6v0zM160 268q-7 0 -13 6q-7 6 -7 14q0 6 6 12q6 7 14 7q6 0 12 -6q7 -6 7 -13q0 -8 -6 -14q-5 -6 -13 -6v0zM32 332q-7 0 -13 6
q-7 6 -7 14q0 6 6 12q6 7 14 7q6 0 12 -6q7 -6 7 -13q0 -8 -6 -14q-5 -6 -13 -6v0zM96 332q-7 0 -13 6q-7 6 -7 14q0 6 6 12q6 7 14 7q6 0 12 -6q7 -6 7 -13q0 -8 -6 -14q-5 -6 -13 -6v0zM160 332q-7 0 -13 6q-7 6 -7 14q0 6 6 12q6 7 14 7q6 0 12 -6q7 -6 7 -13
q0 -8 -6 -14q-5 -6 -13 -6v0zM224 332q-7 0 -13 6q-7 6 -7 14q0 6 6 12q6 7 14 7q6 0 12 -6q7 -6 7 -13q0 -8 -6 -14q-5 -6 -13 -6v0zM288 332q-7 0 -13 6q-7 6 -7 14q0 6 6 12q6 7 14 7q6 0 12 -6q7 -6 7 -13q0 -8 -6 -14q-5 -6 -13 -6v0zM160 396q-7 0 -13 6q-7 6 -7 14
q0 6 6 12q6 7 14 7q6 0 12 -6q7 -6 7 -13q0 -8 -6 -14q-5 -6 -13 -6v0zM160 460q-7 0 -13 6q-7 6 -7 14q0 6 6 12q6 7 14 7q6 0 12 -6q7 -6 7 -13q0 -8 -6 -14q-5 -6 -13 -6v0zM224 524q-7 0 -13 6q-7 6 -7 14q0 6 6 12q6 7 14 7q6 0 12 -6q7 -6 7 -13q0 -8 -6 -14
q-5 -6 -13 -6v0zM288 524q-7 0 -13 6q-7 6 -7 14q0 6 6 12q6 7 14 7q6 0 12 -6q7 -6 7 -13q0 -8 -6 -14q-5 -6 -13 -6v0z" />
    <glyph glyph-name="g" unicode="g" 
d="M32 12q-7 0 -13 6q-7 6 -7 14q0 6 6 12q6 7 14 7q6 0 12 -6q7 -6 7 -13q0 -8 -6 -14q-5 -6 -13 -6v0zM96 12q-7 0 -13 6q-7 6 -7 14q0 6 6 12q6 7 14 7q6 0 12 -6q7 -6 7 -13q0 -8 -6 -14q-5 -6 -13 -6v0zM160 12q-7 0 -13 6q-7 6 -7 14q0 6 6 12q6 7 14 7q6 0 12 -6
q7 -6 7 -13q0 -8 -6 -14q-5 -6 -13 -6v0zM224 12q-7 0 -13 6q-7 6 -7 14q0 6 6 12q6 7 14 7q6 0 12 -6q7 -6 7 -13q0 -8 -6 -14q-5 -6 -13 -6v0zM288 76q-7 0 -13 6q-7 6 -7 14q0 6 6 12q6 7 14 7q6 0 12 -6q7 -6 7 -13q0 -8 -6 -14q-5 -6 -13 -6v0zM96 140q-7 0 -13 6
q-7 6 -7 14q0 6 6 12q6 7 14 7q6 0 12 -6q7 -6 7 -13q0 -8 -6 -14q-5 -6 -13 -6v0zM160 140q-7 0 -13 6q-7 6 -7 14q0 6 6 12q6 7 14 7q6 0 12 -6q7 -6 7 -13q0 -8 -6 -14q-5 -6 -13 -6v0zM224 140q-7 0 -13 6q-7 6 -7 14q0 6 6 12q6 7 14 7q6 0 12 -6q7 -6 7 -13
q0 -8 -6 -14q-5 -6 -13 -6v0zM288 140q-7 0 -13 6q-7 6 -7 14q0 6 6 12q6 7 14 7q6 0 12 -6q7 -6 7 -13q0 -8 -6 -14q-5 -6 -13 -6v0zM32 204q-7 0 -13 6q-7 6 -7 14q0 6 6 12q6 7 14 7q6 0 12 -6q7 -6 7 -13q0 -8 -6 -14q-5 -6 -13 -6v0zM288 204q-7 0 -13 6q-7 6 -7 14
q0 6 6 12q6 7 14 7q6 0 12 -6q7 -6 7 -13q0 -8 -6 -14q-5 -6 -13 -6v0zM32 268q-7 0 -13 6q-7 6 -7 14q0 6 6 12q6 7 14 7q6 0 12 -6q7 -6 7 -13q0 -8 -6 -14q-5 -6 -13 -6v0zM288 268q-7 0 -13 6q-7 6 -7 14q0 6 6 12q6 7 14 7q6 0 12 -6q7 -6 7 -13q0 -8 -6 -14
q-5 -6 -13 -6v0zM96 332q-7 0 -13 6q-7 6 -7 14q0 6 6 12q6 7 14 7q6 0 12 -6q7 -6 7 -13q0 -8 -6 -14q-5 -6 -13 -6v0zM160 332q-7 0 -13 6q-7 6 -7 14q0 6 6 12q6 7 14 7q6 0 12 -6q7 -6 7 -13q0 -8 -6 -14q-5 -6 -13 -6v0zM224 332q-7 0 -13 6q-7 6 -7 14q0 6 6 12
q6 7 14 7q6 0 12 -6q7 -6 7 -13q0 -8 -6 -14q-5 -6 -13 -6v0z" />
    <glyph glyph-name="h" unicode="h" 
d="M32 12q-7 0 -13 6q-7 6 -7 14q0 6 6 12q6 7 14 7q6 0 12 -6q7 -6 7 -13q0 -8 -6 -14q-5 -6 -13 -6v0zM288 12q-7 0 -13 6q-7 6 -7 14q0 6 6 12q6 7 14 7q6 0 12 -6q7 -6 7 -13q0 -8 -6 -14q-5 -6 -13 -6v0zM32 76q-7 0 -13 6q-7 6 -7 14q0 6 6 12q6 7 14 7q6 0 12 -6
q7 -6 7 -13q0 -8 -6 -14q-5 -6 -13 -6v0zM288 76q-7 0 -13 6q-7 6 -7 14q0 6 6 12q6 7 14 7q6 0 12 -6q7 -6 7 -13q0 -8 -6 -14q-5 -6 -13 -6v0zM32 140q-7 0 -13 6q-7 6 -7 14q0 6 6 12q6 7 14 7q6 0 12 -6q7 -6 7 -13q0 -8 -6 -14q-5 -6 -13 -6v0zM288 140q-7 0 -13 6
q-7 6 -7 14q0 6 6 12q6 7 14 7q6 0 12 -6q7 -6 7 -13q0 -8 -6 -14q-5 -6 -13 -6v0zM32 204q-7 0 -13 6q-7 6 -7 14q0 6 6 12q6 7 14 7q6 0 12 -6q7 -6 7 -13q0 -8 -6 -14q-5 -6 -13 -6v0zM288 204q-7 0 -13 6q-7 6 -7 14q0 6 6 12q6 7 14 7q6 0 12 -6q7 -6 7 -13
q0 -8 -6 -14q-5 -6 -13 -6v0zM32 268q-7 0 -13 6q-7 6 -7 14q0 6 6 12q6 7 14 7q6 0 12 -6q7 -6 7 -13q0 -8 -6 -14q-5 -6 -13 -6v0zM288 268q-7 0 -13 6q-7 6 -7 14q0 6 6 12q6 7 14 7q6 0 12 -6q7 -6 7 -13q0 -8 -6 -14q-5 -6 -13 -6v0zM32 332q-7 0 -13 6q-7 6 -7 14
q0 6 6 12q6 7 14 7q6 0 12 -6q7 -6 7 -13q0 -8 -6 -14q-5 -6 -13 -6v0zM96 332q-7 0 -13 6q-7 6 -7 14q0 6 6 12q6 7 14 7q6 0 12 -6q7 -6 7 -13q0 -8 -6 -14q-5 -6 -13 -6v0zM160 332q-7 0 -13 6q-7 6 -7 14q0 6 6 12q6 7 14 7q6 0 12 -6q7 -6 7 -13q0 -8 -6 -14
q-5 -6 -13 -6v0zM224 332q-7 0 -13 6q-7 6 -7 14q0 6 6 12q6 7 14 7q6 0 12 -6q7 -6 7 -13q0 -8 -6 -14q-5 -6 -13 -6v0zM32 396q-7 0 -13 6q-7 6 -7 14q0 6 6 12q6 7 14 7q6 0 12 -6q7 -6 7 -13q0 -8 -6 -14q-5 -6 -13 -6v0zM32 460q-7 0 -13 6q-7 6 -7 14q0 6 6 12
q6 7 14 7q6 0 12 -6q7 -6 7 -13q0 -8 -6 -14q-5 -6 -13 -6v0zM32 524q-7 0 -13 6q-7 6 -7 14q0 6 6 12q6 7 14 7q6 0 12 -6q7 -6 7 -13q0 -8 -6 -14q-5 -6 -13 -6v0z" />
    <glyph glyph-name="i" unicode="i" 
d="M32 12q-7 0 -13 6q-7 6 -7 14q0 6 6 12q6 7 14 7q6 0 12 -6q7 -6 7 -13q0 -8 -6 -14q-5 -6 -13 -6v0zM96 12q-7 0 -13 6q-7 6 -7 14q0 6 6 12q6 7 14 7q6 0 12 -6q7 -6 7 -13q0 -8 -6 -14q-5 -6 -13 -6v0zM160 12q-7 0 -13 6q-7 6 -7 14q0 6 6 12q6 7 14 7q6 0 12 -6
q7 -6 7 -13q0 -8 -6 -14q-5 -6 -13 -6v0zM224 12q-7 0 -13 6q-7 6 -7 14q0 6 6 12q6 7 14 7q6 0 12 -6q7 -6 7 -13q0 -8 -6 -14q-5 -6 -13 -6v0zM288 12q-7 0 -13 6q-7 6 -7 14q0 6 6 12q6 7 14 7q6 0 12 -6q7 -6 7 -13q0 -8 -6 -14q-5 -6 -13 -6v0zM160 76q-7 0 -13 6
q-7 6 -7 14q0 6 6 12q6 7 14 7q6 0 12 -6q7 -6 7 -13q0 -8 -6 -14q-5 -6 -13 -6v0zM160 140q-7 0 -13 6q-7 6 -7 14q0 6 6 12q6 7 14 7q6 0 12 -6q7 -6 7 -13q0 -8 -6 -14q-5 -6 -13 -6v0zM160 204q-7 0 -13 6q-7 6 -7 14q0 6 6 12q6 7 14 7q6 0 12 -6q7 -6 7 -13
q0 -8 -6 -14q-5 -6 -13 -6v0zM160 268q-7 0 -13 6q-7 6 -7 14q0 6 6 12q6 7 14 7q6 0 12 -6q7 -6 7 -13q0 -8 -6 -14q-5 -6 -13 -6v0zM32 332q-7 0 -13 6q-7 6 -7 14q0 6 6 12q6 7 14 7q6 0 12 -6q7 -6 7 -13q0 -8 -6 -14q-5 -6 -13 -6v0zM96 332q-7 0 -13 6q-7 6 -7 14
q0 6 6 12q6 7 14 7q6 0 12 -6q7 -6 7 -13q0 -8 -6 -14q-5 -6 -13 -6v0zM160 332q-7 0 -13 6q-7 6 -7 14q0 6 6 12q6 7 14 7q6 0 12 -6q7 -6 7 -13q0 -8 -6 -14q-5 -6 -13 -6v0zM160 524q-7 0 -13 6q-7 6 -7 14q0 6 6 12q6 7 14 7q6 0 12 -6q7 -6 7 -13q0 -8 -6 -14
q-5 -6 -13 -6v0z" />
    <glyph glyph-name="j" unicode="j" 
d="M96 12q-7 0 -13 6q-7 6 -7 14q0 6 6 12q6 7 14 7q6 0 12 -6q7 -6 7 -13q0 -8 -6 -14q-5 -6 -13 -6v0zM160 12q-7 0 -13 6q-7 6 -7 14q0 6 6 12q6 7 14 7q6 0 12 -6q7 -6 7 -13q0 -8 -6 -14q-5 -6 -13 -6v0zM224 12q-7 0 -13 6q-7 6 -7 14q0 6 6 12q6 7 14 7q6 0 12 -6
q7 -6 7 -13q0 -8 -6 -14q-5 -6 -13 -6v0zM32 76q-7 0 -13 6q-7 6 -7 14q0 6 6 12q6 7 14 7q6 0 12 -6q7 -6 7 -13q0 -8 -6 -14q-5 -6 -13 -6v0zM288 76q-7 0 -13 6q-7 6 -7 14q0 6 6 12q6 7 14 7q6 0 12 -6q7 -6 7 -13q0 -8 -6 -14q-5 -6 -13 -6v0zM288 140q-7 0 -13 6
q-7 6 -7 14q0 6 6 12q6 7 14 7q6 0 12 -6q7 -6 7 -13q0 -8 -6 -14q-5 -6 -13 -6v0zM288 204q-7 0 -13 6q-7 6 -7 14q0 6 6 12q6 7 14 7q6 0 12 -6q7 -6 7 -13q0 -8 -6 -14q-5 -6 -13 -6v0zM288 268q-7 0 -13 6q-7 6 -7 14q0 6 6 12q6 7 14 7q6 0 12 -6q7 -6 7 -13
q0 -8 -6 -14q-5 -6 -13 -6v0zM224 332q-7 0 -13 6q-7 6 -7 14q0 6 6 12q6 7 14 7q6 0 12 -6q7 -6 7 -13q0 -8 -6 -14q-5 -6 -13 -6v0zM288 332q-7 0 -13 6q-7 6 -7 14q0 6 6 12q6 7 14 7q6 0 12 -6q7 -6 7 -13q0 -8 -6 -14q-5 -6 -13 -6v0zM288 524q-7 0 -13 6q-7 6 -7 14
q0 6 6 12q6 7 14 7q6 0 12 -6q7 -6 7 -13q0 -8 -6 -14q-5 -6 -13 -6v0z" />
    <glyph glyph-name="k" unicode="k" 
d="M32 12q-7 0 -13 6q-7 6 -7 14q0 6 6 12q6 7 14 7q6 0 12 -6q7 -6 7 -13q0 -8 -6 -14q-5 -6 -13 -6v0zM288 12q-7 0 -13 6q-7 6 -7 14q0 6 6 12q6 7 14 7q6 0 12 -6q7 -6 7 -13q0 -8 -6 -14q-5 -6 -13 -6v0zM32 76q-7 0 -13 6q-7 6 -7 14q0 6 6 12q6 7 14 7q6 0 12 -6
q7 -6 7 -13q0 -8 -6 -14q-5 -6 -13 -6v0zM224 76q-7 0 -13 6q-7 6 -7 14q0 6 6 12q6 7 14 7q6 0 12 -6q7 -6 7 -13q0 -8 -6 -14q-5 -6 -13 -6v0zM32 140q-7 0 -13 6q-7 6 -7 14q0 6 6 12q6 7 14 7q6 0 12 -6q7 -6 7 -13q0 -8 -6 -14q-5 -6 -13 -6v0zM160 140q-7 0 -13 6
q-7 6 -7 14q0 6 6 12q6 7 14 7q6 0 12 -6q7 -6 7 -13q0 -8 -6 -14q-5 -6 -13 -6v0zM32 204q-7 0 -13 6q-7 6 -7 14q0 6 6 12q6 7 14 7q6 0 12 -6q7 -6 7 -13q0 -8 -6 -14q-5 -6 -13 -6v0zM96 204q-7 0 -13 6q-7 6 -7 14q0 6 6 12q6 7 14 7q6 0 12 -6q7 -6 7 -13q0 -8 -6 -14
q-5 -6 -13 -6v0zM32 268q-7 0 -13 6q-7 6 -7 14q0 6 6 12q6 7 14 7q6 0 12 -6q7 -6 7 -13q0 -8 -6 -14q-5 -6 -13 -6v0zM160 268q-7 0 -13 6q-7 6 -7 14q0 6 6 12q6 7 14 7q6 0 12 -6q7 -6 7 -13q0 -8 -6 -14q-5 -6 -13 -6v0zM32 332q-7 0 -13 6q-7 6 -7 14q0 6 6 12
q6 7 14 7q6 0 12 -6q7 -6 7 -13q0 -8 -6 -14q-5 -6 -13 -6v0zM224 332q-7 0 -13 6q-7 6 -7 14q0 6 6 12q6 7 14 7q6 0 12 -6q7 -6 7 -13q0 -8 -6 -14q-5 -6 -13 -6v0zM32 396q-7 0 -13 6q-7 6 -7 14q0 6 6 12q6 7 14 7q6 0 12 -6q7 -6 7 -13q0 -8 -6 -14q-5 -6 -13 -6v0z
M32 460q-7 0 -13 6q-7 6 -7 14q0 6 6 12q6 7 14 7q6 0 12 -6q7 -6 7 -13q0 -8 -6 -14q-5 -6 -13 -6v0zM32 524q-7 0 -13 6q-7 6 -7 14q0 6 6 12q6 7 14 7q6 0 12 -6q7 -6 7 -13q0 -8 -6 -14q-5 -6 -13 -6v0z" />
    <glyph glyph-name="l" unicode="l" horiz-adv-x="256" 
d="M96 12q-7 0 -13 6q-7 6 -7 14q0 6 6 12q6 7 14 7q6 0 12 -6q7 -6 7 -13q0 -8 -6 -14q-5 -6 -13 -6v0zM160 12q-7 0 -13 6q-7 6 -7 14q0 6 6 12q6 7 14 7q6 0 12 -6q7 -6 7 -13q0 -8 -6 -14q-5 -6 -13 -6v0zM32 76q-7 0 -13 6q-7 6 -7 14q0 6 6 12q6 7 14 7q6 0 12 -6
q7 -6 7 -13q0 -8 -6 -14q-5 -6 -13 -6v0zM32 140q-7 0 -13 6q-7 6 -7 14q0 6 6 12q6 7 14 7q6 0 12 -6q7 -6 7 -13q0 -8 -6 -14q-5 -6 -13 -6v0zM32 204q-7 0 -13 6q-7 6 -7 14q0 6 6 12q6 7 14 7q6 0 12 -6q7 -6 7 -13q0 -8 -6 -14q-5 -6 -13 -6v0zM32 268q-7 0 -13 6
q-7 6 -7 14q0 6 6 12q6 7 14 7q6 0 12 -6q7 -6 7 -13q0 -8 -6 -14q-5 -6 -13 -6v0zM32 332q-7 0 -13 6q-7 6 -7 14q0 6 6 12q6 7 14 7q6 0 12 -6q7 -6 7 -13q0 -8 -6 -14q-5 -6 -13 -6v0zM32 396q-7 0 -13 6q-7 6 -7 14q0 6 6 12q6 7 14 7q6 0 12 -6q7 -6 7 -13q0 -8 -6 -14
q-5 -6 -13 -6v0zM32 460q-7 0 -13 6q-7 6 -7 14q0 6 6 12q6 7 14 7q6 0 12 -6q7 -6 7 -13q0 -8 -6 -14q-5 -6 -13 -6v0zM32 524q-7 0 -13 6q-7 6 -7 14q0 6 6 12q6 7 14 7q6 0 12 -6q7 -6 7 -13q0 -8 -6 -14q-5 -6 -13 -6v0z" />
    <glyph glyph-name="m" unicode="m" 
d="M32 12q-7 0 -13 6q-7 6 -7 14q0 6 6 12q6 7 14 7q6 0 12 -6q7 -6 7 -13q0 -8 -6 -14q-5 -6 -13 -6v0zM288 12q-7 0 -13 6q-7 6 -7 14q0 6 6 12q6 7 14 7q6 0 12 -6q7 -6 7 -13q0 -8 -6 -14q-5 -6 -13 -6v0zM32 76q-7 0 -13 6q-7 6 -7 14q0 6 6 12q6 7 14 7q6 0 12 -6
q7 -6 7 -13q0 -8 -6 -14q-5 -6 -13 -6v0zM288 76q-7 0 -13 6q-7 6 -7 14q0 6 6 12q6 7 14 7q6 0 12 -6q7 -6 7 -13q0 -8 -6 -14q-5 -6 -13 -6v0zM32 140q-7 0 -13 6q-7 6 -7 14q0 6 6 12q6 7 14 7q6 0 12 -6q7 -6 7 -13q0 -8 -6 -14q-5 -6 -13 -6v0zM160 140q-7 0 -13 6
q-7 6 -7 14q0 6 6 12q6 7 14 7q6 0 12 -6q7 -6 7 -13q0 -8 -6 -14q-5 -6 -13 -6v0zM288 140q-7 0 -13 6q-7 6 -7 14q0 6 6 12q6 7 14 7q6 0 12 -6q7 -6 7 -13q0 -8 -6 -14q-5 -6 -13 -6v0zM32 204q-7 0 -13 6q-7 6 -7 14q0 6 6 12q6 7 14 7q6 0 12 -6q7 -6 7 -13
q0 -8 -6 -14q-5 -6 -13 -6v0zM160 204q-7 0 -13 6q-7 6 -7 14q0 6 6 12q6 7 14 7q6 0 12 -6q7 -6 7 -13q0 -8 -6 -14q-5 -6 -13 -6v0zM288 204q-7 0 -13 6q-7 6 -7 14q0 6 6 12q6 7 14 7q6 0 12 -6q7 -6 7 -13q0 -8 -6 -14q-5 -6 -13 -6v0zM32 268q-7 0 -13 6q-7 6 -7 14
q0 6 6 12q6 7 14 7q6 0 12 -6q7 -6 7 -13q0 -8 -6 -14q-5 -6 -13 -6v0zM160 268q-7 0 -13 6q-7 6 -7 14q0 6 6 12q6 7 14 7q6 0 12 -6q7 -6 7 -13q0 -8 -6 -14q-5 -6 -13 -6v0zM288 268q-7 0 -13 6q-7 6 -7 14q0 6 6 12q6 7 14 7q6 0 12 -6q7 -6 7 -13q0 -8 -6 -14
q-5 -6 -13 -6v0zM32 332q-7 0 -13 6q-7 6 -7 14q0 6 6 12q6 7 14 7q6 0 12 -6q7 -6 7 -13q0 -8 -6 -14q-5 -6 -13 -6v0zM96 332q-7 0 -13 6q-7 6 -7 14q0 6 6 12q6 7 14 7q6 0 12 -6q7 -6 7 -13q0 -8 -6 -14q-5 -6 -13 -6v0zM224 332q-7 0 -13 6q-7 6 -7 14q0 6 6 12
q6 7 14 7q6 0 12 -6q7 -6 7 -13q0 -8 -6 -14q-5 -6 -13 -6v0z" />
    <glyph glyph-name="n" unicode="n" 
d="M32 12q-7 0 -13 6q-7 6 -7 14q0 6 6 12q6 7 14 7q6 0 12 -6q7 -6 7 -13q0 -8 -6 -14q-5 -6 -13 -6v0zM288 12q-7 0 -13 6q-7 6 -7 14q0 6 6 12q6 7 14 7q6 0 12 -6q7 -6 7 -13q0 -8 -6 -14q-5 -6 -13 -6v0zM32 76q-7 0 -13 6q-7 6 -7 14q0 6 6 12q6 7 14 7q6 0 12 -6
q7 -6 7 -13q0 -8 -6 -14q-5 -6 -13 -6v0zM288 76q-7 0 -13 6q-7 6 -7 14q0 6 6 12q6 7 14 7q6 0 12 -6q7 -6 7 -13q0 -8 -6 -14q-5 -6 -13 -6v0zM32 140q-7 0 -13 6q-7 6 -7 14q0 6 6 12q6 7 14 7q6 0 12 -6q7 -6 7 -13q0 -8 -6 -14q-5 -6 -13 -6v0zM288 140q-7 0 -13 6
q-7 6 -7 14q0 6 6 12q6 7 14 7q6 0 12 -6q7 -6 7 -13q0 -8 -6 -14q-5 -6 -13 -6v0zM32 204q-7 0 -13 6q-7 6 -7 14q0 6 6 12q6 7 14 7q6 0 12 -6q7 -6 7 -13q0 -8 -6 -14q-5 -6 -13 -6v0zM288 204q-7 0 -13 6q-7 6 -7 14q0 6 6 12q6 7 14 7q6 0 12 -6q7 -6 7 -13
q0 -8 -6 -14q-5 -6 -13 -6v0zM32 268q-7 0 -13 6q-7 6 -7 14q0 6 6 12q6 7 14 7q6 0 12 -6q7 -6 7 -13q0 -8 -6 -14q-5 -6 -13 -6v0zM288 268q-7 0 -13 6q-7 6 -7 14q0 6 6 12q6 7 14 7q6 0 12 -6q7 -6 7 -13q0 -8 -6 -14q-5 -6 -13 -6v0zM32 332q-7 0 -13 6q-7 6 -7 14
q0 6 6 12q6 7 14 7q6 0 12 -6q7 -6 7 -13q0 -8 -6 -14q-5 -6 -13 -6v0zM96 332q-7 0 -13 6q-7 6 -7 14q0 6 6 12q6 7 14 7q6 0 12 -6q7 -6 7 -13q0 -8 -6 -14q-5 -6 -13 -6v0zM160 332q-7 0 -13 6q-7 6 -7 14q0 6 6 12q6 7 14 7q6 0 12 -6q7 -6 7 -13q0 -8 -6 -14
q-5 -6 -13 -6v0zM224 332q-7 0 -13 6q-7 6 -7 14q0 6 6 12q6 7 14 7q6 0 12 -6q7 -6 7 -13q0 -8 -6 -14q-5 -6 -13 -6v0z" />
    <glyph glyph-name="o" unicode="o" 
d="M96 12q-7 0 -13 6q-7 6 -7 14q0 6 6 12q6 7 14 7q6 0 12 -6q7 -6 7 -13q0 -8 -6 -14q-5 -6 -13 -6v0zM160 12q-7 0 -13 6q-7 6 -7 14q0 6 6 12q6 7 14 7q6 0 12 -6q7 -6 7 -13q0 -8 -6 -14q-5 -6 -13 -6v0zM224 12q-7 0 -13 6q-7 6 -7 14q0 6 6 12q6 7 14 7q6 0 12 -6
q7 -6 7 -13q0 -8 -6 -14q-5 -6 -13 -6v0zM32 76q-7 0 -13 6q-7 6 -7 14q0 6 6 12q6 7 14 7q6 0 12 -6q7 -6 7 -13q0 -8 -6 -14q-5 -6 -13 -6v0zM288 76q-7 0 -13 6q-7 6 -7 14q0 6 6 12q6 7 14 7q6 0 12 -6q7 -6 7 -13q0 -8 -6 -14q-5 -6 -13 -6v0zM32 140q-7 0 -13 6
q-7 6 -7 14q0 6 6 12q6 7 14 7q6 0 12 -6q7 -6 7 -13q0 -8 -6 -14q-5 -6 -13 -6v0zM288 140q-7 0 -13 6q-7 6 -7 14q0 6 6 12q6 7 14 7q6 0 12 -6q7 -6 7 -13q0 -8 -6 -14q-5 -6 -13 -6v0zM32 204q-7 0 -13 6q-7 6 -7 14q0 6 6 12q6 7 14 7q6 0 12 -6q7 -6 7 -13
q0 -8 -6 -14q-5 -6 -13 -6v0zM288 204q-7 0 -13 6q-7 6 -7 14q0 6 6 12q6 7 14 7q6 0 12 -6q7 -6 7 -13q0 -8 -6 -14q-5 -6 -13 -6v0zM32 268q-7 0 -13 6q-7 6 -7 14q0 6 6 12q6 7 14 7q6 0 12 -6q7 -6 7 -13q0 -8 -6 -14q-5 -6 -13 -6v0zM288 268q-7 0 -13 6q-7 6 -7 14
q0 6 6 12q6 7 14 7q6 0 12 -6q7 -6 7 -13q0 -8 -6 -14q-5 -6 -13 -6v0zM96 332q-7 0 -13 6q-7 6 -7 14q0 6 6 12q6 7 14 7q6 0 12 -6q7 -6 7 -13q0 -8 -6 -14q-5 -6 -13 -6v0zM160 332q-7 0 -13 6q-7 6 -7 14q0 6 6 12q6 7 14 7q6 0 12 -6q7 -6 7 -13q0 -8 -6 -14
q-5 -6 -13 -6v0zM224 332q-7 0 -13 6q-7 6 -7 14q0 6 6 12q6 7 14 7q6 0 12 -6q7 -6 7 -13q0 -8 -6 -14q-5 -6 -13 -6v0z" />
    <glyph glyph-name="p" unicode="p" 
d="M32 12q-7 0 -13 6q-7 6 -7 14q0 6 6 12q6 7 14 7q6 0 12 -6q7 -6 7 -13q0 -8 -6 -14q-5 -6 -13 -6v0zM32 76q-7 0 -13 6q-7 6 -7 14q0 6 6 12q6 7 14 7q6 0 12 -6q7 -6 7 -13q0 -8 -6 -14q-5 -6 -13 -6v0zM32 140q-7 0 -13 6q-7 6 -7 14q0 6 6 12q6 7 14 7q6 0 12 -6
q7 -6 7 -13q0 -8 -6 -14q-5 -6 -13 -6v0zM96 140q-7 0 -13 6q-7 6 -7 14q0 6 6 12q6 7 14 7q6 0 12 -6q7 -6 7 -13q0 -8 -6 -14q-5 -6 -13 -6v0zM160 140q-7 0 -13 6q-7 6 -7 14q0 6 6 12q6 7 14 7q6 0 12 -6q7 -6 7 -13q0 -8 -6 -14q-5 -6 -13 -6v0zM224 140q-7 0 -13 6
q-7 6 -7 14q0 6 6 12q6 7 14 7q6 0 12 -6q7 -6 7 -13q0 -8 -6 -14q-5 -6 -13 -6v0zM32 204q-7 0 -13 6q-7 6 -7 14q0 6 6 12q6 7 14 7q6 0 12 -6q7 -6 7 -13q0 -8 -6 -14q-5 -6 -13 -6v0zM288 204q-7 0 -13 6q-7 6 -7 14q0 6 6 12q6 7 14 7q6 0 12 -6q7 -6 7 -13
q0 -8 -6 -14q-5 -6 -13 -6v0zM32 268q-7 0 -13 6q-7 6 -7 14q0 6 6 12q6 7 14 7q6 0 12 -6q7 -6 7 -13q0 -8 -6 -14q-5 -6 -13 -6v0zM288 268q-7 0 -13 6q-7 6 -7 14q0 6 6 12q6 7 14 7q6 0 12 -6q7 -6 7 -13q0 -8 -6 -14q-5 -6 -13 -6v0zM32 332q-7 0 -13 6q-7 6 -7 14
q0 6 6 12q6 7 14 7q6 0 12 -6q7 -6 7 -13q0 -8 -6 -14q-5 -6 -13 -6v0zM96 332q-7 0 -13 6q-7 6 -7 14q0 6 6 12q6 7 14 7q6 0 12 -6q7 -6 7 -13q0 -8 -6 -14q-5 -6 -13 -6v0zM160 332q-7 0 -13 6q-7 6 -7 14q0 6 6 12q6 7 14 7q6 0 12 -6q7 -6 7 -13q0 -8 -6 -14
q-5 -6 -13 -6v0zM224 332q-7 0 -13 6q-7 6 -7 14q0 6 6 12q6 7 14 7q6 0 12 -6q7 -6 7 -13q0 -8 -6 -14q-5 -6 -13 -6v0z" />
    <glyph glyph-name="q" unicode="q" 
d="M288 12q-7 0 -13 6q-7 6 -7 14q0 6 6 12q6 7 14 7q6 0 12 -6q7 -6 7 -13q0 -8 -6 -14q-5 -6 -13 -6v0zM288 76q-7 0 -13 6q-7 6 -7 14q0 6 6 12q6 7 14 7q6 0 12 -6q7 -6 7 -13q0 -8 -6 -14q-5 -6 -13 -6v0zM96 140q-7 0 -13 6q-7 6 -7 14q0 6 6 12q6 7 14 7q6 0 12 -6
q7 -6 7 -13q0 -8 -6 -14q-5 -6 -13 -6v0zM160 140q-7 0 -13 6q-7 6 -7 14q0 6 6 12q6 7 14 7q6 0 12 -6q7 -6 7 -13q0 -8 -6 -14q-5 -6 -13 -6v0zM224 140q-7 0 -13 6q-7 6 -7 14q0 6 6 12q6 7 14 7q6 0 12 -6q7 -6 7 -13q0 -8 -6 -14q-5 -6 -13 -6v0zM288 140q-7 0 -13 6
q-7 6 -7 14q0 6 6 12q6 7 14 7q6 0 12 -6q7 -6 7 -13q0 -8 -6 -14q-5 -6 -13 -6v0zM32 204q-7 0 -13 6q-7 6 -7 14q0 6 6 12q6 7 14 7q6 0 12 -6q7 -6 7 -13q0 -8 -6 -14q-5 -6 -13 -6v0zM288 204q-7 0 -13 6q-7 6 -7 14q0 6 6 12q6 7 14 7q6 0 12 -6q7 -6 7 -13
q0 -8 -6 -14q-5 -6 -13 -6v0zM32 268q-7 0 -13 6q-7 6 -7 14q0 6 6 12q6 7 14 7q6 0 12 -6q7 -6 7 -13q0 -8 -6 -14q-5 -6 -13 -6v0zM288 268q-7 0 -13 6q-7 6 -7 14q0 6 6 12q6 7 14 7q6 0 12 -6q7 -6 7 -13q0 -8 -6 -14q-5 -6 -13 -6v0zM96 332q-7 0 -13 6q-7 6 -7 14
q0 6 6 12q6 7 14 7q6 0 12 -6q7 -6 7 -13q0 -8 -6 -14q-5 -6 -13 -6v0zM160 332q-7 0 -13 6q-7 6 -7 14q0 6 6 12q6 7 14 7q6 0 12 -6q7 -6 7 -13q0 -8 -6 -14q-5 -6 -13 -6v0zM224 332q-7 0 -13 6q-7 6 -7 14q0 6 6 12q6 7 14 7q6 0 12 -6q7 -6 7 -13q0 -8 -6 -14
q-5 -6 -13 -6v0zM288 332q-7 0 -13 6q-7 6 -7 14q0 6 6 12q6 7 14 7q6 0 12 -6q7 -6 7 -13q0 -8 -6 -14q-5 -6 -13 -6v0z" />
    <glyph glyph-name="r" unicode="r" 
d="M32 12q-7 0 -13 6q-7 6 -7 14q0 6 6 12q6 7 14 7q6 0 12 -6q7 -6 7 -13q0 -8 -6 -14q-5 -6 -13 -6v0zM32 76q-7 0 -13 6q-7 6 -7 14q0 6 6 12q6 7 14 7q6 0 12 -6q7 -6 7 -13q0 -8 -6 -14q-5 -6 -13 -6v0zM32 140q-7 0 -13 6q-7 6 -7 14q0 6 6 12q6 7 14 7q6 0 12 -6
q7 -6 7 -13q0 -8 -6 -14q-5 -6 -13 -6v0zM32 204q-7 0 -13 6q-7 6 -7 14q0 6 6 12q6 7 14 7q6 0 12 -6q7 -6 7 -13q0 -8 -6 -14q-5 -6 -13 -6v0zM32 268q-7 0 -13 6q-7 6 -7 14q0 6 6 12q6 7 14 7q6 0 12 -6q7 -6 7 -13q0 -8 -6 -14q-5 -6 -13 -6v0zM96 268q-7 0 -13 6
q-7 6 -7 14q0 6 6 12q6 7 14 7q6 0 12 -6q7 -6 7 -13q0 -8 -6 -14q-5 -6 -13 -6v0zM288 268q-7 0 -13 6q-7 6 -7 14q0 6 6 12q6 7 14 7q6 0 12 -6q7 -6 7 -13q0 -8 -6 -14q-5 -6 -13 -6v0zM32 332q-7 0 -13 6q-7 6 -7 14q0 6 6 12q6 7 14 7q6 0 12 -6q7 -6 7 -13
q0 -8 -6 -14q-5 -6 -13 -6v0zM160 332q-7 0 -13 6q-7 6 -7 14q0 6 6 12q6 7 14 7q6 0 12 -6q7 -6 7 -13q0 -8 -6 -14q-5 -6 -13 -6v0zM224 332q-7 0 -13 6q-7 6 -7 14q0 6 6 12q6 7 14 7q6 0 12 -6q7 -6 7 -13q0 -8 -6 -14q-5 -6 -13 -6v0z" />
    <glyph glyph-name="s" unicode="s" 
d="M32 12q-7 0 -13 6q-7 6 -7 14q0 6 6 12q6 7 14 7q6 0 12 -6q7 -6 7 -13q0 -8 -6 -14q-5 -6 -13 -6v0zM96 12q-7 0 -13 6q-7 6 -7 14q0 6 6 12q6 7 14 7q6 0 12 -6q7 -6 7 -13q0 -8 -6 -14q-5 -6 -13 -6v0zM160 12q-7 0 -13 6q-7 6 -7 14q0 6 6 12q6 7 14 7q6 0 12 -6
q7 -6 7 -13q0 -8 -6 -14q-5 -6 -13 -6v0zM224 12q-7 0 -13 6q-7 6 -7 14q0 6 6 12q6 7 14 7q6 0 12 -6q7 -6 7 -13q0 -8 -6 -14q-5 -6 -13 -6v0zM288 76q-7 0 -13 6q-7 6 -7 14q0 6 6 12q6 7 14 7q6 0 12 -6q7 -6 7 -13q0 -8 -6 -14q-5 -6 -13 -6v0zM288 140q-7 0 -13 6
q-7 6 -7 14q0 6 6 12q6 7 14 7q6 0 12 -6q7 -6 7 -13q0 -8 -6 -14q-5 -6 -13 -6v0zM96 204q-7 0 -13 6q-7 6 -7 14q0 6 6 12q6 7 14 7q6 0 12 -6q7 -6 7 -13q0 -8 -6 -14q-5 -6 -13 -6v0zM160 204q-7 0 -13 6q-7 6 -7 14q0 6 6 12q6 7 14 7q6 0 12 -6q7 -6 7 -13
q0 -8 -6 -14q-5 -6 -13 -6v0zM224 204q-7 0 -13 6q-7 6 -7 14q0 6 6 12q6 7 14 7q6 0 12 -6q7 -6 7 -13q0 -8 -6 -14q-5 -6 -13 -6v0zM32 268q-7 0 -13 6q-7 6 -7 14q0 6 6 12q6 7 14 7q6 0 12 -6q7 -6 7 -13q0 -8 -6 -14q-5 -6 -13 -6v0zM96 332q-7 0 -13 6q-7 6 -7 14
q0 6 6 12q6 7 14 7q6 0 12 -6q7 -6 7 -13q0 -8 -6 -14q-5 -6 -13 -6v0zM160 332q-7 0 -13 6q-7 6 -7 14q0 6 6 12q6 7 14 7q6 0 12 -6q7 -6 7 -13q0 -8 -6 -14q-5 -6 -13 -6v0zM224 332q-7 0 -13 6q-7 6 -7 14q0 6 6 12q6 7 14 7q6 0 12 -6q7 -6 7 -13q0 -8 -6 -14
q-5 -6 -13 -6v0zM288 332q-7 0 -13 6q-7 6 -7 14q0 6 6 12q6 7 14 7q6 0 12 -6q7 -6 7 -13q0 -8 -6 -14q-5 -6 -13 -6v0z" />
    <glyph glyph-name="t" unicode="t" 
d="M224 12q-7 0 -13 6q-7 6 -7 14q0 6 6 12q6 7 14 7q6 0 12 -6q7 -6 7 -13q0 -8 -6 -14q-5 -6 -13 -6v0zM288 12q-7 0 -13 6q-7 6 -7 14q0 6 6 12q6 7 14 7q6 0 12 -6q7 -6 7 -13q0 -8 -6 -14q-5 -6 -13 -6v0zM160 76q-7 0 -13 6q-7 6 -7 14q0 6 6 12q6 7 14 7q6 0 12 -6
q7 -6 7 -13q0 -8 -6 -14q-5 -6 -13 -6v0zM160 140q-7 0 -13 6q-7 6 -7 14q0 6 6 12q6 7 14 7q6 0 12 -6q7 -6 7 -13q0 -8 -6 -14q-5 -6 -13 -6v0zM160 204q-7 0 -13 6q-7 6 -7 14q0 6 6 12q6 7 14 7q6 0 12 -6q7 -6 7 -13q0 -8 -6 -14q-5 -6 -13 -6v0zM160 268q-7 0 -13 6
q-7 6 -7 14q0 6 6 12q6 7 14 7q6 0 12 -6q7 -6 7 -13q0 -8 -6 -14q-5 -6 -13 -6v0zM32 332q-7 0 -13 6q-7 6 -7 14q0 6 6 12q6 7 14 7q6 0 12 -6q7 -6 7 -13q0 -8 -6 -14q-5 -6 -13 -6v0zM96 332q-7 0 -13 6q-7 6 -7 14q0 6 6 12q6 7 14 7q6 0 12 -6q7 -6 7 -13q0 -8 -6 -14
q-5 -6 -13 -6v0zM160 332q-7 0 -13 6q-7 6 -7 14q0 6 6 12q6 7 14 7q6 0 12 -6q7 -6 7 -13q0 -8 -6 -14q-5 -6 -13 -6v0zM224 332q-7 0 -13 6q-7 6 -7 14q0 6 6 12q6 7 14 7q6 0 12 -6q7 -6 7 -13q0 -8 -6 -14q-5 -6 -13 -6v0zM288 332q-7 0 -13 6q-7 6 -7 14q0 6 6 12
q6 7 14 7q6 0 12 -6q7 -6 7 -13q0 -8 -6 -14q-5 -6 -13 -6v0zM160 396q-7 0 -13 6q-7 6 -7 14q0 6 6 12q6 7 14 7q6 0 12 -6q7 -6 7 -13q0 -8 -6 -14q-5 -6 -13 -6v0zM160 460q-7 0 -13 6q-7 6 -7 14q0 6 6 12q6 7 14 7q6 0 12 -6q7 -6 7 -13q0 -8 -6 -14q-5 -6 -13 -6v0z
M160 524q-7 0 -13 6q-7 6 -7 14q0 6 6 12q6 7 14 7q6 0 12 -6q7 -6 7 -13q0 -8 -6 -14q-5 -6 -13 -6v0z" />
    <glyph glyph-name="u" unicode="u" 
d="M96 12q-7 0 -13 6q-7 6 -7 14q0 6 6 12q6 7 14 7q6 0 12 -6q7 -6 7 -13q0 -8 -6 -14q-5 -6 -13 -6v0zM160 12q-7 0 -13 6q-7 6 -7 14q0 6 6 12q6 7 14 7q6 0 12 -6q7 -6 7 -13q0 -8 -6 -14q-5 -6 -13 -6v0zM224 12q-7 0 -13 6q-7 6 -7 14q0 6 6 12q6 7 14 7q6 0 12 -6
q7 -6 7 -13q0 -8 -6 -14q-5 -6 -13 -6v0zM288 12q-7 0 -13 6q-7 6 -7 14q0 6 6 12q6 7 14 7q6 0 12 -6q7 -6 7 -13q0 -8 -6 -14q-5 -6 -13 -6v0zM32 76q-7 0 -13 6q-7 6 -7 14q0 6 6 12q6 7 14 7q6 0 12 -6q7 -6 7 -13q0 -8 -6 -14q-5 -6 -13 -6v0zM288 76q-7 0 -13 6
q-7 6 -7 14q0 6 6 12q6 7 14 7q6 0 12 -6q7 -6 7 -13q0 -8 -6 -14q-5 -6 -13 -6v0zM32 140q-7 0 -13 6q-7 6 -7 14q0 6 6 12q6 7 14 7q6 0 12 -6q7 -6 7 -13q0 -8 -6 -14q-5 -6 -13 -6v0zM288 140q-7 0 -13 6q-7 6 -7 14q0 6 6 12q6 7 14 7q6 0 12 -6q7 -6 7 -13
q0 -8 -6 -14q-5 -6 -13 -6v0zM32 204q-7 0 -13 6q-7 6 -7 14q0 6 6 12q6 7 14 7q6 0 12 -6q7 -6 7 -13q0 -8 -6 -14q-5 -6 -13 -6v0zM288 204q-7 0 -13 6q-7 6 -7 14q0 6 6 12q6 7 14 7q6 0 12 -6q7 -6 7 -13q0 -8 -6 -14q-5 -6 -13 -6v0zM32 268q-7 0 -13 6q-7 6 -7 14
q0 6 6 12q6 7 14 7q6 0 12 -6q7 -6 7 -13q0 -8 -6 -14q-5 -6 -13 -6v0zM288 268q-7 0 -13 6q-7 6 -7 14q0 6 6 12q6 7 14 7q6 0 12 -6q7 -6 7 -13q0 -8 -6 -14q-5 -6 -13 -6v0zM32 332q-7 0 -13 6q-7 6 -7 14q0 6 6 12q6 7 14 7q6 0 12 -6q7 -6 7 -13q0 -8 -6 -14
q-5 -6 -13 -6v0zM288 332q-7 0 -13 6q-7 6 -7 14q0 6 6 12q6 7 14 7q6 0 12 -6q7 -6 7 -13q0 -8 -6 -14q-5 -6 -13 -6v0z" />
    <glyph glyph-name="v" unicode="v" 
d="M160 12q-7 0 -13 6q-7 6 -7 14q0 6 6 12q6 7 14 7q6 0 12 -6q7 -6 7 -13q0 -8 -6 -14q-5 -6 -13 -6v0zM160 76q-7 0 -13 6q-7 6 -7 14q0 6 6 12q6 7 14 7q6 0 12 -6q7 -6 7 -13q0 -8 -6 -14q-5 -6 -13 -6v0zM96 140q-7 0 -13 6q-7 6 -7 14q0 6 6 12q6 7 14 7q6 0 12 -6
q7 -6 7 -13q0 -8 -6 -14q-5 -6 -13 -6v0zM224 140q-7 0 -13 6q-7 6 -7 14q0 6 6 12q6 7 14 7q6 0 12 -6q7 -6 7 -13q0 -8 -6 -14q-5 -6 -13 -6v0zM96 204q-7 0 -13 6q-7 6 -7 14q0 6 6 12q6 7 14 7q6 0 12 -6q7 -6 7 -13q0 -8 -6 -14q-5 -6 -13 -6v0zM224 204q-7 0 -13 6
q-7 6 -7 14q0 6 6 12q6 7 14 7q6 0 12 -6q7 -6 7 -13q0 -8 -6 -14q-5 -6 -13 -6v0zM32 268q-7 0 -13 6q-7 6 -7 14q0 6 6 12q6 7 14 7q6 0 12 -6q7 -6 7 -13q0 -8 -6 -14q-5 -6 -13 -6v0zM288 268q-7 0 -13 6q-7 6 -7 14q0 6 6 12q6 7 14 7q6 0 12 -6q7 -6 7 -13
q0 -8 -6 -14q-5 -6 -13 -6v0zM32 332q-7 0 -13 6q-7 6 -7 14q0 6 6 12q6 7 14 7q6 0 12 -6q7 -6 7 -13q0 -8 -6 -14q-5 -6 -13 -6v0zM288 332q-7 0 -13 6q-7 6 -7 14q0 6 6 12q6 7 14 7q6 0 12 -6q7 -6 7 -13q0 -8 -6 -14q-5 -6 -13 -6v0z" />
    <glyph glyph-name="w" unicode="w" 
d="M96 12q-7 0 -13 6q-7 6 -7 14q0 6 6 12q6 7 14 7q6 0 12 -6q7 -6 7 -13q0 -8 -6 -14q-5 -6 -13 -6v0zM224 12q-7 0 -13 6q-7 6 -7 14q0 6 6 12q6 7 14 7q6 0 12 -6q7 -6 7 -13q0 -8 -6 -14q-5 -6 -13 -6v0zM32 76q-7 0 -13 6q-7 6 -7 14q0 6 6 12q6 7 14 7q6 0 12 -6
q7 -6 7 -13q0 -8 -6 -14q-5 -6 -13 -6v0zM160 76q-7 0 -13 6q-7 6 -7 14q0 6 6 12q6 7 14 7q6 0 12 -6q7 -6 7 -13q0 -8 -6 -14q-5 -6 -13 -6v0zM288 76q-7 0 -13 6q-7 6 -7 14q0 6 6 12q6 7 14 7q6 0 12 -6q7 -6 7 -13q0 -8 -6 -14q-5 -6 -13 -6v0zM32 140q-7 0 -13 6
q-7 6 -7 14q0 6 6 12q6 7 14 7q6 0 12 -6q7 -6 7 -13q0 -8 -6 -14q-5 -6 -13 -6v0zM160 140q-7 0 -13 6q-7 6 -7 14q0 6 6 12q6 7 14 7q6 0 12 -6q7 -6 7 -13q0 -8 -6 -14q-5 -6 -13 -6v0zM288 140q-7 0 -13 6q-7 6 -7 14q0 6 6 12q6 7 14 7q6 0 12 -6q7 -6 7 -13
q0 -8 -6 -14q-5 -6 -13 -6v0zM32 204q-7 0 -13 6q-7 6 -7 14q0 6 6 12q6 7 14 7q6 0 12 -6q7 -6 7 -13q0 -8 -6 -14q-5 -6 -13 -6v0zM160 204q-7 0 -13 6q-7 6 -7 14q0 6 6 12q6 7 14 7q6 0 12 -6q7 -6 7 -13q0 -8 -6 -14q-5 -6 -13 -6v0zM288 204q-7 0 -13 6q-7 6 -7 14
q0 6 6 12q6 7 14 7q6 0 12 -6q7 -6 7 -13q0 -8 -6 -14q-5 -6 -13 -6v0zM32 268q-7 0 -13 6q-7 6 -7 14q0 6 6 12q6 7 14 7q6 0 12 -6q7 -6 7 -13q0 -8 -6 -14q-5 -6 -13 -6v0zM288 268q-7 0 -13 6q-7 6 -7 14q0 6 6 12q6 7 14 7q6 0 12 -6q7 -6 7 -13q0 -8 -6 -14
q-5 -6 -13 -6v0zM32 332q-7 0 -13 6q-7 6 -7 14q0 6 6 12q6 7 14 7q6 0 12 -6q7 -6 7 -13q0 -8 -6 -14q-5 -6 -13 -6v0zM288 332q-7 0 -13 6q-7 6 -7 14q0 6 6 12q6 7 14 7q6 0 12 -6q7 -6 7 -13q0 -8 -6 -14q-5 -6 -13 -6v0z" />
    <glyph glyph-name="x" unicode="x" 
d="M32 12q-7 0 -13 6q-7 6 -7 14q0 6 6 12q6 7 14 7q6 0 12 -6q7 -6 7 -13q0 -8 -6 -14q-5 -6 -13 -6v0zM288 12q-7 0 -13 6q-7 6 -7 14q0 6 6 12q6 7 14 7q6 0 12 -6q7 -6 7 -13q0 -8 -6 -14q-5 -6 -13 -6v0zM96 76q-7 0 -13 6q-7 6 -7 14q0 6 6 12q6 7 14 7q6 0 12 -6
q7 -6 7 -13q0 -8 -6 -14q-5 -6 -13 -6v0zM224 76q-7 0 -13 6q-7 6 -7 14q0 6 6 12q6 7 14 7q6 0 12 -6q7 -6 7 -13q0 -8 -6 -14q-5 -6 -13 -6v0zM160 140q-7 0 -13 6q-7 6 -7 14q0 6 6 12q6 7 14 7q6 0 12 -6q7 -6 7 -13q0 -8 -6 -14q-5 -6 -13 -6v0zM160 204q-7 0 -13 6
q-7 6 -7 14q0 6 6 12q6 7 14 7q6 0 12 -6q7 -6 7 -13q0 -8 -6 -14q-5 -6 -13 -6v0zM96 268q-7 0 -13 6q-7 6 -7 14q0 6 6 12q6 7 14 7q6 0 12 -6q7 -6 7 -13q0 -8 -6 -14q-5 -6 -13 -6v0zM224 268q-7 0 -13 6q-7 6 -7 14q0 6 6 12q6 7 14 7q6 0 12 -6q7 -6 7 -13
q0 -8 -6 -14q-5 -6 -13 -6v0zM32 332q-7 0 -13 6q-7 6 -7 14q0 6 6 12q6 7 14 7q6 0 12 -6q7 -6 7 -13q0 -8 -6 -14q-5 -6 -13 -6v0zM288 332q-7 0 -13 6q-7 6 -7 14q0 6 6 12q6 7 14 7q6 0 12 -6q7 -6 7 -13q0 -8 -6 -14q-5 -6 -13 -6v0z" />
    <glyph glyph-name="y" unicode="y" 
d="M32 12q-7 0 -13 6q-7 6 -7 14q0 6 6 12q6 7 14 7q6 0 12 -6q7 -6 7 -13q0 -8 -6 -14q-5 -6 -13 -6v0zM96 12q-7 0 -13 6q-7 6 -7 14q0 6 6 12q6 7 14 7q6 0 12 -6q7 -6 7 -13q0 -8 -6 -14q-5 -6 -13 -6v0zM160 12q-7 0 -13 6q-7 6 -7 14q0 6 6 12q6 7 14 7q6 0 12 -6
q7 -6 7 -13q0 -8 -6 -14q-5 -6 -13 -6v0zM224 12q-7 0 -13 6q-7 6 -7 14q0 6 6 12q6 7 14 7q6 0 12 -6q7 -6 7 -13q0 -8 -6 -14q-5 -6 -13 -6v0zM288 76q-7 0 -13 6q-7 6 -7 14q0 6 6 12q6 7 14 7q6 0 12 -6q7 -6 7 -13q0 -8 -6 -14q-5 -6 -13 -6v0zM96 140q-7 0 -13 6
q-7 6 -7 14q0 6 6 12q6 7 14 7q6 0 12 -6q7 -6 7 -13q0 -8 -6 -14q-5 -6 -13 -6v0zM160 140q-7 0 -13 6q-7 6 -7 14q0 6 6 12q6 7 14 7q6 0 12 -6q7 -6 7 -13q0 -8 -6 -14q-5 -6 -13 -6v0zM224 140q-7 0 -13 6q-7 6 -7 14q0 6 6 12q6 7 14 7q6 0 12 -6q7 -6 7 -13
q0 -8 -6 -14q-5 -6 -13 -6v0zM288 140q-7 0 -13 6q-7 6 -7 14q0 6 6 12q6 7 14 7q6 0 12 -6q7 -6 7 -13q0 -8 -6 -14q-5 -6 -13 -6v0zM32 204q-7 0 -13 6q-7 6 -7 14q0 6 6 12q6 7 14 7q6 0 12 -6q7 -6 7 -13q0 -8 -6 -14q-5 -6 -13 -6v0zM288 204q-7 0 -13 6q-7 6 -7 14
q0 6 6 12q6 7 14 7q6 0 12 -6q7 -6 7 -13q0 -8 -6 -14q-5 -6 -13 -6v0zM32 268q-7 0 -13 6q-7 6 -7 14q0 6 6 12q6 7 14 7q6 0 12 -6q7 -6 7 -13q0 -8 -6 -14q-5 -6 -13 -6v0zM288 268q-7 0 -13 6q-7 6 -7 14q0 6 6 12q6 7 14 7q6 0 12 -6q7 -6 7 -13q0 -8 -6 -14
q-5 -6 -13 -6v0zM32 332q-7 0 -13 6q-7 6 -7 14q0 6 6 12q6 7 14 7q6 0 12 -6q7 -6 7 -13q0 -8 -6 -14q-5 -6 -13 -6v0zM288 332q-7 0 -13 6q-7 6 -7 14q0 6 6 12q6 7 14 7q6 0 12 -6q7 -6 7 -13q0 -8 -6 -14q-5 -6 -13 -6v0z" />
    <glyph glyph-name="z" unicode="z" 
d="M32 12q-7 0 -13 6q-7 6 -7 14q0 6 6 12q6 7 14 7q6 0 12 -6q7 -6 7 -13q0 -8 -6 -14q-5 -6 -13 -6v0zM96 12q-7 0 -13 6q-7 6 -7 14q0 6 6 12q6 7 14 7q6 0 12 -6q7 -6 7 -13q0 -8 -6 -14q-5 -6 -13 -6v0zM160 12q-7 0 -13 6q-7 6 -7 14q0 6 6 12q6 7 14 7q6 0 12 -6
q7 -6 7 -13q0 -8 -6 -14q-5 -6 -13 -6v0zM224 12q-7 0 -13 6q-7 6 -7 14q0 6 6 12q6 7 14 7q6 0 12 -6q7 -6 7 -13q0 -8 -6 -14q-5 -6 -13 -6v0zM288 12q-7 0 -13 6q-7 6 -7 14q0 6 6 12q6 7 14 7q6 0 12 -6q7 -6 7 -13q0 -8 -6 -14q-5 -6 -13 -6v0zM32 76q-7 0 -13 6
q-7 6 -7 14q0 6 6 12q6 7 14 7q6 0 12 -6q7 -6 7 -13q0 -8 -6 -14q-5 -6 -13 -6v0zM96 140q-7 0 -13 6q-7 6 -7 14q0 6 6 12q6 7 14 7q6 0 12 -6q7 -6 7 -13q0 -8 -6 -14q-5 -6 -13 -6v0zM160 204q-7 0 -13 6q-7 6 -7 14q0 6 6 12q6 7 14 7q6 0 12 -6q7 -6 7 -13
q0 -8 -6 -14q-5 -6 -13 -6v0zM224 268q-7 0 -13 6q-7 6 -7 14q0 6 6 12q6 7 14 7q6 0 12 -6q7 -6 7 -13q0 -8 -6 -14q-5 -6 -13 -6v0zM32 332q-7 0 -13 6q-7 6 -7 14q0 6 6 12q6 7 14 7q6 0 12 -6q7 -6 7 -13q0 -8 -6 -14q-5 -6 -13 -6v0zM96 332q-7 0 -13 6q-7 6 -7 14
q0 6 6 12q6 7 14 7q6 0 12 -6q7 -6 7 -13q0 -8 -6 -14q-5 -6 -13 -6v0zM160 332q-7 0 -13 6q-7 6 -7 14q0 6 6 12q6 7 14 7q6 0 12 -6q7 -6 7 -13q0 -8 -6 -14q-5 -6 -13 -6v0zM224 332q-7 0 -13 6q-7 6 -7 14q0 6 6 12q6 7 14 7q6 0 12 -6q7 -6 7 -13q0 -8 -6 -14
q-5 -6 -13 -6v0zM288 332q-7 0 -13 6q-7 6 -7 14q0 6 6 12q6 7 14 7q6 0 12 -6q7 -6 7 -13q0 -8 -6 -14q-5 -6 -13 -6v0z" />
    <glyph glyph-name="braceleft" unicode="{" horiz-adv-x="320" 
d="M160 12q-7 0 -13 6q-7 6 -7 14q0 6 6 12q6 7 14 7q6 0 12 -6q7 -6 7 -13q0 -8 -6 -14q-5 -6 -13 -6v0zM224 12q-7 0 -13 6q-7 6 -7 14q0 6 6 12q6 7 14 7q6 0 12 -6q7 -6 7 -13q0 -8 -6 -14q-5 -6 -13 -6v0zM96 76q-7 0 -13 6q-7 6 -7 14q0 6 6 12q6 7 14 7q6 0 12 -6
q7 -6 7 -13q0 -8 -6 -14q-5 -6 -13 -6v0zM96 140q-7 0 -13 6q-7 6 -7 14q0 6 6 12q6 7 14 7q6 0 12 -6q7 -6 7 -13q0 -8 -6 -14q-5 -6 -13 -6v0zM96 204q-7 0 -13 6q-7 6 -7 14q0 6 6 12q6 7 14 7q6 0 12 -6q7 -6 7 -13q0 -8 -6 -14q-5 -6 -13 -6v0zM32 268q-7 0 -13 6
q-7 6 -7 14q0 6 6 12q6 7 14 7q6 0 12 -6q7 -6 7 -13q0 -8 -6 -14q-5 -6 -13 -6v0zM96 332q-7 0 -13 6q-7 6 -7 14q0 6 6 12q6 7 14 7q6 0 12 -6q7 -6 7 -13q0 -8 -6 -14q-5 -6 -13 -6v0zM96 396q-7 0 -13 6q-7 6 -7 14q0 6 6 12q6 7 14 7q6 0 12 -6q7 -6 7 -13q0 -8 -6 -14
q-5 -6 -13 -6v0zM96 460q-7 0 -13 6q-7 6 -7 14q0 6 6 12q6 7 14 7q6 0 12 -6q7 -6 7 -13q0 -8 -6 -14q-5 -6 -13 -6v0zM160 524q-7 0 -13 6q-7 6 -7 14q0 6 6 12q6 7 14 7q6 0 12 -6q7 -6 7 -13q0 -8 -6 -14q-5 -6 -13 -6v0zM224 524q-7 0 -13 6q-7 6 -7 14q0 6 6 12
q6 7 14 7q6 0 12 -6q7 -6 7 -13q0 -8 -6 -14q-5 -6 -13 -6v0z" />
    <glyph glyph-name="bar" unicode="|" horiz-adv-x="128" 
d="M32 12q-7 0 -13 6q-7 6 -7 14q0 6 6 12q6 7 14 7q6 0 12 -6q7 -6 7 -13q0 -8 -6 -14q-5 -6 -13 -6v0zM32 76q-7 0 -13 6q-7 6 -7 14q0 6 6 12q6 7 14 7q6 0 12 -6q7 -6 7 -13q0 -8 -6 -14q-5 -6 -13 -6v0zM32 140q-7 0 -13 6q-7 6 -7 14q0 6 6 12q6 7 14 7q6 0 12 -6
q7 -6 7 -13q0 -8 -6 -14q-5 -6 -13 -6v0zM32 396q-7 0 -13 6q-7 6 -7 14q0 6 6 12q6 7 14 7q6 0 12 -6q7 -6 7 -13q0 -8 -6 -14q-5 -6 -13 -6v0zM32 460q-7 0 -13 6q-7 6 -7 14q0 6 6 12q6 7 14 7q6 0 12 -6q7 -6 7 -13q0 -8 -6 -14q-5 -6 -13 -6v0zM32 524q-7 0 -13 6
q-7 6 -7 14q0 6 6 12q6 7 14 7q6 0 12 -6q7 -6 7 -13q0 -8 -6 -14q-5 -6 -13 -6v0z" />
    <glyph glyph-name="braceright" unicode="}" horiz-adv-x="320" 
d="M32 12q-8 0 -14 6t-6 14q0 7 7 13q6 6 13 6t13 -7q6 -6 6 -12q0 -8 -7 -14q-6 -6 -12 -6v0zM96 12q-8 0 -14 6t-6 14q0 7 7 13q6 6 13 6t13 -7q6 -6 6 -12q0 -8 -7 -14q-6 -6 -12 -6v0zM160 76q-8 0 -14 6t-6 14q0 7 7 13q6 6 13 6t13 -7q6 -6 6 -12q0 -8 -7 -14
q-6 -6 -12 -6v0zM160 140q-8 0 -14 6t-6 14q0 7 7 13q6 6 13 6t13 -7q6 -6 6 -12q0 -8 -7 -14q-6 -6 -12 -6v0zM160 204q-8 0 -14 6t-6 14q0 7 7 13q6 6 13 6t13 -7q6 -6 6 -12q0 -8 -7 -14q-6 -6 -12 -6v0zM224 268q-8 0 -14 6t-6 14q0 7 7 13q6 6 13 6t13 -7q6 -6 6 -12
q0 -8 -7 -14q-6 -6 -12 -6v0zM160 332q-8 0 -14 6t-6 14q0 7 7 13q6 6 13 6t13 -7q6 -6 6 -12q0 -8 -7 -14q-6 -6 -12 -6v0zM160 396q-8 0 -14 6t-6 14q0 7 7 13q6 6 13 6t13 -7q6 -6 6 -12q0 -8 -7 -14q-6 -6 -12 -6v0zM160 460q-8 0 -14 6t-6 14q0 7 7 13q6 6 13 6t13 -7
q6 -6 6 -12q0 -8 -7 -14q-6 -6 -12 -6v0zM32 524q-8 0 -14 6t-6 14q0 7 7 13q6 6 13 6t13 -7q6 -6 6 -12q0 -8 -7 -14q-6 -6 -12 -6v0zM96 524q-8 0 -14 6t-6 14q0 7 7 13q6 6 13 6t13 -7q6 -6 6 -12q0 -8 -7 -14q-6 -6 -12 -6v0z" />
    <glyph glyph-name="asciitilde" unicode="~" 
d="M32 204q-7 0 -13 6q-7 6 -7 14q0 6 6 12q6 7 14 7q6 0 12 -6q7 -6 7 -13q0 -8 -6 -14q-5 -6 -13 -6v0zM224 204q-7 0 -13 6q-7 6 -7 14q0 6 6 12q6 7 14 7q6 0 12 -6q7 -6 7 -13q0 -8 -6 -14q-5 -6 -13 -6v0zM32 268q-7 0 -13 6q-7 6 -7 14q0 6 6 12q6 7 14 7q6 0 12 -6
q7 -6 7 -13q0 -8 -6 -14q-5 -6 -13 -6v0zM160 268q-7 0 -13 6q-7 6 -7 14q0 6 6 12q6 7 14 7q6 0 12 -6q7 -6 7 -13q0 -8 -6 -14q-5 -6 -13 -6v0zM288 268q-7 0 -13 6q-7 6 -7 14q0 6 6 12q6 7 14 7q6 0 12 -6q7 -6 7 -13q0 -8 -6 -14q-5 -6 -13 -6v0zM96 332q-7 0 -13 6
q-7 6 -7 14q0 6 6 12q6 7 14 7q6 0 12 -6q7 -6 7 -13q0 -8 -6 -14q-5 -6 -13 -6v0zM288 332q-7 0 -13 6q-7 6 -7 14q0 6 6 12q6 7 14 7q6 0 12 -6q7 -6 7 -13q0 -8 -6 -14q-5 -6 -13 -6v0z" />
    <glyph glyph-name="cent" unicode="&#xa2;" 
d="M160 76q-7 0 -13 6q-7 6 -7 14q0 6 6 12q6 7 14 7q6 0 12 -6q7 -6 7 -13q0 -8 -6 -14q-5 -6 -13 -6v0zM96 140q-7 0 -13 6q-7 6 -7 14q0 6 6 12q6 7 14 7q6 0 12 -6q7 -6 7 -13q0 -8 -6 -14q-5 -6 -13 -6v0zM160 140q-7 0 -13 6q-7 6 -7 14q0 6 6 12q6 7 14 7q6 0 12 -6
q7 -6 7 -13q0 -8 -6 -14q-5 -6 -13 -6v0zM224 140q-7 0 -13 6q-7 6 -7 14q0 6 6 12q6 7 14 7q6 0 12 -6q7 -6 7 -13q0 -8 -6 -14q-5 -6 -13 -6v0zM288 140q-7 0 -13 6q-7 6 -7 14q0 6 6 12q6 7 14 7q6 0 12 -6q7 -6 7 -13q0 -8 -6 -14q-5 -6 -13 -6v0zM32 204q-7 0 -13 6
q-7 6 -7 14q0 6 6 12q6 7 14 7q6 0 12 -6q7 -6 7 -13q0 -8 -6 -14q-5 -6 -13 -6v0zM160 204q-7 0 -13 6q-7 6 -7 14q0 6 6 12q6 7 14 7q6 0 12 -6q7 -6 7 -13q0 -8 -6 -14q-5 -6 -13 -6v0zM32 268q-7 0 -13 6q-7 6 -7 14q0 6 6 12q6 7 14 7q6 0 12 -6q7 -6 7 -13
q0 -8 -6 -14q-5 -6 -13 -6v0zM160 268q-7 0 -13 6q-7 6 -7 14q0 6 6 12q6 7 14 7q6 0 12 -6q7 -6 7 -13q0 -8 -6 -14q-5 -6 -13 -6v0zM32 332q-7 0 -13 6q-7 6 -7 14q0 6 6 12q6 7 14 7q6 0 12 -6q7 -6 7 -13q0 -8 -6 -14q-5 -6 -13 -6v0zM160 332q-7 0 -13 6q-7 6 -7 14
q0 6 6 12q6 7 14 7q6 0 12 -6q7 -6 7 -13q0 -8 -6 -14q-5 -6 -13 -6v0zM288 332q-7 0 -13 6q-7 6 -7 14q0 6 6 12q6 7 14 7q6 0 12 -6q7 -6 7 -13q0 -8 -6 -14q-5 -6 -13 -6v0zM96 396q-7 0 -13 6q-7 6 -7 14q0 6 6 12q6 7 14 7q6 0 12 -6q7 -6 7 -13q0 -8 -6 -14
q-5 -6 -13 -6v0zM160 396q-7 0 -13 6q-7 6 -7 14q0 6 6 12q6 7 14 7q6 0 12 -6q7 -6 7 -13q0 -8 -6 -14q-5 -6 -13 -6v0zM224 396q-7 0 -13 6q-7 6 -7 14q0 6 6 12q6 7 14 7q6 0 12 -6q7 -6 7 -13q0 -8 -6 -14q-5 -6 -13 -6v0zM160 460q-7 0 -13 6q-7 6 -7 14q0 6 6 12
q6 7 14 7q6 0 12 -6q7 -6 7 -13q0 -8 -6 -14q-5 -6 -13 -6v0z" />
    <glyph glyph-name="sterling" unicode="&#xa3;" 
d="M32 12q-7 0 -13 6q-7 6 -7 14q0 6 6 12q6 7 14 7q6 0 12 -6q7 -6 7 -13q0 -8 -6 -14q-5 -6 -13 -6v0zM96 12q-7 0 -13 6q-7 6 -7 14q0 6 6 12q6 7 14 7q6 0 12 -6q7 -6 7 -13q0 -8 -6 -14q-5 -6 -13 -6v0zM160 12q-7 0 -13 6q-7 6 -7 14q0 6 6 12q6 7 14 7q6 0 12 -6
q7 -6 7 -13q0 -8 -6 -14q-5 -6 -13 -6v0zM224 12q-7 0 -13 6q-7 6 -7 14q0 6 6 12q6 7 14 7q6 0 12 -6q7 -6 7 -13q0 -8 -6 -14q-5 -6 -13 -6v0zM288 12q-7 0 -13 6q-7 6 -7 14q0 6 6 12q6 7 14 7q6 0 12 -6q7 -6 7 -13q0 -8 -6 -14q-5 -6 -13 -6v0zM160 76q-7 0 -13 6
q-7 6 -7 14q0 6 6 12q6 7 14 7q6 0 12 -6q7 -6 7 -13q0 -8 -6 -14q-5 -6 -13 -6v0zM160 140q-7 0 -13 6q-7 6 -7 14q0 6 6 12q6 7 14 7q6 0 12 -6q7 -6 7 -13q0 -8 -6 -14q-5 -6 -13 -6v0zM160 204q-7 0 -13 6q-7 6 -7 14q0 6 6 12q6 7 14 7q6 0 12 -6q7 -6 7 -13
q0 -8 -6 -14q-5 -6 -13 -6v0zM160 268q-7 0 -13 6q-7 6 -7 14q0 6 6 12q6 7 14 7q6 0 12 -6q7 -6 7 -13q0 -8 -6 -14q-5 -6 -13 -6v0zM96 332q-7 0 -13 6q-7 6 -7 14q0 6 6 12q6 7 14 7q6 0 12 -6q7 -6 7 -13q0 -8 -6 -14q-5 -6 -13 -6v0zM160 332q-7 0 -13 6q-7 6 -7 14
q0 6 6 12q6 7 14 7q6 0 12 -6q7 -6 7 -13q0 -8 -6 -14q-5 -6 -13 -6v0zM224 332q-7 0 -13 6q-7 6 -7 14q0 6 6 12q6 7 14 7q6 0 12 -6q7 -6 7 -13q0 -8 -6 -14q-5 -6 -13 -6v0zM160 396q-7 0 -13 6q-7 6 -7 14q0 6 6 12q6 7 14 7q6 0 12 -6q7 -6 7 -13q0 -8 -6 -14
q-5 -6 -13 -6v0zM160 460q-7 0 -13 6q-7 6 -7 14q0 6 6 12q6 7 14 7q6 0 12 -6q7 -6 7 -13q0 -8 -6 -14q-5 -6 -13 -6v0zM224 524q-7 0 -13 6q-7 6 -7 14q0 6 6 12q6 7 14 7q6 0 12 -6q7 -6 7 -13q0 -8 -6 -14q-5 -6 -13 -6v0zM288 524q-7 0 -13 6q-7 6 -7 14q0 6 6 12
q6 7 14 7q6 0 12 -6q7 -6 7 -13q0 -8 -6 -14q-5 -6 -13 -6v0z" />
    <glyph glyph-name="quoteleft" unicode="&#x2018;" horiz-adv-x="128" 
d="M32 396q-7 0 -13 6q-7 6 -7 14q0 6 6 12q6 7 14 7q6 0 12 -6q7 -6 7 -13q0 -8 -6 -14q-5 -6 -13 -6v0zM32 460q-7 0 -13 6q-7 6 -7 14q0 6 6 12q6 7 14 7q6 0 12 -6q7 -6 7 -13q0 -8 -6 -14q-5 -6 -13 -6v0zM32 524q-7 0 -13 6q-7 6 -7 14q0 6 6 12q6 7 14 7q6 0 12 -6
q7 -6 7 -13q0 -8 -6 -14q-5 -6 -13 -6v0z" />
    <glyph glyph-name="quoteright" unicode="&#x2019;" horiz-adv-x="128" 
d="M32 396q-7 0 -13 6q-7 6 -7 14q0 6 6 12q6 7 14 7q6 0 12 -6q7 -6 7 -13q0 -8 -6 -14q-5 -6 -13 -6v0zM32 460q-7 0 -13 6q-7 6 -7 14q0 6 6 12q6 7 14 7q6 0 12 -6q7 -6 7 -13q0 -8 -6 -14q-5 -6 -13 -6v0zM32 524q-7 0 -13 6q-7 6 -7 14q0 6 6 12q6 7 14 7q6 0 12 -6
q7 -6 7 -13q0 -8 -6 -14q-5 -6 -13 -6v0z" />
    <glyph glyph-name="quotedblleft" unicode="&#x201c;" horiz-adv-x="256" 
d="M32 396q-7 0 -13 6q-7 6 -7 14q0 6 6 12q6 7 14 7q6 0 12 -6q7 -6 7 -13q0 -8 -6 -14q-5 -6 -13 -6v0zM160 396q-7 0 -13 6q-7 6 -7 14q0 6 6 12q6 7 14 7q6 0 12 -6q7 -6 7 -13q0 -8 -6 -14q-5 -6 -13 -6v0zM32 460q-7 0 -13 6q-7 6 -7 14q0 6 6 12q6 7 14 7q6 0 12 -6
q7 -6 7 -13q0 -8 -6 -14q-5 -6 -13 -6v0zM160 460q-7 0 -13 6q-7 6 -7 14q0 6 6 12q6 7 14 7q6 0 12 -6q7 -6 7 -13q0 -8 -6 -14q-5 -6 -13 -6v0zM32 524q-7 0 -13 6q-7 6 -7 14q0 6 6 12q6 7 14 7q6 0 12 -6q7 -6 7 -13q0 -8 -6 -14q-5 -6 -13 -6v0zM160 524q-7 0 -13 6
q-7 6 -7 14q0 6 6 12q6 7 14 7q6 0 12 -6q7 -6 7 -13q0 -8 -6 -14q-5 -6 -13 -6v0z" />
    <glyph glyph-name="quotedblright" unicode="&#x201d;" horiz-adv-x="256" 
d="M32 396q-7 0 -13 6q-7 6 -7 14q0 6 6 12q6 7 14 7q6 0 12 -6q7 -6 7 -13q0 -8 -6 -14q-5 -6 -13 -6v0zM160 396q-7 0 -13 6q-7 6 -7 14q0 6 6 12q6 7 14 7q6 0 12 -6q7 -6 7 -13q0 -8 -6 -14q-5 -6 -13 -6v0zM32 460q-7 0 -13 6q-7 6 -7 14q0 6 6 12q6 7 14 7q6 0 12 -6
q7 -6 7 -13q0 -8 -6 -14q-5 -6 -13 -6v0zM160 460q-7 0 -13 6q-7 6 -7 14q0 6 6 12q6 7 14 7q6 0 12 -6q7 -6 7 -13q0 -8 -6 -14q-5 -6 -13 -6v0zM32 524q-7 0 -13 6q-7 6 -7 14q0 6 6 12q6 7 14 7q6 0 12 -6q7 -6 7 -13q0 -8 -6 -14q-5 -6 -13 -6v0zM160 524q-7 0 -13 6
q-7 6 -7 14q0 6 6 12q6 7 14 7q6 0 12 -6q7 -6 7 -13q0 -8 -6 -14q-5 -6 -13 -6v0z" />
    <glyph glyph-name="Euro" unicode="&#x20ac;" 
d="M160 12q-7 0 -13 6q-7 6 -7 14q0 6 6 12q6 7 14 7q6 0 12 -6q7 -6 7 -13q0 -8 -6 -14q-5 -6 -13 -6v0zM224 12q-7 0 -13 6q-7 6 -7 14q0 6 6 12q6 7 14 7q6 0 12 -6q7 -6 7 -13q0 -8 -6 -14q-5 -6 -13 -6v0zM288 12q-7 0 -13 6q-7 6 -7 14q0 6 6 12q6 7 14 7q6 0 12 -6
q7 -6 7 -13q0 -8 -6 -14q-5 -6 -13 -6v0zM96 76q-7 0 -13 6q-7 6 -7 14q0 6 6 12q6 7 14 7q6 0 12 -6q7 -6 7 -13q0 -8 -6 -14q-5 -6 -13 -6v0zM96 140q-7 0 -13 6q-7 6 -7 14q0 6 6 12q6 7 14 7q6 0 12 -6q7 -6 7 -13q0 -8 -6 -14q-5 -6 -13 -6v0zM32 204q-7 0 -13 6
q-7 6 -7 14q0 6 6 12q6 7 14 7q6 0 12 -6q7 -6 7 -13q0 -8 -6 -14q-5 -6 -13 -6v0zM96 204q-7 0 -13 6q-7 6 -7 14q0 6 6 12q6 7 14 7q6 0 12 -6q7 -6 7 -13q0 -8 -6 -14q-5 -6 -13 -6v0zM160 204q-7 0 -13 6q-7 6 -7 14q0 6 6 12q6 7 14 7q6 0 12 -6q7 -6 7 -13
q0 -8 -6 -14q-5 -6 -13 -6v0zM224 204q-7 0 -13 6q-7 6 -7 14q0 6 6 12q6 7 14 7q6 0 12 -6q7 -6 7 -13q0 -8 -6 -14q-5 -6 -13 -6v0zM96 268q-7 0 -13 6q-7 6 -7 14q0 6 6 12q6 7 14 7q6 0 12 -6q7 -6 7 -13q0 -8 -6 -14q-5 -6 -13 -6v0zM32 332q-7 0 -13 6q-7 6 -7 14
q0 6 6 12q6 7 14 7q6 0 12 -6q7 -6 7 -13q0 -8 -6 -14q-5 -6 -13 -6v0zM96 332q-7 0 -13 6q-7 6 -7 14q0 6 6 12q6 7 14 7q6 0 12 -6q7 -6 7 -13q0 -8 -6 -14q-5 -6 -13 -6v0zM160 332q-7 0 -13 6q-7 6 -7 14q0 6 6 12q6 7 14 7q6 0 12 -6q7 -6 7 -13q0 -8 -6 -14
q-5 -6 -13 -6v0zM224 332q-7 0 -13 6q-7 6 -7 14q0 6 6 12q6 7 14 7q6 0 12 -6q7 -6 7 -13q0 -8 -6 -14q-5 -6 -13 -6v0zM96 396q-7 0 -13 6q-7 6 -7 14q0 6 6 12q6 7 14 7q6 0 12 -6q7 -6 7 -13q0 -8 -6 -14q-5 -6 -13 -6v0zM96 460q-7 0 -13 6q-7 6 -7 14q0 6 6 12
q6 7 14 7q6 0 12 -6q7 -6 7 -13q0 -8 -6 -14q-5 -6 -13 -6v0zM160 524q-7 0 -13 6q-7 6 -7 14q0 6 6 12q6 7 14 7q6 0 12 -6q7 -6 7 -13q0 -8 -6 -14q-5 -6 -13 -6v0zM224 524q-7 0 -13 6q-7 6 -7 14q0 6 6 12q6 7 14 7q6 0 12 -6q7 -6 7 -13q0 -8 -6 -14q-5 -6 -13 -6v0z
M288 524q-7 0 -13 6q-7 6 -7 14q0 6 6 12q6 7 14 7q6 0 12 -6q7 -6 7 -13q0 -8 -6 -14q-5 -6 -13 -6v0z" />
  </font>
</defs>
</svg>
